<?xml version="1.0" encoding="utf-8"?>
<!-- Generator: Adobe Illustrator 21.1.0, SVG Export Plug-In . SVG Version: 6.00 Build 0)  -->
<svg version="1.1" id="Layer_1" xmlns="http://www.w3.org/2000/svg" xmlns:xlink="http://www.w3.org/1999/xlink" x="0px" y="0px"
	 viewBox="0 0 93.8 24.7" style="enable-background:new 0 0 93.8 24.7;" xml:space="preserve">
<style type="text/css">
	.st0{clip-path:url(#SVGID_2_);}
	.st1{clip-path:url(#SVGID_4_);}
	.st2{clip-path:url(#SVGID_6_);}
	.st3{clip-path:url(#SVGID_8_);}
	.st4{clip-path:url(#SVGID_10_);}
	.st5{clip-path:url(#SVGID_12_);}
	.st6{clip-path:url(#SVGID_14_);}
	.st7{clip-path:url(#SVGID_16_);}
	.st8{clip-path:url(#SVGID_18_);}
	.st9{clip-path:url(#SVGID_20_);}
	.st10{clip-path:url(#SVGID_22_);}
	.st11{clip-path:url(#SVGID_24_);}
	.st12{clip-path:url(#SVGID_26_);}
	.st13{clip-path:url(#SVGID_28_);}
	.st14{clip-path:url(#SVGID_30_);}
	.st15{clip-path:url(#SVGID_32_);}
	.st16{clip-path:url(#SVGID_34_);}
	.st17{clip-path:url(#SVGID_36_);}
</style>
<g>
	<g>
		<defs>
			<rect id="SVGID_1_" x="58.2" y="7.2" width="5.3" height="17.6"/>
		</defs>
		<use xlink:href="#SVGID_1_"  style="overflow:visible;fill-rule:evenodd;clip-rule:evenodd;"/>
		<clipPath id="SVGID_2_">
			<use xlink:href="#SVGID_1_"  style="overflow:visible;"/>
		</clipPath>
		<g class="st0">
			<defs>
				<rect id="SVGID_3_" y="0" width="94.2" height="25.1"/>
			</defs>
			<use xlink:href="#SVGID_3_"  style="overflow:visible;"/>
			<clipPath id="SVGID_4_">
				<use xlink:href="#SVGID_3_"  style="overflow:visible;"/>
			</clipPath>
			<rect x="56.1" y="5.1" class="st1" width="9.4" height="21.7"/>
		</g>
	</g>
	<g>
		<defs>
			<path id="SVGID_5_" d="M63.4,2.6c0,1.4-1.2,2.6-2.6,2.6c-1.4,0-2.6-1.2-2.6-2.6c0-1.4,1.2-2.6,2.6-2.6C62.2,0,63.4,1.2,63.4,2.6"
				/>
		</defs>
		<use xlink:href="#SVGID_5_"  style="overflow:visible;fill-rule:evenodd;clip-rule:evenodd;"/>
		<clipPath id="SVGID_6_">
			<use xlink:href="#SVGID_5_"  style="overflow:visible;"/>
		</clipPath>
		<g class="st2">
			<defs>
				<rect id="SVGID_7_" y="0" width="94.2" height="25.1"/>
			</defs>
			<use xlink:href="#SVGID_7_"  style="overflow:visible;"/>
			<clipPath id="SVGID_8_">
				<use xlink:href="#SVGID_7_"  style="overflow:visible;"/>
			</clipPath>
			<rect x="56.2" y="-2.1" class="st3" width="9.3" height="9.3"/>
		</g>
	</g>
	<g>
		<defs>
			<rect id="SVGID_9_" x="30.3" y="7.2" width="5.3" height="17.6"/>
		</defs>
		<use xlink:href="#SVGID_9_"  style="overflow:visible;fill-rule:evenodd;clip-rule:evenodd;"/>
		<clipPath id="SVGID_10_">
			<use xlink:href="#SVGID_9_"  style="overflow:visible;"/>
		</clipPath>
		<g class="st4">
			<defs>
				<rect id="SVGID_11_" y="0" width="94.2" height="25.1"/>
			</defs>
			<use xlink:href="#SVGID_11_"  style="overflow:visible;"/>
			<clipPath id="SVGID_12_">
				<use xlink:href="#SVGID_11_"  style="overflow:visible;"/>
			</clipPath>
			<rect x="28.3" y="5.1" class="st5" width="9.4" height="21.7"/>
		</g>
	</g>
	<g>
		<defs>
			<path id="SVGID_13_" d="M35.5,2.6c0,1.4-1.2,2.6-2.6,2.6c-1.4,0-2.6-1.2-2.6-2.6c0-1.4,1.2-2.6,2.6-2.6C34.4,0,35.5,1.2,35.5,2.6
				"/>
		</defs>
		<use xlink:href="#SVGID_13_"  style="overflow:visible;fill-rule:evenodd;clip-rule:evenodd;"/>
		<clipPath id="SVGID_14_">
			<use xlink:href="#SVGID_13_"  style="overflow:visible;"/>
		</clipPath>
		<g class="st6">
			<defs>
				<rect id="SVGID_15_" y="0" width="94.2" height="25.1"/>
			</defs>
			<use xlink:href="#SVGID_15_"  style="overflow:visible;"/>
			<clipPath id="SVGID_16_">
				<use xlink:href="#SVGID_15_"  style="overflow:visible;"/>
			</clipPath>
			<rect x="28.3" y="-2.1" class="st7" width="9.3" height="9.3"/>
		</g>
	</g>
	<g>
		<defs>
			<polygon id="SVGID_17_" points="50.6,14.5 55.9,7.2 49.9,7.2 47.6,10.4 			"/>
		</defs>
		<use xlink:href="#SVGID_17_"  style="overflow:visible;fill-rule:evenodd;clip-rule:evenodd;"/>
		<clipPath id="SVGID_18_">
			<use xlink:href="#SVGID_17_"  style="overflow:visible;"/>
		</clipPath>
		<g class="st8">
			<defs>
				<rect id="SVGID_19_" y="0" width="94.2" height="25.1"/>
			</defs>
			<use xlink:href="#SVGID_19_"  style="overflow:visible;"/>
			<clipPath id="SVGID_20_">
				<use xlink:href="#SVGID_19_"  style="overflow:visible;"/>
			</clipPath>
			<rect x="45.5" y="5.1" class="st9" width="12.4" height="11.4"/>
		</g>
	</g>
	<g>
		<defs>
			<polygon id="SVGID_21_" points="50.5,15.9 47.6,19.9 51,24.7 56.7,24.7 			"/>
		</defs>
		<use xlink:href="#SVGID_21_"  style="overflow:visible;fill-rule:evenodd;clip-rule:evenodd;"/>
		<clipPath id="SVGID_22_">
			<use xlink:href="#SVGID_21_"  style="overflow:visible;"/>
		</clipPath>
		<g class="st10">
			<defs>
				<rect id="SVGID_23_" y="0" width="94.2" height="25.1"/>
			</defs>
			<use xlink:href="#SVGID_23_"  style="overflow:visible;"/>
			<clipPath id="SVGID_24_">
				<use xlink:href="#SVGID_23_"  style="overflow:visible;"/>
			</clipPath>
			<rect x="45.5" y="13.8" class="st11" width="13.3" height="12.9"/>
		</g>
	</g>
	<g>
		<defs>
			<polygon id="SVGID_25_" points="42.7,24.7 49.6,15.2 43.8,7.2 37.8,7.2 43.7,15.3 37,24.7 			"/>
		</defs>
		<use xlink:href="#SVGID_25_"  style="overflow:visible;fill-rule:evenodd;clip-rule:evenodd;"/>
		<clipPath id="SVGID_26_">
			<use xlink:href="#SVGID_25_"  style="overflow:visible;"/>
		</clipPath>
		<g class="st12">
			<defs>
				<rect id="SVGID_27_" y="0" width="94.2" height="25.1"/>
			</defs>
			<use xlink:href="#SVGID_27_"  style="overflow:visible;"/>
			<clipPath id="SVGID_28_">
				<use xlink:href="#SVGID_27_"  style="overflow:visible;"/>
			</clipPath>
			<rect x="34.9" y="5.1" class="st13" width="16.7" height="21.7"/>
		</g>
	</g>
	<g>
		<defs>
			<path id="SVGID_29_" d="M0,24.7V7.2h4.9v1.9C6,7.5,7.6,6.6,9.8,6.6c2.2,0,3.9,1,5.1,3.1c1.3-2.1,3.1-3.1,5.6-3.1
				c1.8,0,3.3,0.6,4.5,1.8c0.4,0.4,0.7,0.8,1,1.1c0.3,0.4,0.5,0.8,0.6,1.3c0.1,0.5,0.2,1.1,0.3,1.8c0,0.7,0.1,1.5,0.1,2.6v9.6h-5.2
				v-9.3c0-1.4-0.2-2.4-0.6-3c-0.4-0.6-1.1-0.9-2-0.9c-1.9,0-2.9,1.2-2.9,3.7v9.6h-5.2v-9.6c0-2.4-0.9-3.7-2.7-3.7c-2,0-3,1.2-3,3.7
				v9.6H0z"/>
		</defs>
		<use xlink:href="#SVGID_29_"  style="overflow:visible;fill-rule:evenodd;clip-rule:evenodd;"/>
		<clipPath id="SVGID_30_">
			<use xlink:href="#SVGID_29_"  style="overflow:visible;"/>
		</clipPath>
		<g class="st14">
			<defs>
				<rect id="SVGID_31_" y="6.6" width="27.2" height="18.5"/>
			</defs>
			<use xlink:href="#SVGID_31_"  style="overflow:visible;"/>
			<clipPath id="SVGID_32_">
				<use xlink:href="#SVGID_31_"  style="overflow:visible;"/>
			</clipPath>
			<rect x="-2.1" y="4.6" class="st15" width="31" height="22.2"/>
		</g>
	</g>
	<g>
		<defs>
			<path id="SVGID_33_" d="M88.6,24.7v-9.6c0-2.4-1-3.7-3-3.7c-1.8,0-2.7,1.2-2.7,3.7v9.6h-5.2v-9.6c0-2.4-1-3.7-2.9-3.7
				c-0.9,0-1.6,0.3-2,0.9c-0.4,0.6-0.6,1.6-0.6,3v9.3H67v-9.6c0-1,0-1.9,0.1-2.6c0-0.7,0.1-1.3,0.3-1.8c0.1-0.5,0.3-0.9,0.6-1.3
				c0.3-0.4,0.6-0.7,1-1.1c1.2-1.2,2.7-1.8,4.5-1.8c2.4,0,4.3,1,5.6,3.1c1.1-2.1,2.8-3.1,5.1-3.1c2.2,0,3.8,0.8,4.8,2.4V7.2h4.9
				v17.5H88.6z"/>
		</defs>
		<use xlink:href="#SVGID_33_"  style="overflow:visible;fill-rule:evenodd;clip-rule:evenodd;"/>
		<clipPath id="SVGID_34_">
			<use xlink:href="#SVGID_33_"  style="overflow:visible;"/>
		</clipPath>
		<g class="st16">
			<defs>
				<rect id="SVGID_35_" x="66.7" y="6.6" width="27.6" height="18.5"/>
			</defs>
			<use xlink:href="#SVGID_35_"  style="overflow:visible;"/>
			<clipPath id="SVGID_36_">
				<use xlink:href="#SVGID_35_"  style="overflow:visible;"/>
			</clipPath>
			<rect x="64.9" y="4.6" class="st17" width="31" height="22.2"/>
		</g>
	</g>
</g>
</svg>
