<?xml version="1.0" encoding="utf-8"?>
<!-- Generator: Adobe Illustrator 21.1.0, SVG Export Plug-In . SVG Version: 6.00 Build 0)  -->
<svg version="1.1" id="Layer_1" xmlns="http://www.w3.org/2000/svg" xmlns:xlink="http://www.w3.org/1999/xlink" x="0px" y="0px"
	 viewBox="0 0 93.8 31.3" style="enable-background:new 0 0 93.8 31.3;" xml:space="preserve">
<g>
	<path d="M3.5,7H7v3.5H3.5v10.4H7v3.5H3.5v-3.5H0V0h3.5V7z"/>
	<path d="M10.4,0h3.5v3.5h-3.5V0z M10.4,7h3.5v17.4h-3.5V7z"/>
	<path d="M27.7,10.4h3.5v13.9h-3.5V10.4h-7v13.9h-3.5V7h10.4V10.4z"/>
	<path d="M45.1,10.4h3.5v17.4h-3.5v3.5h-7v-3.5h7v-3.5h-7v-3.5h-3.5V10.4h3.5V7h7V10.4z M45,10.4h-6.7v10.4H45V10.4z"/>
	<path d="M62.5,10.4H66v10.4h-3.5v3.5H52.1V0h3.5v7h7V10.4z M62.4,10.4h-6.8v10.4h6.8V10.4z"/>
	<path d="M79.9,10.4h3.5v10.4h-3.5v3.5h-7v-3.5h-3.5V10.4H73V7h7V10.4z M79.8,10.4h-6.7v10.4h6.7V10.4z"/>
	<path d="M90.4,7h3.5v3.5h-3.5v10.4h3.5v3.5h-3.5v-3.5h-3.5V0h3.5V7z"/>
</g>
</svg>
