<?xml version="1.0" encoding="UTF-8"?>
<svg width="169px" height="37px" viewBox="0 0 169 37" version="1.1" xmlns="http://www.w3.org/2000/svg" xmlns:xlink="http://www.w3.org/1999/xlink">
    <!-- Generator: Sketch 45.1 (43504) - http://www.bohemiancoding.com/sketch -->
    <title>Page 1</title>
    <desc>Created with Sketch.</desc>
    <defs>
        <polygon id="path-1" points="5.4137168e-05 0.25958772 168.301628 0.25958772 168.301628 36.0012167 5.4137168e-05 36.0012167"></polygon>
    </defs>
    <g id="Welcome" stroke="none" stroke-width="1" fill="none" fill-rule="evenodd">
        <g id="Desktop-HD-Copy-5" transform="translate(-848.000000, -2324.000000)">
            <g id="Page-1" transform="translate(848.000000, 2324.000000)">
                <g id="Group-3" transform="translate(0.000000, 0.011098)">
                    <mask id="mask-2" fill="white">
                        <use xlink:href="#path-1"></use>
                    </mask>
                    <g id="Clip-2"></g>
                    <path d="M131.452948,14.2083809 L131.385547,14.2024259 L131.385547,13.9228074 C131.385547,13.1435028 131.386088,12.364469 131.385276,11.5848938 C131.385006,11.1680376 131.309484,11.0852077 130.902644,11.0843957 C129.702964,11.0816888 128.503555,11.0816888 127.303875,11.0843957 C126.905426,11.0852077 126.841273,11.1512551 126.841273,11.5410427 C126.840732,16.6283123 126.840732,21.715582 126.841273,26.8031224 C126.841544,27.1869549 126.918148,27.2643711 127.303605,27.2649124 C128.494352,27.2668072 129.685369,27.2665365 130.876116,27.2651831 C131.297574,27.2649124 131.385276,27.1769395 131.385276,26.7606247 C131.385818,24.9654362 131.365246,23.169977 131.395562,21.3756006 C131.407743,20.6452902 131.473249,19.9057765 131.61563,19.1903538 C131.851397,18.0031257 132.417943,16.99049 133.459542,16.3032187 C134.274848,15.7648245 135.193826,15.5818409 136.151783,15.5417794 C136.451162,15.5293278 136.552128,15.4519117 136.553481,15.1782483 C136.558895,13.9260556 136.558895,12.6738629 136.55321,11.4216702 C136.552128,11.1615411 136.409206,11.0508306 136.143663,11.0665304 C135.986665,11.0757337 135.829397,11.088456 135.672128,11.0963058 C133.993064,11.1804891 132.722735,11.9386802 131.883609,13.4014665 C131.732025,13.6659265 131.59587,13.9390485 131.452948,14.2083809 M144.759052,18.5675057 C144.759052,17.4815141 144.757428,16.3955225 144.759864,15.3095309 C144.760676,14.9646772 144.766902,14.9619703 145.116628,14.9616996 C146.114917,14.9608876 147.113206,14.9619703 148.111767,14.9608876 C148.493975,14.9603462 148.579512,14.8783284 148.580053,14.5031578 C148.581948,13.5221923 148.581677,12.5414975 148.580324,11.5605321 C148.579782,11.1566688 148.475568,11.0538082 148.064396,11.0529961 C147.083702,11.0516427 146.102736,11.0527254 145.122041,11.052184 C144.763653,11.052184 144.760134,11.051372 144.759322,10.6881116 C144.757428,9.59345806 144.759593,8.49853383 144.757157,7.4038803 C144.756345,7.00001702 144.688673,6.93261625 144.278314,6.93180419 C143.087025,6.92936802 141.896278,6.92936802 140.705261,6.93153351 C140.284073,6.93234556 140.199619,7.01977709 140.199619,7.442047 C140.198807,8.53697122 140.189333,9.63162476 140.206116,10.7262783 C140.210176,11.0023779 140.119767,11.07032 139.862345,11.0575978 C139.477971,11.0383791 139.091973,11.0481238 138.706787,11.0543495 C138.403077,11.0594926 138.259073,11.1905045 138.257449,11.4809504 C138.251764,12.5054963 138.251764,13.5303129 138.257449,14.5548588 C138.259073,14.8455754 138.386295,14.95791 138.684861,14.9603462 C139.070318,14.9635944 139.455504,14.9606169 139.840961,14.9616996 C140.198266,14.9625117 140.199078,14.9630531 140.199349,15.3238773 C140.199619,17.7670877 140.189604,20.2105688 140.206387,22.6537791 C140.210447,23.2105799 140.261336,23.7746892 140.364738,24.3214746 C140.675485,25.9612894 141.628299,27.0083023 143.286521,27.3796832 C143.986514,27.5364103 144.692734,27.545343 145.401389,27.522876 C146.386144,27.4912058 147.317304,27.2456937 148.197845,26.7993328 C148.427657,26.6829379 148.532954,26.5348727 148.528623,26.266623 C148.514006,25.3909544 148.52348,24.515015 148.522938,23.6393463 C148.522668,23.1778269 148.374602,23.0687405 147.942046,23.2246556 C147.324341,23.4468887 146.689854,23.5410873 146.034253,23.5083343 C145.396788,23.4769348 144.975059,23.1475101 144.843235,22.5265568 C144.783955,22.2466676 144.765007,21.9545976 144.7623,21.6676706 C144.753097,20.6341921 144.75851,19.6007136 144.759052,18.5675057 M53.79697,8.88967487 C50.5915083,8.88967487 47.3863173,8.89319379 44.1808555,8.88642664 C43.6143101,8.8853439 43.1333013,9.05750009 42.7421603,9.46731846 C42.2451811,9.98893007 42.2164884,10.73088 42.6850456,11.2795602 C43.0447871,11.7007473 43.5065771,11.9189201 44.0677089,11.9183787 C46.0818822,11.9170253 48.0965969,11.9178374 50.1107702,11.9183787 C50.5289799,11.9183787 50.5295212,11.9194615 50.5295212,12.330904 C50.5295212,16.6572757 50.5281678,20.9836475 50.530604,25.3100193 C50.5311454,26.482089 51.3648577,27.3090342 52.5366567,27.3103876 C53.4651092,27.3111997 54.3938323,27.2898155 55.3214727,27.3158014 C56.5057232,27.348825 57.3556767,26.3987177 57.3472855,25.2889058 C57.3158859,20.9714666 57.3345633,16.6537568 57.3348339,12.336047 C57.3348339,11.9194615 57.3359167,11.9183787 57.758728,11.9183787 C59.6768078,11.9178374 61.594617,11.9148598 63.5126969,11.9200029 C64.0251052,11.9213563 64.4536008,11.7340417 64.80847,11.3802553 C65.4031668,10.7874533 65.3679776,9.91611558 64.7383623,9.36039755 C64.351823,9.0190627 63.901131,8.88480253 63.3865573,8.88615596 C60.1900282,8.89319379 56.9934991,8.88967487 53.79697,8.88967487 M116.256374,10.7609261 C115.954018,10.7912429 115.391262,10.8101909 114.842853,10.9084499 C110.315091,11.7196953 107.266627,15.6576329 107.757109,20.1916207 C107.960124,22.068827 108.676359,23.7151383 110.016253,25.0433937 C112.326286,27.3339373 115.153329,28.0314947 118.282728,27.4408582 C122.685975,26.609582 125.595306,22.7149541 125.196315,18.3758601 C125.016039,16.4179895 124.276796,14.7188944 122.89332,13.3245917 C121.140629,11.5586373 118.971624,10.7936791 116.256374,10.7609261 M87.2534691,20.1096029 C87.2854101,18.7629409 86.3361148,17.1231261 84.408561,16.0920837 C83.5954207,15.6573622 82.7289553,15.301681 81.853828,15.0071749 C80.7445574,14.6338991 79.5922478,14.3900111 78.4781049,14.0305403 C77.8511965,13.828338 77.2280777,13.5633366 76.6669459,13.2220017 C76.0059311,12.8208453 75.8256543,12.1441307 75.990502,11.4048877 C76.1653651,10.6220642 76.7489637,10.2360662 77.468176,10.0295329 C78.376327,9.76913317 79.2882676,9.84438383 80.1942531,10.0530826 C81.5011244,10.354356 82.6666976,10.9682714 83.7813819,11.6923561 C84.1064756,11.903491 84.2623906,11.8718208 84.4811048,11.555389 C85.0928548,10.6688929 85.7043341,9.78212609 86.31446,8.8948179 C86.5467084,8.55727266 86.5231587,8.41678671 86.192922,8.1742522 C84.4242607,6.87577222 82.447442,6.12245353 80.2651728,5.88722754 C78.8419067,5.73401935 77.4327162,5.76135862 76.051677,6.16468052 C74.1422591,6.72202267 72.6613369,7.81153317 71.8465725,9.67953615 C71.3471571,10.8245373 71.2567481,12.0299013 71.402377,13.2571909 C71.5964588,14.8929454 72.3763047,16.1746429 73.8144586,16.99049 C74.5182417,17.3897516 75.2664174,17.7356881 76.0313756,17.9960879 C77.1725871,18.3842514 78.3533187,18.6535838 79.5040042,19.0154908 C80.2191562,19.2404307 80.9213153,19.5165303 81.6069625,19.8205105 C82.0812041,20.0308334 82.4479834,20.3894921 82.5852211,20.9240966 C82.8396658,21.9156189 82.3757103,22.7704447 81.3568488,23.1826993 C80.7288576,23.4366026 80.0678428,23.5134774 79.3997902,23.4956121 C77.8262934,23.4536558 76.3648605,23.0072949 75.0241536,22.1871168 C74.5247382,21.8815124 74.0540155,21.5288088 73.5730068,21.1936997 C73.3434652,21.0339951 73.1702263,21.0210022 73.0148526,21.2039858 C72.2507065,22.105911 71.4914327,23.0124379 70.7359485,23.9216716 C70.5911316,24.0959933 70.6100796,24.2776235 70.7852133,24.4313731 C70.8704794,24.506353 70.9576402,24.5799796 71.0477786,24.6498165 C74.1206042,27.0229193 77.5829468,27.9513717 81.4261444,27.4108121 C82.6907886,27.2332422 83.8696254,26.7917536 84.8930886,26.0054112 C86.5475205,24.7337291 87.2217989,22.999445 87.2534691,20.1096029 M93.6213535,13.4350315 C93.6129623,13.2918387 93.6029469,13.2003469 93.6026762,13.1085844 C93.6010521,12.6007777 93.6034883,12.0927004 93.6010521,11.5848938 C93.5991573,11.2394986 93.5133499,11.1558567 93.1619996,11.155586 C91.9536581,11.1545033 90.7450458,11.154774 89.5364335,11.1553154 C89.1412322,11.155586 89.0548834,11.2397693 89.0548834,11.6287449 C89.054342,18.3282194 89.054342,25.027694 89.0548834,31.7271685 C89.0548834,32.1077528 89.1507062,32.200598 89.5404938,32.2008687 C90.7225789,32.2019515 91.9049346,32.2016808 93.0872904,32.2011394 C93.533922,32.2011394 93.6015935,32.1331973 93.6015935,31.682776 C93.6021348,29.6772646 93.6015935,27.6717532 93.6032176,25.6665125 C93.6032176,25.5509297 93.6200001,25.4356175 93.6292034,25.3200347 C93.6638512,25.2994625 93.6982283,25.2788904 93.7328761,25.2583183 C93.7891787,25.3465619 93.834654,25.4448208 93.9036788,25.5216956 C95.4880031,27.2892742 97.4924317,27.908874 99.788389,27.5558997 C102.189372,27.1864135 103.990245,25.8879336 105.07353,23.7121608 C106.261299,21.3260651 106.353874,18.8103109 105.650903,16.2718191 C104.703232,12.8498087 101.590345,10.5400464 97.991035,10.8857123 C96.7266615,11.0069795 95.6192857,11.4725592 94.6859609,12.3290092 C94.3273022,12.6581631 94.0081636,13.0303562 93.6213535,13.4350315 M40.0057972,17.1198778 C40.0907925,17.0551839 40.1790361,16.9869711 40.2680917,16.9206531 C42.1972697,15.4854767 42.6000502,12.693623 41.128602,10.792867 C40.1151542,9.48437166 38.6880985,8.92811226 37.1016088,8.91078837 C32.4154955,8.85908737 27.7288409,8.87749401 23.0421863,8.87884744 C22.8042534,8.87884744 22.5471019,8.93027775 22.3319066,9.02989014 C21.5653243,9.38448859 21.189071,10.0067953 21.1896124,10.8507938 C21.1923192,15.677393 21.1961088,20.5039922 21.2007105,25.3305914 C21.2017932,26.4847958 22.0355056,27.310117 23.1959358,27.3103876 C25.7276605,27.310929 28.2593851,27.3158014 30.7908391,27.3084928 C32.4544743,27.3038912 34.1186508,27.3003723 35.7817446,27.2594987 C36.9714089,27.229994 38.1250719,26.9709476 39.2240564,26.5086162 C40.5915613,25.9336795 41.7311487,25.079395 42.4695797,23.7598015 C43.6094377,21.7231612 43.1703853,19.3324639 41.3795278,17.9530488 C40.968356,17.6363464 40.4878886,17.4086996 40.0057972,17.1198778 M5.4137168e-05,19.5495539 L5.4137168e-05,16.7636553 C0.0133177433,16.6959838 0.0295588937,16.628583 0.0401156415,16.5606409 C0.156510553,15.7927052 0.226347499,15.0144834 0.395796835,14.2584578 C1.28039816,10.3072566 3.27860103,7.01896503 6.37497635,4.41090697 C8.88910643,2.29279027 11.781926,0.984024234 15.028532,0.461871249 C15.5184733,0.383101669 16.0122043,0.326257643 16.5043112,0.25939824 L151.797425,0.25939824 C152.091931,0.292421913 152.387249,0.32057324 152.681214,0.359281315 C154.826941,0.64133596 156.873867,1.24956704 158.776518,2.28683518 C163.570364,4.90057765 166.626678,8.86206492 167.892405,14.1791469 C168.090006,15.0085283 168.168234,15.8663317 168.301682,16.7111422 L168.301682,19.5495539 C168.231304,20.0860533 168.181768,20.6260715 168.087569,21.1585106 C167.410855,24.9735568 165.70012,28.2529157 162.92532,30.9576087 C160.383038,33.4354668 157.357853,35.0203324 153.869525,35.6989418 C153.185231,35.8321193 152.488486,35.9022269 151.797425,36.0012979 L16.5043112,36.0012979 C16.1329302,35.9536572 15.7615492,35.9062872 15.3904389,35.8581051 C13.6956749,35.6383082 12.0718305,35.1662321 10.5178231,34.4608248 C7.80365621,33.2289335 5.52556419,31.4386174 3.7054726,29.0758007 C1.92787869,26.7679332 0.767177807,24.180718 0.252062654,21.3109067 C0.147307234,20.7275787 0.0828840042,20.1366715 5.4137168e-05,19.5495539" id="Fill-1" fill="#FFFFFF" mask="url(#mask-2)"></path>
                </g>
                <path d="M32.2444491,19.1242253 C33.4698439,19.1242253 34.6957801,19.1185409 35.9211749,19.1269321 C36.4433279,19.1307217 36.9435553,19.2544252 37.4110298,19.492358 C38.8995312,20.2505491 39.1231177,21.9491027 37.8817524,23.0724489 C37.1958345,23.6934022 36.3650997,24.0030669 35.4694002,24.1403046 C34.9878501,24.2142018 34.4954726,24.2483082 34.0079674,24.2515565 C32.1784018,24.264008 30.3488362,24.2507444 28.5192706,24.2629253 C28.2507503,24.2645494 28.1722514,24.1825316 28.1738755,23.9232145 C28.1822667,22.4352545 28.1817254,20.9470237 28.1741462,19.4590637 C28.1727927,19.2057017 28.2407349,19.1120444 28.5157517,19.1152926 C29.7581997,19.1309924 31.0014598,19.1220598 32.2444491,19.1220598 L32.2444491,19.1242253 Z" id="Fill-4" fill="#FFFFFF"></path>
                <path d="M32.0409205,11.7190728 C33.1085054,11.7190728 34.1777145,11.6903801 35.243946,11.7307122 C35.8050777,11.7520964 36.3770369,11.8411521 36.9162431,11.9959844 C37.5423395,12.1759904 38.0279499,12.588245 38.2721085,13.2202964 C38.5907057,14.0467003 38.2485588,14.9637839 37.4191774,15.5476533 C36.7281165,16.033805 35.9390672,16.1959459 35.1156409,16.2419624 C34.9323866,16.2525192 34.7485909,16.2584743 34.5647952,16.2584743 C32.5517046,16.259557 30.5383434,16.2549554 28.5252528,16.263888 C28.2629582,16.2649707 28.1720077,16.1845771 28.1739025,15.920929 C28.1831059,14.6343592 28.1825645,13.3475188 28.1741732,12.060949 C28.1725491,11.8027147 28.2551083,11.7109522 28.5222752,11.713659 C29.6948863,11.7263813 30.8680387,11.7190728 32.0409205,11.7190728" id="Fill-6" fill="#FFFFFF"></path>
                <path d="M101.515987,19.30212 C101.481881,20.6054723 101.113477,21.7880988 100.152272,22.7176339 C98.4537183,24.360697 95.8302312,24.0994851 94.4391766,22.1662469 C93.2646708,20.5331992 93.2587157,17.994166 94.4261837,16.3535392 C95.9617845,14.195361 99.0205345,14.1747888 100.584016,16.3134776 C101.23285,17.2015979 101.490813,18.2126095 101.515987,19.30212" id="Fill-8" fill="#FFFFFF"></path>
                <path d="M112.203043,19.4572771 C112.204397,17.2436083 113.201333,15.6603669 114.79486,15.0177587 C117.258372,14.0246123 119.968479,15.4432768 120.58077,18.0805689 C120.97164,19.7642349 120.675781,21.3214905 119.408971,22.5631265 C117.458409,24.4749805 114.204765,23.9633843 112.839155,21.5680853 C112.409035,20.8139546 112.208728,19.9997316 112.203043,19.4572771" id="Fill-10" fill="#FFFFFF"></path>
            </g>
        </g>
    </g>
</svg>