<?xml version="1.0" encoding="UTF-8"?>
<svg width="94px" height="50px" viewBox="0 0 94 50" version="1.1" xmlns="http://www.w3.org/2000/svg" xmlns:xlink="http://www.w3.org/1999/xlink">
    <!-- Generator: Sketch 49.3 (51167) - http://www.bohemiancoding.com/sketch -->
    <title>Fill 1</title>
    <desc>Created with Sketch.</desc>
    <defs></defs>
    <g id="Page-1" stroke="none" stroke-width="1" fill="none" fill-rule="evenodd">
        <g id="Desktop-HD-Copy-6" transform="translate(-850.000000, -2309.000000)" fill="#FFFFFF">
            <path d="M884.3452,2309 C882.992358,2310.01942 881.894736,2311.1335 880.89091,2312.50766 C881.894736,2313.88181 882.992358,2314.99619 884.3452,2316.01501 C885.698041,2314.99619 886.795369,2313.88241 887.798901,2312.50766 C886.795369,2311.1335 885.698041,2310.01942 884.3452,2309 Z M938.1078,2332.96236 C938.1078,2331.91249 937.895802,2330.86291 937.471514,2329.81363 C937.086626,2328.8805 936.488565,2328.00709 935.679094,2327.18983 C934.097789,2325.67324 932.227451,2324.91599 930.068667,2324.91599 C929.567636,2324.9551 929.066311,2325.02318 928.565281,2325.12023 C928.535877,2325.1262 928.50765,2325.13426 928.478835,2325.13994 C928.008972,2325.23967 927.555574,2325.39613 927.120407,2325.61561 C926.116581,2326.0426 925.288292,2326.62637 924.632307,2327.3651 C923.900755,2328.18148 923.360324,2329.03637 923.013954,2329.93038 C922.897811,2330.16299 922.810484,2330.40575 922.753735,2330.65807 C922.695223,2330.91158 922.62789,2331.15524 922.551147,2331.38814 C922.512041,2331.54431 922.492635,2331.67988 922.492635,2331.79663 C922.492635,2331.91249 922.472641,2332.04895 922.435005,2332.20392 L922.435005,2332.55328 L922.435005,2332.72886 L922.435005,2332.96236 C922.435005,2334.08898 922.62789,2335.10004 923.013954,2335.99345 C923.398842,2337.00571 923.938391,2337.85911 924.632307,2338.55933 C925.288292,2339.29806 926.116581,2339.88093 927.120407,2340.30882 C927.474421,2340.48709 927.841079,2340.62534 928.217735,2340.72448 C928.332407,2340.75493 928.44855,2340.78181 928.565281,2340.8042 C929.066311,2340.90214 929.567636,2340.96933 930.068667,2341.00815 C932.227451,2341.00815 934.097789,2340.2503 935.679094,2338.73371 C936.488565,2337.91853 937.086626,2337.04393 937.471514,2336.1108 C937.895802,2335.05973 938.1078,2334.01165 938.1078,2332.96236 Z M943.325988,2320.23035 L943.325988,2343.24138 C943.325988,2343.30169 943.324518,2345.26171 943.322459,2345.32172 C943.319225,2345.40563 943.314815,2345.48894 943.312756,2345.57344 C943.246305,2347.86639 942.659417,2350.01841 941.517396,2352.0241 C940.305396,2354.13341 938.634117,2355.82439 936.529141,2357.10001 C934.422695,2358.37413 932.135125,2359 929.640556,2359 C928.025144,2359 926.511172,2358.73305 925.086292,2358.22035 C924.004254,2357.83098 922.972789,2357.30455 921.995427,2356.62404 L925.086292,2351.53858 C926.413553,2352.5574 927.924585,2353.06771 929.640556,2353.06771 C931.99693,2353.06771 934.492086,2351.88585 936.070745,2349.77654 C936.834346,2348.78101 937.223939,2347.70246 937.257459,2346.53792 C937.258635,2346.49015 937.259223,2344.54208 937.259223,2344.494 C936.581479,2344.95922 935.919318,2345.34322 935.273918,2345.63705 C933.788467,2346.29426 932.273908,2346.66393 930.730239,2346.74635 C930.510597,2346.75739 930.290367,2346.76337 930.068667,2346.76337 C928.333877,2346.8413 926.598794,2346.50836 924.86371,2345.76485 C923.244475,2345.06045 921.779313,2344.04222 920.468224,2342.71106 C919.233877,2341.41872 918.27151,2339.93199 917.576712,2338.24789 C916.921314,2336.48614 916.594644,2334.72381 916.594644,2332.96236 L916.594644,2332.90354 L916.594644,2332.66824 L916.594644,2332.3153 C916.594644,2332.00266 916.613168,2331.76826 916.652275,2331.6109 C916.652275,2331.3756 916.670799,2331.15106 916.709905,2330.93577 C916.747541,2330.72137 916.786647,2330.49443 916.826048,2330.26063 C917.017168,2329.35945 917.268566,2328.49859 917.576712,2327.67684 C918.27151,2325.99304 919.233877,2324.50481 920.468224,2323.21277 C921.779313,2321.88191 923.244475,2320.86309 924.86371,2320.15869 C926.598794,2319.41488 928.333877,2319.08253 930.068667,2319.16017 C931.348589,2319.16017 932.608222,2319.35695 933.84845,2319.74513 C934.326546,2319.89502 934.801996,2320.06941 935.273918,2320.27604 C935.582358,2320.39369 935.889915,2320.55015 936.199531,2320.74574 L937.413884,2319.51282 L943.312756,2319.51282 L943.312756,2320.23035 L943.325988,2320.23035 Z M881.421344,2346.41161 L887.262292,2346.41161 L887.262292,2319.51282 L881.421344,2319.51282 L881.421344,2346.41161 Z M871.954391,2332.96236 C871.954391,2331.78707 871.761212,2330.72973 871.37603,2329.79033 C870.913224,2328.77241 870.315456,2327.89154 869.583316,2327.14742 C868.81207,2326.40391 867.934972,2325.83597 866.951729,2325.44451 C865.968779,2325.05334 864.976127,2324.85746 863.973477,2324.85746 C863.433634,2324.89598 862.9229,2324.96555 862.440982,2325.0632 C861.958181,2325.16084 861.485965,2325.30775 861.024041,2325.50303 C860.099016,2325.93451 859.269551,2326.54127 858.537705,2327.3239 C858.151641,2327.67684 857.823501,2328.07876 857.554167,2328.52785 C857.284246,2328.97844 857.052843,2329.43829 856.86084,2329.90798 C856.782333,2330.14328 856.705297,2330.38783 856.628554,2330.64194 C856.55093,2330.89665 856.4933,2331.1412 856.455369,2331.3756 C856.261896,2332.55059 856.330112,2333.82323 856.658252,2335.1935 C856.984921,2336.56468 857.612386,2337.69966 858.537705,2338.59964 C859.269551,2339.38346 860.099016,2339.98962 861.024041,2340.4205 C861.987584,2340.85198 862.970239,2341.06727 863.973477,2341.06727 C864.976127,2341.10579 865.968779,2340.91976 866.951729,2340.50859 C867.934972,2340.09771 868.81207,2339.52022 869.583316,2338.77611 C870.315456,2338.0326 870.913224,2337.15172 871.37603,2336.1332 C871.761212,2335.1935 871.954391,2334.13646 871.954391,2332.96236 Z M877.159642,2309 L877.159642,2346.41161 L871.3184,2346.41161 L871.3184,2346.35309 L870.161677,2345.1778 C869.96791,2345.25663 869.794725,2345.33516 869.640652,2345.4131 C869.48658,2345.49163 869.313689,2345.56956 869.121098,2345.6469 C867.578605,2346.35309 865.862339,2346.74336 863.973477,2346.82219 C862.123427,2346.82219 860.387755,2346.47044 858.768226,2345.76485 C857.071661,2345.06045 855.606793,2344.04222 854.373622,2342.71106 C853.717636,2342.0855 853.148978,2341.38976 852.667647,2340.62624 C852.184259,2339.86272 851.771143,2339.06993 851.424185,2338.24789 C850.806718,2336.6032 850.488869,2334.87132 850.469757,2333.05015 C850.449469,2331.22959 850.767612,2329.43829 851.424185,2327.67684 C851.732331,2326.8545 852.136331,2326.07127 852.638244,2325.32656 C853.139275,2324.58305 853.717636,2323.87865 854.373622,2323.21277 C855.606793,2321.88191 857.071661,2320.86309 858.768226,2320.15869 C860.387755,2319.45399 862.123427,2319.10105 863.973477,2319.10105 C865.862339,2319.17988 867.578605,2319.57134 869.121098,2320.27604 C869.544504,2320.4328 869.931156,2320.61913 870.27782,2320.83382 C870.624484,2321.04971 870.971736,2321.27486 871.3184,2321.50926 L871.3184,2309 L877.159642,2309 Z M913.680198,2330.13193 C913.680198,2330.25764 913.675199,2330.38246 913.670495,2330.50847 L913.670495,2346.40564 L907.832487,2346.40564 L907.832487,2343.73496 L907.832487,2340.44678 L907.832487,2340.05442 L907.832487,2335.95523 L907.832487,2330.17344 C907.832487,2327.2391 905.489345,2324.86015 902.600185,2324.86015 C901.056222,2324.86015 899.673389,2325.54305 898.716314,2326.62338 C897.883909,2327.56069 897.372293,2328.79629 897.368765,2330.15612 L897.368765,2330.19076 L897.368765,2330.2027 L897.368765,2340.0583 L897.368765,2346.40564 L891.528993,2346.40564 L891.528993,2330.74018 L891.528993,2329.52368 L891.528993,2319.51759 L897.368765,2319.51759 L897.934777,2319.92041 L898.524017,2320.33994 C898.832163,2320.18347 899.150894,2320.03686 899.478152,2319.89891 C899.805997,2319.76245 900.143252,2319.65555 900.489916,2319.57642 C901.53079,2319.22437 902.648406,2319.08761 903.842765,2319.16525 C905.075347,2319.24408 906.213252,2319.49818 907.253537,2319.92847 C907.317342,2319.95295 907.378501,2319.9864 907.441424,2320.01267 C907.572562,2320.07777 907.703995,2320.14107 907.832487,2320.21035 C911.210034,2322.0536 913.537004,2325.62307 913.670495,2329.75629 C913.675199,2329.88081 913.680198,2330.00563 913.680198,2330.13193 Z" id="Fill-1"></path>
        </g>
    </g>
</svg>