<?xml version="1.0" encoding="UTF-8"?>
<svg width="178px" height="25px" viewBox="0 0 178 25" version="1.1" xmlns="http://www.w3.org/2000/svg" xmlns:xlink="http://www.w3.org/1999/xlink">
    <!-- Generator: Sketch 49.3 (51167) - http://www.bohemiancoding.com/sketch -->
    <title>Page 1</title>
    <desc>Created with Sketch.</desc>
    <defs></defs>
    <g id="Page-1" stroke="none" stroke-width="1" fill="none" fill-rule="evenodd">
        <g id="Desktop-HD-Copy-6" transform="translate(-490.000000, -2421.000000)" fill="#FFFFFF">
            <g id="Page-1" transform="translate(490.000000, 2421.000000)">
                <path d="M68.2087981,11.9084334 C68.0267046,11.256726 67.8505329,9.88664227 67.2813059,8.71132169 C65.1568824,4.32540582 58.811,3.92689049 56.0566516,7.93976006 C54.0055097,10.9278759 54.3867215,15.7302853 56.9330689,18.0224975 C59.0922826,19.9671324 61.6216049,20.2630226 64.2197674,19.1663563 C67.0422157,17.9753049 68.0400286,15.5205404 68.2087981,11.9084334 M61.4328495,24.1874997 C54.6754063,24.1889978 49.7529616,19.2682324 49.7500008,12.5121991 C49.7477801,5.65279146 54.6635628,0.744760575 61.5312984,0.750004198 C68.2361861,0.754498731 73.1845384,5.73369307 73.1874993,12.4769919 C73.1897199,19.2607416 68.2450687,24.1867506 61.4328495,24.1874997" id="Fill-1"></path>
                <path d="M87.5483051,5.0008753 L87.5483051,9.65847936 C89.2792205,9.65847936 90.9325329,9.70027168 92.5828891,9.64504612 C93.8940095,9.60101493 94.7121664,8.68830066 94.7432075,7.39423153 C94.7742487,6.09866982 94.0115225,5.09863947 92.708532,5.02475663 C91.0093968,4.92773876 89.2999146,5.0008753 87.5483051,5.0008753 M95.8902531,13.0638066 C98.0032707,16.413162 100.064553,19.6789328 102.25,23.1424707 C101.159863,23.1424707 100.213846,23.0133623 99.3158692,23.1685909 C97.2043298,23.5335274 95.986333,22.6596203 95.0129702,20.7864291 C93.8777498,18.6020344 92.4380303,16.5758535 91.0788699,14.5160895 C90.8800586,14.2145878 90.4092673,13.974282 90.0397294,13.9339823 C89.2289633,13.8474125 88.4026766,13.9071158 87.469963,13.9071158 L87.469963,18.5363608 L87.469963,23.0723193 L82.5625,23.0723193 L82.5625,0.810449605 C82.9002576,0.792538614 83.1877581,0.764179544 83.4752586,0.764179544 C86.5483356,0.760448088 89.6221516,0.724626105 92.6937505,0.783583118 C93.6538099,0.802240401 94.6515621,0.95000608 95.5584081,1.26046326 C97.9256677,2.07168192 99.2803936,3.80904808 99.6284983,6.31136284 C99.9714294,8.77785562 99.1532726,10.7689608 97.1422474,12.2354233 C96.7638407,12.511551 96.3603053,12.7540957 95.8902531,13.0638066" id="Fill-3"></path>
                <path d="M135.0625,16.9356102 C136.496063,16.4470908 137.880141,15.9742817 139.36019,15.4693037 C139.489901,15.7917415 139.607615,16.0842547 139.726079,16.3767679 C140.823744,19.0819538 143.739606,20.5310536 146.572992,19.7784494 C147.822111,19.445538 148.639362,18.6443062 148.740581,17.6545493 C148.850798,16.5757666 148.354449,15.7311442 147.049097,15.1872641 C145.838966,14.6822861 144.550109,14.3650851 143.309986,13.9274375 C142.042873,13.4800644 140.724025,13.1134878 139.545384,12.4888113 C135.425389,10.30581 135.188462,4.95005069 139.010047,2.2740413 C142.760404,-0.352592465 150.756717,-0.023421615 153.224965,6.77320833 C151.82964,7.25798722 150.435065,7.74351422 148.976759,8.25073658 C148.77657,7.91707704 148.601124,7.61558646 148.41818,7.31858458 C147.307018,5.50215998 145.326122,4.65080446 143.244007,5.09069642 C142.141842,5.32336036 141.416064,5.98768698 141.326841,6.84278308 C141.235369,7.72256699 141.653741,8.4437504 142.763403,8.87915366 C144.013272,9.36916935 145.328371,9.68786659 146.605982,10.1113 C147.797369,10.506305 149.009,10.8668967 150.15465,11.3696304 C155.030414,13.509989 154.727507,19.9190951 151.04163,22.4312672 C148.361197,24.2589135 145.395851,24.4803557 142.331535,23.9087954 C138.608169,23.2145442 135.782281,20.4809299 135.0625,16.9356102" id="Fill-5"></path>
                <polygon id="Fill-7" points="124.2462 9.4207575 124.2462 13.6326137 114.883525 13.6326137 114.883525 19.0585421 126.625 19.0585421 126.625 23.25 109.75 23.25 109.75 0.75 126.622689 0.75 126.622689 4.9286146 114.866578 4.9286146 114.866578 9.4207575"></polygon>
                <polygon id="Fill-9" points="14.5618034 9.43084034 14.5618034 13.6442017 5.18466221 13.6442017 5.18466221 23.25 0.0625 23.25 0.0625 0.75 16.9375 0.75 16.9375 4.90512605 5.19853714 4.90512605 5.19853714 9.43084034"></polygon>
                <polygon id="Fill-11" points="30.4668866 23.25 25.375 23.25 25.375 0.75 42.25 0.75 42.25 4.86400914 30.5307371 4.86400914 30.5307371 9.38715044 39.8429123 9.38715044 39.8429123 13.6319911 30.4668866 13.6319911"></polygon>
                <polygon id="Fill-13" points="171.275843 23.25 166.346922 23.25 166.346922 4.93207179 160.375 4.93207179 160.375 0.75 177.25 0.75 177.25 4.90484673 171.275843 4.90484673"></polygon>
            </g>
        </g>
    </g>
</svg>