<?xml version="1.0" encoding="UTF-8"?>
<svg width="119px" height="39px" viewBox="0 0 119 39" version="1.1" xmlns="http://www.w3.org/2000/svg" xmlns:xlink="http://www.w3.org/1999/xlink">
    <!-- Generator: Sketch 45.1 (43504) - http://www.bohemiancoding.com/sketch -->
    <title>Group 9 Copy</title>
    <desc>Created with Sketch.</desc>
    <defs></defs>
    <g id="Welcome" stroke="none" stroke-width="1" fill="none" fill-rule="evenodd">
        <g id="Desktop-HD-Copy-5" transform="translate(-284.000000, -2323.000000)" fill="#FFFFFF">
            <g id="Group-9-Copy" transform="translate(284.000000, 2323.000000)">
                <path d="M35.5433687,20.7622476 C35.5974047,21.0726734 35.6427162,21.7064711 35.8239621,22.2988975 C36.4439694,24.3289077 37.7599721,25.7054195 39.8538687,26.1861151 C41.8638968,26.6473916 43.625134,26.0710071 44.9951727,24.5394231 C46.5473017,22.8043596 46.8484401,20.7374811 46.2357502,18.5509915 C45.2115983,14.89596 40.9607632,13.3736634 37.923206,15.5598715 C36.2677894,16.7511974 35.5844586,18.4474224 35.5433687,20.7622476 M41.0513861,10.6946579 C46.6123138,10.7064782 50.8347238,14.9255109 50.8243106,20.4602649 C50.8138974,25.962935 46.5273196,30.2244648 41.011422,30.2151774 C35.4994644,30.20589 31.2249885,25.9212823 31.2396232,20.4203008 C31.2539766,14.8835767 35.492147,10.6828375 41.0513861,10.6946579" id="Fill-7"></path>
                <path d="M56.6446864,20.4095869 C56.6244229,21.5356192 56.8943216,22.5828489 57.4383407,23.5630964 C59.1652425,26.6738275 63.3699219,27.2744155 65.893011,24.7696199 C67.9061349,22.7711307 68.2100876,19.3218302 66.5850663,16.9166635 C64.9639851,14.517407 61.7781102,13.8059325 59.325662,15.3386423 C57.4653588,16.5012614 56.6891536,18.2717861 56.6446864,20.4095869 M62.1169612,10.6946386 C67.6660685,10.6890099 71.9118378,14.8984737 71.915778,20.4098683 C71.9197181,25.9229516 67.6432721,30.1991162 62.1276559,30.1968647 C56.6224528,30.1946132 52.3482583,25.9291433 52.347414,20.4363235 C52.3465697,14.9111384 56.5692611,10.7002674 62.1169612,10.6946386" id="Fill-9"></path>
                <path d="M22.8172355,7.05551734 C22.5470553,6.83627737 22.2599889,6.59255231 21.9619463,6.36318058 C17.8295964,3.18434164 11.9089913,3.44270146 8.0763726,6.98037347 C5.99457786,8.90203015 4.82548561,11.2903106 4.58260487,14.1094721 C4.28822102,17.5297846 5.31715729,20.5133057 7.72176108,22.9702569 C9.45232156,24.7382486 11.5850565,25.7671849 14.0487622,26.0505927 C15.9358021,26.2678626 17.7986383,26.1181377 19.5725402,25.3959686 C22.6255764,24.1528582 24.5992991,21.9925423 25.1542943,18.6665115 C25.1835638,18.49005 25.2083303,18.3121814 25.2322525,18.1345942 C25.2361926,18.1070133 25.2238094,18.0768995 25.2125519,18.0127317 C25.0920965,18.0065401 24.9671382,17.9947197 24.8424613,17.9947197 C21.832485,17.9944382 18.8225087,17.9952826 15.8125324,17.9958454 C15.3619506,17.9958454 15.3608248,17.9952826 15.3608248,17.5573655 C15.3599805,16.4507524 15.3698308,15.3444208 15.3543518,14.2383706 C15.3501302,13.9344178 15.4472262,13.8505494 15.7475203,13.8511123 C20.1230323,13.8598368 24.498263,13.8573039 28.8734936,13.8573039 C29.3409616,13.8573039 29.3415245,13.8575853 29.4020336,14.3233648 C29.6162077,15.9762484 29.5714591,17.6237848 29.2812968,19.2637223 C28.9475117,21.1501993 28.3367919,22.9395802 27.2082267,24.5021224 C25.1072942,27.4124698 22.3081147,29.2800904 18.7625624,29.9631397 C15.0996506,30.6684226 11.5614158,30.2932662 8.25818136,28.5097954 C3.79204634,26.0978742 1.01116033,22.3975312 0.196116726,17.3547303 C-0.391243774,13.7210881 0.344997274,10.3019013 2.34742658,7.20552364 C4.86995277,3.30507842 8.445056,0.913139327 13.0392452,0.204760612 C17.7634586,-0.523600181 21.9667308,0.683204718 25.5210076,3.95322947 C25.5936185,4.01964877 25.6918403,4.05848717 25.7641698,4.10182858 C24.7335449,5.13498641 23.7850998,6.08540156 22.8172355,7.05551734 Z" id="Fill-1"></path>
                <path d="M77.7989054,20.2237132 C77.8073485,22.3128254 78.4355175,23.9125173 79.8891432,25.1367713 C82.1887708,27.0730628 85.5891012,26.6815829 87.2749131,24.1956436 C88.8253534,21.9092437 88.8458983,19.4604542 87.5068177,17.0749881 C86.0602279,14.4987074 82.8977124,13.7644364 80.4213419,15.3810146 C78.6142304,16.5608014 77.848157,18.3237273 77.7989054,20.2237132 M88.0485853,27.9711305 C87.9368545,28.0625978 87.8515789,28.1197296 87.7817824,28.1917777 C86.5884865,29.428415 85.1103756,30.0729073 83.4172464,30.1514285 C79.6397894,30.3264827 76.8006458,28.6350421 74.8860251,25.4820954 C72.6688588,21.8304411 73.0715962,17.4203122 75.7950689,14.1263653 C77.4048926,12.1793792 79.4779627,10.9922749 82.0109021,10.7395439 C84.0558285,10.535783 85.9313294,11.0145085 87.5149794,12.3983377 C87.6841235,12.5460925 87.84004,12.7082006 88.0598428,12.9192789 C88.0826393,12.7476019 88.1057172,12.647973 88.1071244,12.5480626 C88.1124717,12.2193433 88.1127531,11.8903427 88.1093759,11.5616234 C88.1076872,11.3933237 88.1670706,11.2998863 88.3508494,11.3001678 C89.5466782,11.3027007 90.7422256,11.3027007 91.9380545,11.3004492 C92.118456,11.3001678 92.1902227,11.3876949 92.182061,11.558809 C92.1803723,11.5984918 92.1831867,11.6384559 92.1831867,11.6784201 C92.1814981,17.5675041 92.193037,23.4565882 92.1702406,29.3459537 C92.1629232,31.285341 91.7601858,33.151273 90.7692437,34.8452466 C89.4965823,37.0213229 87.5543807,38.2514872 85.1103756,38.7197995 C82.8327002,39.1563094 80.6228513,38.9685905 78.5444339,37.8684505 C76.6562683,36.8687837 75.2927026,35.3656249 74.3805629,33.440591 C74.2826226,33.2345786 74.3282155,33.1487401 74.5331022,33.0651531 C75.6028469,32.6280803 76.6694958,32.1828458 77.7316418,31.7274796 C77.9545404,31.6320722 78.0355945,31.700743 78.1355049,31.8991566 C78.9072071,33.4313035 80.0422453,34.5871682 81.7643627,34.9341809 C83.6452109,35.312996 85.4061667,35.0248038 86.789433,33.5337468 C87.5355244,32.7296793 87.8999862,31.7339527 88.0167829,30.6673038 C88.10628,29.8488829 88.081795,29.0175159 88.1045914,28.1917777 C88.10628,28.1377416 88.0781363,28.0828613 88.0485853,27.9711305" id="Fill-4"></path>
                <path d="M98.8002216,15.4305964 C98.8002216,20.0039592 98.8002216,24.577322 98.8002216,29.1506847 C98.8002216,29.260164 98.7976887,29.3696433 98.7976887,29.479404 C98.7974073,29.6353205 98.7304251,29.7194703 98.5643768,29.7191889 C97.3088832,29.7175003 96.0533896,29.7220033 94.7981774,29.7087757 C94.723315,29.7079314 94.6231232,29.5846617 94.5834404,29.4965717 C94.5460092,29.4132661 94.57162,29.300691 94.57162,29.2010621 C94.5713386,20.004522 94.5713386,10.8082634 94.57162,1.6117234 C94.57162,1.12624335 94.5721829,1.12596192 95.0613217,1.12596192 C96.1572401,1.12568048 97.25344,1.12568048 98.3493584,1.12596192 C98.7993773,1.12596192 98.8002216,1.12652479 98.8002216,1.59117845 C98.8002216,6.20422395 98.8002216,10.8175509 98.8002216,15.4305964" id="Fill-14"></path>
                <path d="M113.470449,16.5173788 C113.294832,16.2517016 113.170436,16.0006591 112.989753,15.7999941 C112.014853,14.7156146 110.748383,14.3595959 109.358362,14.5315543 C107.182286,14.8008902 105.44863,16.3977678 104.93979,18.5265626 C104.822149,19.0202043 104.80273,19.5372054 104.737999,20.0437933 C104.772898,20.060961 104.808077,20.0784101 104.842976,20.0955778 C107.697598,18.9115694 110.552503,17.7275609 113.470449,16.5173788 M105.49169,23.4303332 C106.305326,24.9773963 107.467664,25.9995781 109.194284,26.2576565 C111.519523,26.6052321 113.384047,25.8110148 114.770128,23.9163762 C114.943775,23.6788427 115.060009,23.6765912 115.289099,23.8344778 C116.200676,24.4606767 117.126325,25.0660492 118.046063,25.6801463 C118.12768,25.7344638 118.204512,25.7960986 118.333411,25.8906617 C118.050566,26.2435846 117.795302,26.5951003 117.506828,26.9167836 C115.864639,28.7472545 113.833785,29.8634364 111.382181,30.1445927 C106.185152,30.7409592 101.566196,27.4729045 100.655464,22.2798159 C100.167451,19.4975227 100.644207,16.8708645 102.274012,14.5290214 C103.77492,12.3720828 105.864876,11.0988586 108.475774,10.7771753 C112.297979,10.3068928 115.168362,11.8598661 117.153343,15.0857052 C117.670907,15.926641 117.999907,16.8835292 118.424034,17.7832856 C118.537172,18.023352 118.3821,18.0734479 118.217459,18.1412744 C116.762426,18.741581 115.308518,19.3438577 113.854048,19.9455715 C111.157031,21.0611906 108.460013,22.1762468 105.763277,23.2929916 C105.682786,23.3262013 105.607361,23.3715128 105.49169,23.4303332" id="Fill-11"></path>
            </g>
        </g>
    </g>
</svg>