<?xml version="1.0" encoding="UTF-8"?>
<svg width="171px" height="46px" viewBox="0 0 171 46" version="1.1" xmlns="http://www.w3.org/2000/svg" xmlns:xlink="http://www.w3.org/1999/xlink">
    <!-- Generator: Sketch 49.3 (51167) - http://www.bohemiancoding.com/sketch -->
    <title>Group 5</title>
    <desc>Created with Sketch.</desc>
    <defs>
        <polygon id="path-1" points="0.0441899233 0.109075316 13.4331833 0.109075316 13.4331833 19.3529958 0.0441899233 19.3529958"></polygon>
        <polygon id="path-3" points="0.085190722 0.0455862372 11.8770527 0.0455862372 11.8770527 13.7039491 0.085190722 13.7039491"></polygon>
        <polygon id="path-5" points="0 0.0253410627 11.0305615 0.0253410627 11.0305615 18.1188587 0 18.1188587"></polygon>
        <polygon id="path-7" points="0 45.1820307 170.744618 45.1820307 170.744618 0 0 0"></polygon>
    </defs>
    <g id="Page-1" stroke="none" stroke-width="1" fill="none" fill-rule="evenodd">
        <g id="Desktop-HD-Copy-6" transform="translate(-1035.000000, -2310.000000)">
            <g id="Group-5" transform="translate(1035.000000, 2310.000000)">
                <g id="Page-1">
                    <path d="M16.8256185,19.0053748 L13.3881782,19.0053748 L13.3881782,18.363405 C13.3882917,15.9213775 13.4057672,13.4793501 13.3754688,11.0377807 C13.3687737,10.4986452 13.2573395,9.93878251 13.0792943,9.4291918 C12.8266949,8.70614555 12.3124179,8.2218626 11.5024202,8.14754251 C10.6132158,8.06577897 9.7888066,8.26388952 9.35010517,9.08278462 C9.0394056,9.66245838 8.81245194,10.3619146 8.79531693,11.0144197 C8.73120252,13.4546149 8.76899031,15.8975585 8.7685364,18.3394714 C8.7685364,18.545827 8.7685364,18.7521826 8.7685364,18.9969007 L5.37001875,18.9969007 L5.37001875,6.09692657 L8.70964193,6.09692657 C8.72745779,6.49429281 8.74572756,6.90219441 8.76876336,7.41899956 C9.867673,6.28438724 11.1566563,5.7381518 12.639912,5.72154716 C14.131565,5.70494251 15.3985338,6.2383523 16.2968164,7.42300758 C17.0027558,7.00548673 17.6327792,6.54193095 18.3306617,6.23606201 C21.2585909,4.95315306 24.7548121,5.9118707 24.8685159,10.3710758 C24.9379637,13.0973288 24.8758919,15.8267883 24.8895091,18.5547591 C24.8914382,18.9362078 24.7611668,19.0490049 24.3973601,19.0388131 C23.6227672,19.0170553 22.8457914,19.0027409 22.0727872,19.0429356 C21.5800708,19.0685869 21.4265366,18.9289934 21.4325509,18.4120737 C21.4604662,15.9896283 21.4497994,13.5666104 21.4403808,11.1438214 C21.4389056,10.7663807 21.4033874,10.3829853 21.3303083,10.0131026 C21.0808862,8.74977568 20.4323661,8.14261838 19.3583079,8.12818952 C18.1034811,8.11135585 17.2038367,8.80336859 16.952599,10.0136752 C16.8722574,10.4010786 16.832654,10.8039416 16.8308384,11.2000482 C16.8199446,13.5847037 16.8256185,15.9693592 16.8256185,18.3541293 L16.8256185,19.0053748 Z" id="Fill-1" fill="#FFFFFF"></path>
                    <path d="M148.328257,12.317323 C148.316115,13.5395391 148.498586,14.732783 149.098311,15.8284603 C149.884478,17.2647045 151.474856,17.671919 152.670448,16.6638455 C153.127306,16.2786178 153.481013,15.7053569 153.732818,15.1491586 C154.252655,14.000461 154.297138,12.7570597 154.212825,11.5110245 C154.154158,10.643117 153.920055,9.83349764 153.438232,9.10266439 C152.298244,7.37360591 149.893103,7.48571586 148.924918,9.3190973 C148.431861,10.2526217 148.315661,11.2677951 148.328257,12.317323 M145.369576,24.2719776 C145.602317,23.5239672 145.814632,22.8419172 146.008677,22.2183843 C146.922393,22.5101679 147.75883,22.8879522 148.632375,23.0257134 C149.548814,23.1702311 150.519608,23.2104257 151.43287,23.0712903 C152.935984,22.8423753 154.065986,21.4373936 154.19569,19.7989163 C154.257875,19.0134595 154.20647,18.218727 154.20647,17.4282316 C154.157562,17.3917014 154.108653,17.3552857 154.059972,17.3187554 C153.984737,17.447241 153.930835,17.5963392 153.831316,17.7012348 C151.405408,20.2575479 147.607679,19.8505624 145.802149,16.8117986 C144.305049,14.2922446 144.23424,10.5209298 146.166523,7.98099224 C147.881272,5.72699806 150.862989,5.04323038 153.110398,6.45897646 C153.487708,6.6965946 153.806578,7.02880194 154.211123,7.36627696 C154.230414,6.93409823 154.248457,6.53238042 154.268088,6.09436143 L157.617811,6.09436143 C157.629613,6.24689511 157.653216,6.41030768 157.653329,6.57372025 C157.655031,10.5424586 157.691911,14.5117695 157.638464,18.4798207 C157.611797,20.4610407 157.110343,22.3134316 155.634576,23.7728078 C154.632235,24.7640476 153.397948,25.2510789 152.052907,25.4269736 C149.939288,25.7035268 147.885811,25.4061319 145.922889,24.5445228 C145.752673,24.4697446 145.588699,24.3804231 145.369576,24.2719776" id="Fill-3" fill="#FFFFFF"></path>
                    <g id="Group-7" transform="translate(41.192090, 25.829035)">
                        <mask id="mask-2" fill="white">
                            <use xlink:href="#path-1"></use>
                        </mask>
                        <g id="Clip-6"></g>
                        <path d="M3.63637644,12.3424589 C3.76188182,13.7519067 4.07507788,15.0576041 4.61545455,15.9323824 C5.65456191,17.6141463 7.76352884,17.7490447 8.99282336,16.2122565 C10.3291265,14.5417151 10.5106895,11.0779869 9.35765138,9.27689861 C8.71877681,8.27890241 7.81879205,7.76576173 6.6376117,7.87397819 C5.43101255,7.98459945 4.58368104,8.65920595 4.20444146,9.80343751 C3.93323184,10.6222181 3.82009543,11.4941335 3.63637644,12.3424589 M10.1109106,7.51050831 L10.1109106,0.109075316 L13.3869867,0.109075316 C13.3986749,0.32436308 13.4193276,0.527855823 13.4194411,0.731348565 C13.4213702,6.62519464 13.4144481,12.5189262 13.4331718,18.4127723 C13.4347605,18.949503 13.2712404,19.0979141 12.7600272,19.0744386 C11.9132631,19.0356181 11.0634351,19.0639032 10.1438189,19.0639032 L10.1438189,17.2247961 C9.94841177,17.3821394 9.84106268,17.4444354 9.76435234,17.5336424 C7.26037256,20.449761 1.98801197,19.9395977 0.543224944,15.4284029 C-0.36334147,12.5978269 -0.112444193,9.9305489 1.94091909,7.62376342 C3.64999366,5.7036943 6.6576971,5.21769363 8.83475013,6.51663464 C9.26721034,6.77475093 9.63816611,7.13787726 10.1109106,7.51050831" id="Fill-5" fill="#FFFFFF" mask="url(#mask-2)"></path>
                    </g>
                    <path d="M35.9840823,12.24369 C35.9473158,11.8933893 35.9276843,11.3766986 35.8296403,10.8758111 C35.7464618,10.4515338 35.605637,10.0306921 35.432131,9.63435646 C34.9942239,8.63418447 34.3362852,7.90541249 33.1447785,7.89968675 C31.875994,7.89361747 31.0177687,8.54417586 30.5757765,9.68371232 C30.298893,10.3975974 30.1345785,11.1753817 30.0450453,11.9394242 C29.8823195,13.3272287 30.0773862,14.6775868 30.8254255,15.8901837 C31.3623979,16.7606105 32.1383524,17.2357322 33.1841549,17.187178 C34.2087372,17.1395398 34.8355833,16.5265423 35.2731499,15.6661928 C35.7926469,14.6449501 35.9276843,13.5355311 35.9840823,12.24369 M29.9790018,17.5461818 C29.9790018,20.2407143 29.9792287,22.7956532 29.9770727,25.3505922 C29.9770727,25.3843741 29.9484765,25.4179269 29.9007028,25.5239676 C28.9384192,25.5239676 27.9423196,25.5332433 26.9470143,25.5099968 C26.8452256,25.507592 26.7285714,25.3215055 26.6559462,25.1982876 C26.6143002,25.127632 26.6465277,25.0120866 26.6465277,24.9166958 C26.6465277,18.831381 26.6465277,12.7459517 26.6466411,6.66063696 L26.6466411,6.10146135 L29.9710584,6.10146135 L29.9710584,7.54377485 C30.70775,7.0572016 31.3941714,6.43939443 32.1964526,6.10443873 C34.7194965,5.05101738 37.4503164,6.15425266 38.7087745,8.63269578 C40.1262136,11.4242223 39.7333568,15.0187263 37.7484201,17.4184978 C35.7338659,19.8542269 32.5324575,20.0286329 30.2838006,17.8257123 C30.2193457,17.7625002 30.1509192,17.7035251 29.9790018,17.5461818" id="Fill-8" fill="#FFFFFF"></path>
                    <path d="M106.339718,15.9055287 C106.625113,16.5682257 106.945004,17.3114265 107.262398,18.048329 C104.032053,20.1820827 98.051257,19.8102532 94.840884,16.0968829 C91.8852664,12.6782735 91.9846721,6.91428717 95.0804336,3.60000076 C98.2810476,0.173604388 104.089132,-0.356369958 107.383932,2.02588076 C107.027274,2.74572059 106.66778,3.47105713 106.335179,4.14177013 C105.405918,3.86223958 104.542813,3.51629046 103.647027,3.34852633 C100.429505,2.74572059 97.5604697,4.58230844 96.7601176,7.78311072 C96.1875136,10.0735206 96.3899562,12.3039247 97.826119,14.2538822 C99.2402673,16.1745239 101.217601,16.9176102 103.541039,16.6147186 C104.45918,16.4949362 105.350087,16.1631869 106.339718,15.9055287" id="Fill-10" fill="#FFFFFF"></path>
                    <path d="M15.2110587,38.1267644 C15.2101509,39.5717118 15.3642525,40.7954166 16.0211698,41.8889181 C17.1595694,43.7834504 19.7826999,43.7927261 20.788899,41.8255914 C21.9134544,39.6270224 21.9351284,37.3150837 20.8651554,35.0638379 C20.3880988,34.060116 19.52976,33.5517849 18.3940839,33.5518994 C17.2569325,33.5520139 16.4531761,34.0880576 15.9190407,35.0662427 C15.3669759,36.0772936 15.1840512,37.1756048 15.2110587,38.1267644 M18.3896583,45.1431988 C14.8246701,45.1453745 12.2669023,43.070825 11.6206518,39.6527882 C10.86535,35.6579405 13.3936138,32.1731416 17.4131901,31.7140519 C20.1662516,31.3995944 22.5481303,32.1888302 24.1598417,34.5362684 C25.7177652,36.805264 25.6391257,39.2840507 24.4631653,41.7006558 C23.3728799,43.9409082 21.1521383,45.1415956 18.3896583,45.1431988" id="Fill-12" fill="#FFFFFF"></path>
                    <path d="M60.1379097,38.3233634 C60.0841217,38.3355019 60.0303337,38.3476405 59.9765457,38.3597791 C60.2261947,39.4044973 60.3885801,40.4812797 60.7486421,41.4856887 C61.1631729,42.6422878 62.0816544,43.2769287 63.3275166,43.2750964 C64.5754213,43.2734932 65.4532781,42.612285 65.9104762,41.4765275 C66.183388,40.7982565 66.3641566,40.0595218 66.4491507,39.3316659 C66.6286711,37.7965954 66.54084,36.2696555 65.7092818,34.9081894 C64.5343427,32.9843413 61.9093966,33.082595 60.836927,35.0674795 C60.2884935,36.0826529 60.1200939,37.1825672 60.1379097,38.3233634 M63.4667526,45.1664224 C60.704613,45.1186697 58.5924688,44.1848018 57.3386632,41.8489295 C56.0760065,39.4964526 56.0174525,37.0639299 57.4152601,34.7231336 C58.4081824,33.0601501 59.9615668,32.1417417 61.8189555,31.7904104 C64.3780851,31.3065855 66.6911968,31.8754948 68.5100035,33.8141154 C70.3686405,35.7952208 70.5945729,38.1920149 69.8021642,40.6909562 C69.0327913,43.1170661 67.3051065,44.5260558 64.8427727,45.0137742 C64.3278148,45.1156923 63.7960624,45.1314954 63.4667526,45.1664224" id="Fill-14" fill="#FFFFFF"></path>
                    <path d="M39.5011492,44.8584234 L36.2308603,44.8584234 C36.2188318,44.6126747 36.1986329,44.3909742 36.198406,44.1690445 C36.196023,41.8797798 36.205555,39.5904006 36.1896683,37.3012504 C36.186264,36.8091804 36.1458662,36.3054299 36.0332972,35.8284759 C35.7475625,34.6174823 34.9180469,33.9739093 33.6671918,33.9220341 C32.2812992,33.8646622 31.0900194,34.6098098 30.7019286,35.8511498 C30.5571322,36.313904 30.5128762,36.8240673 30.5086776,37.3132744 C30.4891596,39.5644057 30.4998264,41.815537 30.4997129,44.0666683 L30.4997129,44.8459413 L27.1894803,44.8459413 L27.1894803,32.0105536 L30.4089315,32.0105536 C30.428336,32.4399839 30.4477405,32.8667805 30.4713437,33.3899985 C30.6920562,33.2179973 30.847179,33.0962681 31.0030962,32.9755695 C32.6026656,31.738352 34.4108054,31.3770579 36.355231,31.7761418 C38.1115119,32.1365198 39.1756976,33.3665229 39.3826794,35.1795207 C39.4559854,35.8214905 39.4925249,36.4709038 39.4961562,37.1172251 C39.5090926,39.4827567 39.5011492,41.8484028 39.5011492,44.2140488 L39.5011492,44.8584234 Z" id="Fill-16" fill="#FFFFFF"></path>
                    <path d="M75.3600438,44.8918617 C74.327972,44.8918617 73.4021146,44.8828151 72.4765975,44.8969004 C72.1521672,44.9018245 72.04096,44.7707051 72.0525346,44.4568201 C72.0679674,44.0375816 72.0561658,43.6173124 72.0561658,43.1975012 L72.0561658,32.7778025 L72.0561658,31.9608542 C73.091188,31.9608542 74.0670888,31.9512349 75.0421952,31.9761991 C75.1369484,31.9784894 75.290369,32.1863337 75.3055749,32.3123 C75.3437032,32.6290478 75.3181709,32.9534682 75.3181709,33.3840437 C75.5456919,33.2167376 75.6910557,33.1142469 75.831767,33.0055724 C77.5744307,31.6599093 79.5236223,31.3091506 81.6152273,31.8811519 C83.2157045,32.3188273 84.2476628,33.6702161 84.2990678,35.5866207 C84.3803172,38.6185137 84.3258483,41.6540712 84.3270966,44.6879109 C84.3272101,44.7236396 84.3049686,44.7594827 84.2771668,44.8437655 L81.065659,44.8437655 C81.0560134,44.645655 81.0363819,44.4269318 81.0362685,44.2083231 C81.0339989,41.8038565 81.0358145,39.3992754 81.0332046,36.9946943 C81.0328642,36.7473424 81.035928,36.4957535 80.9951898,36.2532112 C80.7229589,34.6325982 79.7073413,33.8000758 78.1714323,33.9237518 C76.5235218,34.0564744 75.3888669,35.2201735 75.3702567,36.8778893 C75.3431358,39.3012508 75.3611786,41.7250704 75.3600438,44.1486609 C75.3599303,44.3727663 75.3600438,44.5969862 75.3600438,44.8918617" id="Fill-18" fill="#FFFFFF"></path>
                    <path d="M116.791003,12.3141967 C116.80723,11.2820751 116.659937,10.1416225 116.070198,9.10217197 C115.364032,7.85682387 114.013544,7.37631991 112.782888,7.94442767 C111.848179,8.3758048 111.402555,9.21348033 111.140424,10.149524 C110.695822,11.7376148 110.713411,13.351586 111.174694,14.9212399 C111.365335,15.5699661 111.715071,16.2544208 112.188609,16.7186637 C113.371492,17.8778967 115.237732,17.4849965 116.062935,15.9837079 C116.665043,14.8883742 116.795088,13.6841369 116.791003,12.3141967 M113.837541,5.71516868 C117.594532,5.71196227 120.431566,8.59704733 120.429524,12.4186342 C120.427595,16.4557378 117.660916,19.3743757 113.834931,19.3757499 C109.963442,19.3772386 107.234097,16.4892906 107.228991,12.3858829 C107.224338,8.5688767 110.048323,5.71826058 113.837541,5.71516868" id="Fill-20" fill="#FFFFFF"></path>
                    <path d="M75.6738754,11.5598421 C74.8679629,11.8438387 74.1025617,12.0902745 73.3547493,12.3824017 C72.1914983,12.8366818 71.5047365,13.6982909 71.4594593,14.9668855 C71.4199693,16.0745868 71.9981338,17.1506821 73.2175558,16.9138656 C73.5995189,16.8397745 74.005539,16.6094853 74.2859402,16.3324741 C75.6005693,15.0337621 75.7198335,13.3572659 75.6738754,11.5598421 M79.5436623,19.0357097 C78.3597585,19.0357097 77.2845655,19.0491079 76.2105073,19.0194486 C76.0693421,19.0155551 75.8543035,18.8145817 75.8115227,18.6646819 C75.6927125,18.2488787 75.6467544,17.8118904 75.5611929,17.3210801 C75.0254687,17.7313865 74.5371779,18.1392881 74.0155249,18.4978338 C73.0018364,19.1947707 71.9305016,19.6048481 70.6670506,19.2100012 C68.7457743,18.6093712 67.9183012,16.5932242 68.1260773,14.8689754 C68.3251157,13.2168708 69.2700373,12.0812279 70.721179,11.4634207 C72.2211158,10.8248863 73.7984437,10.3716369 75.3418421,9.83673841 C75.4276306,9.80707908 75.5118304,9.77295368 75.5910373,9.74306532 C75.4862981,8.7945395 74.7081875,8.02545832 73.7714363,7.92376921 C72.3874728,7.77352583 71.2210444,8.27097798 70.1292838,9.22282473 C69.8000876,8.71666946 69.4589762,8.2439525 69.1871992,7.73356018 C69.129099,7.62454212 69.2721933,7.31695545 69.4074577,7.20690676 C70.255924,6.51569562 71.2289878,6.0626752 72.2986204,5.8572357 C73.4794604,5.63049646 74.6658606,5.64446727 75.8339912,5.95285554 C77.7981617,6.47137841 78.9732143,8.01583908 79.0089595,10.1413477 C79.0314279,11.4765899 79.0133851,12.8124046 79.0158815,14.1479904 C79.0189454,15.761847 78.9095537,17.3865825 79.5436623,19.0357097" id="Fill-22" fill="#FFFFFF"></path>
                    <path d="M49.1261179,10.9628308 C49.1261179,10.5519518 49.1536928,10.1937496 49.1210115,9.84115868 C49.0229675,8.78693572 48.4411718,8.01155623 47.5908899,7.81058281 C45.8713754,7.40428441 44.445539,8.52561302 44.3245727,10.6577635 C44.3191258,10.7534978 44.5130577,10.948402 44.6158678,10.9496616 C46.0994639,10.9689001 47.5832869,10.9628308 49.1261179,10.9628308 M51.3085044,16.1486321 C51.5698415,16.6504358 51.8746403,17.2354918 52.2082622,17.8763164 C51.3247316,18.4526692 50.3960372,18.8337744 49.4120796,19.0811263 C47.0732086,19.6691596 44.8795879,19.4284496 42.9612621,17.8340604 C41.7469465,16.8247273 41.0879865,15.4792933 40.7955567,13.938039 C40.4393529,12.0605694 40.6271571,10.2662375 41.6252993,8.60462821 C43.111165,6.13110922 46.5902512,5.00542905 49.2282471,6.14061395 C51.0657774,6.93122391 51.8863284,8.4804942 52.2175673,10.3446801 C52.3589594,11.1402142 52.3459096,11.9638044 52.4096836,12.8672114 L48.3063613,12.8672114 L44.3616796,12.8672114 C43.9445388,15.2504928 46.2600336,17.4937226 48.6059401,16.9947817 C49.4943503,16.8057178 50.3488308,16.454501 51.3085044,16.1486321" id="Fill-24" fill="#FFFFFF"></path>
                    <path d="M140.331238,10.93884 C140.460715,9.47946378 140.096568,8.43623424 139.282712,7.99878783 C138.402359,7.52561281 137.51202,7.61974395 136.722562,8.18521787 C135.803626,8.84333424 135.564077,9.83720792 135.544105,10.93884 L140.331238,10.93884 Z M143.637045,12.8739105 L135.563169,12.8739105 C135.297066,15.4401865 137.492048,17.4977878 139.906494,16.9726231 C140.75984,16.7869947 141.581413,16.4518099 142.528944,16.1491474 C142.777685,16.6246127 143.09542,17.2324571 143.430971,17.8743124 C142.341821,18.5881975 141.198428,19.0059473 139.993758,19.2269608 C137.895798,19.611845 135.937075,19.2717361 134.241391,17.8887412 C133.017997,16.8909741 132.327944,15.5571061 132.029614,14.0180276 C131.638913,12.0026822 131.835114,10.0736809 133.016522,8.33866766 C134.609963,5.99867289 138.043545,5.01155559 140.581114,6.19483669 C142.351126,7.02025914 143.157946,8.57811804 143.455482,10.4330283 C143.578037,11.1974143 143.574974,11.9824131 143.637045,12.8739105 Z" id="Fill-26" fill="#FFFFFF"></path>
                    <g id="Group-30" transform="translate(158.867565, 5.674436)">
                        <mask id="mask-4" fill="white">
                            <use xlink:href="#path-3"></use>
                        </mask>
                        <g id="Clip-29"></g>
                        <path d="M8.60314392,5.25753332 C8.63707349,4.15842057 8.59633531,3.08862361 7.64120081,2.40840589 C6.83154361,1.831595 5.90500527,1.89938775 5.08365996,2.42718631 C4.08597165,3.06823998 3.7732295,4.07596994 3.78741411,5.25753332 L8.60314392,5.25753332 Z M11.8771775,7.20165053 L3.73782473,7.20165053 C3.72590966,8.69503762 4.16517848,9.93614868 5.37518194,10.745081 C7.19262689,11.9599682 8.93517713,11.2767731 10.6970184,10.3682129 C11.0062428,10.9562462 11.3202332,11.5535553 11.6565785,12.1932348 C10.7618137,12.8057742 9.80406924,13.1668393 8.80479225,13.420604 C6.71999588,13.9498913 4.71565459,13.7813256 2.90229481,12.5425048 C1.14170176,11.3396417 0.317633002,9.55298226 0.126197585,7.47660049 C-0.0500319354,5.56408935 0.32591681,3.77972024 1.56247385,2.22873222 C3.35018787,-0.0134669367 7.21362011,-0.672499426 9.50971033,0.930363781 C10.8747231,1.88312665 11.4702496,3.30265171 11.7099126,4.89188766 C11.8194178,5.61802581 11.8199852,6.36088311 11.8771775,7.20165053 Z" id="Fill-28" fill="#FFFFFF" mask="url(#mask-4)"></path>
                    </g>
                    <g id="Group-33" transform="translate(0.000000, 26.745153)">
                        <mask id="mask-6" fill="white">
                            <use xlink:href="#path-5"></use>
                        </mask>
                        <g id="Clip-32"></g>
                        <path d="M11.0185664,18.1188587 L0.0479666571,18.1188587 C0.0348033445,17.8921194 0.0126753622,17.6896573 0.0125618853,17.4873097 C0.0113136402,11.89876 0.0202783099,6.30998129 -3.40430497e-05,0.721431586 C-0.00207662603,0.160881797 0.157585277,0.00239335865 0.699210198,0.0279301519 C1.61791863,0.0709877046 2.54003137,0.039725173 3.53499624,0.039725173 L3.53499624,0.84041243 C3.53499624,5.57078846 3.543507,10.3011645 3.5234216,15.031426 C3.52115207,15.5762873 3.66084205,15.7502352 4.21483594,15.7419902 C6.29350456,15.7113002 8.37308099,15.7415321 10.4519766,15.721721 C10.8972596,15.717484 11.0555598,15.849176 11.0274176,16.3055173 C10.9912185,16.8900007 11.0185664,17.4783776 11.0185664,18.1188587" id="Fill-31" fill="#FFFFFF" mask="url(#mask-6)"></path>
                    </g>
                    <mask id="mask-8" fill="white">
                        <use xlink:href="#path-7"></use>
                    </mask>
                    <g id="Clip-35"></g>
                    <polygon id="Fill-34" fill="#FFFFFF" mask="url(#mask-8)" points="81.0537779 19.0046419 84.3848903 19.0046419 84.3848903 0.00412253165 81.0537779 0.00412253165"></polygon>
                    <polygon id="Fill-36" fill="#FFFFFF" mask="url(#mask-8)" points="121.78901 18.9875792 125.126364 18.9875792 125.126364 0.000458059072 121.78901 0.000458059072"></polygon>
                    <polygon id="Fill-37" fill="#FFFFFF" mask="url(#mask-8)" points="0.0194045383 18.9865485 3.51562574 18.9865485 3.51562574 0.92035519 0.0194045383 0.92035519"></polygon>
                    <polygon id="Fill-38" fill="#FFFFFF" mask="url(#mask-8)" points="127.227501 18.9891824 130.506981 18.9891824 130.506981 0 127.227501 0"></polygon>
                    <path d="M53.9095522,19.0012866 L53.9095522,6.09100615 L57.2027634,6.09100615 L57.2027634,8.27594792 C57.6473656,7.67142446 57.9757676,7.2009978 58.3286805,6.75003864 C59.6135787,5.1081259 61.0926357,5.67348531 62.1992618,6.76217721 C62.2696174,6.83145864 62.3096748,7.01960641 62.2678018,7.10366024 C61.8980943,7.84525788 61.5067127,8.57574759 61.1291753,9.29558742 C60.6624451,9.17076632 60.2555171,9.00494894 59.8362202,8.96108978 C58.7756658,8.85001046 58.049641,9.23134463 57.7101183,10.2477777 C57.4385682,11.0607181 57.2921831,11.9458027 57.2618848,12.8051215 C57.1965222,14.6516721 57.2417994,16.5023453 57.2417994,18.3513008 L57.2417994,19.0012866 L53.9095522,19.0012866 Z" id="Fill-39" fill="#FFFFFF" mask="url(#mask-8)"></path>
                    <polygon id="Fill-40" fill="#FFFFFF" mask="url(#mask-8)" points="63.3513921 19.0038403 66.7123489 19.0038403 66.7123489 6.09733882 63.3513921 6.09733882"></polygon>
                    <path d="M65.0049538,0.199782464 C66.1484598,0.203675966 67.0995092,1.13227622 67.0860054,2.23161799 C67.070686,3.47811124 66.1828433,4.39915352 65.0043864,4.39113749 C63.8802849,4.383465 63.0010664,3.44123749 63.0085559,2.21638753 C63.015478,1.05119976 64.0155493,0.0770226329 65.0049538,0.199782464" id="Fill-41" fill="#FFFFFF" mask="url(#mask-8)"></path>
                </g>
            </g>
        </g>
    </g>
</svg>