<?xml version="1.0" encoding="UTF-8"?>
<svg width="86px" height="73px" viewBox="0 0 86 73" version="1.1" xmlns="http://www.w3.org/2000/svg" xmlns:xlink="http://www.w3.org/1999/xlink">
    <!-- Generator: Sketch 45.1 (43504) - http://www.bohemiancoding.com/sketch -->
    <title>Nectar logo BW</title>
    <desc>Created with Sketch.</desc>
    <defs></defs>
    <g id="Welcome" stroke="none" stroke-width="1" fill="none" fill-rule="evenodd">
        <g id="Desktop-HD-Copy-5" transform="translate(-1076.000000, -2314.000000)" fill="#FFFFFF">
            <g id="Nectar-logo-BW" transform="translate(1076.000000, 2314.000000)">
                <path d="M16.8651165,7.24511669 C26.0587109,1.24063852 37.5711504,-1.14865201 49.2833483,0.51712927 C56.148389,1.48711519 63.1399337,4.22312409 68.9667602,8.22099917 C75.2457645,12.5266753 80.0343768,18.1319556 82.8112836,24.4221226 C86.5207886,32.8150068 88.4359982,46.5115618 76.5131567,64.0827534 C72.6230159,69.8130411 70.054105,72.2660146 67.9203085,72.2763336 C65.837702,72.2943181 64.3084763,70.1046265 62.1949793,67.0788011 C59.8720154,63.7531351 56.6885311,59.1897789 51.2556317,55.765935 C44.8036407,51.6940579 36.6838582,50.0374163 26.4302792,50.701665 C17.1978511,51.3051791 9.34519764,48.731031 4.894027,43.6396369 C1.41222894,39.6547343 0.214855217,34.3221703 1.42870387,28.2218729 C2.98852586,20.3779594 8.75798438,12.5381736 16.8651165,7.24511669 Z M11.9497061,27.6841056 C11.875569,27.4653429 11.7240586,27.0425587 11.7240586,27.0425587 L9.39638757,27.0425587 L9.39638757,41.1359529 L12.7260868,41.1359529 L12.7260868,30.3629178 C13.3241853,30.0987514 14.2650209,29.8059867 15.5897811,29.8059867 C16.8601152,29.8059867 17.509992,30.3010038 17.509992,31.2709897 L17.509992,41.1359529 L20.8355725,41.1359529 L20.8355725,31.3228795 C20.8355725,28.3356767 18.9724354,26.6899438 15.5897811,26.6899438 C14.3226832,26.6899438 13.0152805,27.0629019 11.9497061,27.6841056 Z M35.7727362,34.0883713 C35.7727362,39.065372 37.8382794,41.4921058 42.0749819,41.4921058 C42.8648955,41.4921058 44.8745417,41.4119124 46.4396592,40.674841 L46.5938174,40.6017235 L46.5938174,37.476541 L46.2313691,37.6000741 C44.9027844,38.0632498 43.6880532,38.3710508 42.0749819,38.3710508 C40.0120864,38.3710508 39.1292072,37.0917897 39.1292072,34.0883713 C39.1292072,31.0820046 40.0120864,29.8059867 42.0749819,29.8059867 C43.6880532,29.8059867 44.9027844,30.1185049 46.2313691,30.5781426 L46.5938174,30.7052137 L46.5938174,27.5738398 L46.4396592,27.5001326 C44.8745417,26.7689578 42.8648955,26.6899438 42.0749819,26.6899438 C37.8382794,26.6899438 35.7727362,29.1081275 35.7727362,34.0883713 Z M48.5413884,37.423177 C48.5413884,40.2337775 50.9223087,41.4921058 53.2799876,41.4921058 C53.5456457,41.4921058 54.3399723,41.4921058 55.0492765,41.3169776 L55.2575665,41.2674464 L55.2575665,38.2136123 L54.9363056,38.2660918 C54.6659403,38.3194558 54.0040015,38.3710508 53.5006339,38.3710508 C52.1061495,38.3710508 51.8213687,37.896082 51.8213687,37.1758158 L51.8213687,29.97227 L55.8253629,29.97227 L55.8253629,27.0425587 L51.8213687,27.0425587 L51.8213687,22.7819914 L48.5413884,23.6879995 L48.5413884,37.423177 Z M73.0584245,27.6841056 C72.9798745,27.4653429 72.8324828,27.0425587 72.8324828,27.0425587 L70.505106,27.0425587 L70.505106,41.1359529 L73.8303923,41.1359529 L73.8303923,30.3708782 C74.495273,30.0819462 75.3622657,29.8059867 76.6929098,29.8059867 C77.1945123,29.8059867 77.9426503,29.958413 78.607531,30.19575 L78.9673315,30.3284229 L78.9673315,26.9585326 L78.7596298,26.91136 C78.1674153,26.7819303 77.3430808,26.6899438 76.6929098,26.6899438 C75.4334609,26.6899438 74.1851915,27.0425587 73.0584245,27.6841056 Z M58.2012819,27.5243086 L58.052125,27.6030278 L58.052125,30.7467846 L58.4222223,30.6052669 C59.4045395,30.2243484 61.4059482,29.8059867 62.9469417,29.8059867 C64.8203756,29.8059867 65.1613476,30.4454698 65.1613476,31.7058618 L65.1613476,31.7220774 C64.7441791,31.7598155 62.3570807,31.9467368 62.3570807,31.9467368 C58.8240927,32.2400912 57.0995215,33.7540357 57.0995215,36.5784932 C57.0995215,39.7024965 58.9959026,41.4921058 62.2961824,41.4921058 C63.4803173,41.4921058 64.8665642,41.1120718 65.9274315,40.544232 C65.9974499,40.7423568 66.1321912,41.1359529 66.1321912,41.1359529 L68.46251,41.1359529 L68.46251,31.6760841 C68.46251,28.2301281 66.7570614,26.6899438 62.9469417,26.6899438 C61.7504506,26.6899438 59.3754142,26.9900792 58.2012819,27.5243086 Z M29.0283154,35.5427605 C31.967912,35.2756459 34.2205633,34.3180427 34.2205633,31.0436769 C34.2205633,27.8612976 31.4713108,26.6076866 28.5743725,26.6076866 C25.2370242,26.6076866 22.5257229,27.9630134 22.5257229,32.6619908 L22.5257229,35.5427605 C22.5257229,40.2387896 25.1690651,41.5669922 28.5061192,41.5669922 C30.1230151,41.5669922 32.2712271,41.2674464 34.085822,40.8776831 L33.8542905,38.1552363 C32.833728,38.389625 30.4848749,38.590698 28.5743725,38.590698 C26.7485982,38.590698 26.3226038,37.5290204 26.3226038,35.9679033 L26.3226038,35.7721371 L29.0283154,35.5427605 Z" id="Combined-Shape"></path>
                <path d="M28.637036,29.5208875 C26.8527432,29.5208875 26.3226038,30.5784375 26.3226038,32.6301493 L26.3226038,33.225703 L28.5061192,33.0597145 C30.290412,32.9261572 30.6157917,32.1059442 30.6157917,31.1409703 C30.6157917,30.2125552 30.0885942,29.5208875 28.637036,29.5208875 Z" id="Path"></path>
                <path d="M65.1613476,34.5503676 L65.1613476,37.6330949 C64.4817572,38.0098858 63.3882343,38.3710508 62.3467839,38.3710508 C60.6631058,38.3710508 60.4327511,37.5113307 60.4327511,36.5784932 C60.4327511,35.5168156 61.0861582,34.9165447 62.3759092,34.7909477 C62.3759092,34.7909477 64.6826924,34.5940023 65.1613476,34.5503676 Z" id="Path"></path>
            </g>
        </g>
    </g>
</svg>