<?xml version="1.0" encoding="UTF-8"?>
<svg width="102px" height="45px" viewBox="0 0 102 45" version="1.1" xmlns="http://www.w3.org/2000/svg" xmlns:xlink="http://www.w3.org/1999/xlink">
    <!-- Generator: Sketch 45.1 (43504) - http://www.bohemiancoding.com/sketch -->
    <title>Page 1</title>
    <desc>Created with Sketch.</desc>
    <defs>
        <polygon id="path-1" points="101.832624 44.9535868 0.479801183 44.9535868 0.479801183 0.352990634 101.832624 0.352990634"></polygon>
    </defs>
    <g id="Welcome" stroke="none" stroke-width="1" fill="none" fill-rule="evenodd">
        <g id="Desktop-HD-Copy-5" transform="translate(-678.000000, -2320.000000)">
            <g id="Page-1" transform="translate(678.000000, 2320.000000)">
                <mask id="mask-2" fill="white">
                    <use xlink:href="#path-1"></use>
                </mask>
                <g id="Clip-2"></g>
                <path d="M91.2693495,14.8279175 C91.3018187,14.7520812 91.3326077,14.6932832 91.3528159,14.6310505 C91.9474798,12.8009917 92.5389649,10.9699838 93.1382154,9.14146156 C93.1918919,8.97772207 93.1710026,8.88945732 93.0021625,8.83432009 C92.5077672,8.6730211 92.0229083,8.47741953 91.5210201,8.34518057 C89.6496565,7.85197355 87.7307925,7.69175923 85.8062974,7.63043037 C83.8873879,7.56928228 81.9687509,7.58586864 80.0670523,7.92857814 C78.3980425,8.2293472 76.7907015,8.70081569 75.3116935,9.54540954 C73.6271529,10.5074186 72.3458666,11.8374912 71.5950325,13.6400718 C71.0356533,14.9828892 70.8480128,16.3886626 70.8907905,17.83258 C70.9194906,18.7996056 71.1235246,19.7229734 71.5624724,20.5911588 C72.239195,21.9299539 73.3398341,22.8340689 74.6211204,23.5535193 C75.8767491,24.2585527 77.2310571,24.7400543 78.5614332,25.2761509 C79.4728425,25.643401 80.3783484,26.0215881 81.1813604,26.603783 C82.5533789,27.598558 82.6615945,29.1415869 81.9272901,30.3137049 C81.5408834,30.9305188 80.9433132,31.3016104 80.2815764,31.5761215 C79.0601426,32.0828868 77.7668677,32.2003924 76.4659637,32.2407962 C75.2319508,32.2791663 74.005885,32.1546104 72.7939876,31.9257005 C71.447445,31.6713462 70.1279222,31.3265125 68.9287855,30.6308344 C68.8870523,30.6066553 68.8355556,30.5990627 68.7649861,30.5759683 C68.1388974,32.5830538 67.5178493,34.5743212 66.8906707,36.5849318 C66.9911664,36.6190536 67.0664587,36.6509609 67.1448845,36.6702589 C68.4111849,36.981016 69.6713093,37.3208782 70.946238,37.5915026 C72.3343775,37.88608 73.7453591,38.0591747 75.1646964,38.105499 C77.1318329,38.1696752 79.0911132,38.0683944 81.0312299,37.7074263 C82.7184952,37.3934605 84.3476791,36.9092924 85.8556597,36.0743249 C87.7365597,35.0329996 89.1604836,33.5756594 89.9310264,31.5480105 C90.5156089,30.0097271 90.6764112,28.4155381 90.5058,26.7818943 C90.3194311,24.9977531 89.570368,23.5010937 88.2315,22.2997349 C87.4896118,21.6340659 86.6549026,21.099054 85.7502141,20.6896375 C84.622873,20.1794825 83.4732347,19.7178664 82.332361,19.2373139 C81.4961531,18.8851135 80.6606718,18.5341334 79.9430789,17.9603899 C78.9675484,17.1803337 78.8834009,16.015492 79.3777054,15.0972312 C79.7117071,14.4766662 80.2972434,14.1591752 80.9404976,13.936683 C81.9826468,13.5762572 83.0719331,13.5101377 84.1575865,13.4954044 C85.0467896,13.4832922 85.9393077,13.5462481 86.8267852,13.6188756 C87.9673411,13.7122021 89.0729301,13.9846795 90.1455504,14.382481 C90.5183336,14.5207308 90.8850771,14.6750247 91.2693495,14.8279175 M53.1454189,8.13195316 C53.0382477,8.12286908 52.979349,8.11355902 52.9204502,8.11351383 C50.4003829,8.11279072 47.8803156,8.11527641 45.3602484,8.10809049 C45.1694291,8.10754816 45.1335994,8.20539414 45.1043544,8.3457681 C44.6791663,10.3885572 44.2541144,12.4314818 43.8276547,14.4740449 C43.3475641,16.7736289 42.8652028,19.0727609 42.3854301,21.3724352 C41.8657405,23.8633272 41.3488211,26.3548068 40.8290408,28.8456536 C40.2909142,31.4244489 39.7503808,34.0026566 39.2118455,36.5813614 C39.1422296,36.9148061 39.078154,37.2493806 39.0085835,37.5980558 C39.1062183,37.6067331 39.1651624,37.6164951 39.2241066,37.6164951 C41.7441739,37.6173086 44.2642412,37.6156364 46.7843084,37.6207434 C46.9490161,37.6211049 47.0091409,37.5565673 47.039385,37.4097305 C47.325296,36.0203628 47.6144766,34.6316277 47.9038842,33.2429831 C48.4598576,30.5756971 49.0191913,27.9091795 49.5676263,25.2404473 C49.607316,25.0472862 49.6838344,25.0027245 49.8669337,25.003538 C51.3047989,25.0101364 52.7426641,25.0071535 54.1805747,25.0071535 C55.6714351,25.0071535 57.1622955,25.0090969 58.653156,25.0047582 C58.8392524,25.0042159 58.9248531,25.0169155 58.8727661,25.2523786 C58.6553811,26.234228 58.4658788,27.2220431 58.2600284,28.2064234 C57.6456558,31.1451472 57.0281045,34.0832383 56.4129145,37.0217362 C56.3738152,37.208344 56.3440706,37.3968501 56.3070148,37.6007222 C56.4114159,37.6079985 56.4778984,37.6166307 56.5443355,37.6166759 C59.0492807,37.6173538 61.5541805,37.6150489 64.0591258,37.6217377 C64.2465392,37.6222348 64.3081172,37.5472572 64.3396782,37.3850543 C64.4257785,36.9430074 64.5212789,36.5028135 64.6129648,36.0618965 C65.3281509,32.6228249 66.0413389,29.1833918 66.7589773,25.7448625 C67.4336564,22.511968 68.1134669,19.2802486 68.7900078,16.047806 C69.2743218,13.7336695 69.7573642,11.419307 70.2398617,9.10480886 C70.3063441,8.78600722 70.3662419,8.46584975 70.4325428,8.12951266 C70.3275967,8.12214597 70.2611143,8.11342344 70.1945864,8.11337824 C67.6896865,8.11265513 65.1847413,8.11473408 62.6798415,8.10876841 C62.4957886,8.10831647 62.4328936,8.17768994 62.3993799,8.34423149 C62.1715503,9.4773467 61.9370905,10.6091965 61.7028125,11.7410011 C61.1946121,14.1960087 60.6829604,16.6502028 60.1804364,19.1062952 C60.1398839,19.3046988 60.0673163,19.3738011 59.857288,19.3732588 C56.9286078,19.3662988 53.9998822,19.3686489 51.0711566,19.3681066 C50.9984982,19.3681066 50.9258397,19.3615534 50.8228918,19.3566724 C51.5985207,15.6079737 52.3689272,11.8845838 53.1454189,8.13195316 M30.6242533,28.4862222 C30.6106752,28.4860414 30.5970518,28.4858606 30.5834737,28.4856799 C30.5585882,28.4092109 30.5319771,28.3332842 30.5090896,28.2562276 C29.6465431,25.3534334 28.7840874,22.4505488 27.9220858,19.5475738 C26.8162243,15.823506 25.7093183,12.0997546 24.6090878,8.37405982 C24.5501891,8.17470711 24.4651787,8.10673466 24.2498826,8.10727699 C21.124071,8.11523122 17.998214,8.11473408 14.8724023,8.10809049 C14.6699123,8.10768374 14.5805878,8.16146514 14.537674,8.36384588 C13.9168076,11.2938924 13.2904464,14.222809 12.6623141,17.1513641 C11.9727401,20.3661808 11.2795785,23.5802292 10.5886422,26.7947748 C9.91028476,29.9505675 9.23238149,33.1064507 8.55529562,36.2624694 C8.46133917,36.7005392 8.37333163,37.1398292 8.27992012,37.5910958 C8.35839124,37.6023944 8.40925215,37.6161335 8.46002224,37.6161787 C10.8441274,37.6172182 13.2282326,37.6159076 15.6123377,37.6199751 C15.7586083,37.620201 15.8127842,37.5568836 15.8382147,37.4298872 C16.1112742,36.0682689 16.3860139,34.7069669 16.6600725,33.3455293 C17.120727,31.057018 17.5804279,28.7682356 18.0419907,26.4798598 C18.4887039,24.2649703 18.9373697,22.0504423 19.3849003,19.8356432 C19.5568738,18.9847673 19.7281207,18.1337106 19.89964,17.2826992 C19.9610364,17.335893 19.9843325,17.3938323 20.0024517,17.4533986 C21.0124041,20.7750098 22.0222656,24.0967114 23.0314914,27.4185485 C24.0385828,30.7333806 25.0466733,34.0478059 26.047725,37.3644457 C26.1053522,37.5553922 26.187865,37.6222348 26.3915357,37.621828 C29.5173473,37.6153652 32.6431589,37.6158624 35.7689706,37.6210145 C35.9528873,37.6213309 36.0298144,37.5743287 36.0695495,37.3845572 C36.5601302,35.0407279 37.0592483,32.6987516 37.5589567,30.3568656 C38.2654693,27.0459203 38.9751152,23.7356077 39.6819002,20.4247076 C40.4969009,16.6072681 41.3104938,12.7895575 42.123678,8.9718016 C42.1823043,8.69670299 42.2328473,8.41988699 42.2901113,8.12878955 C42.2084613,8.12119688 42.1644576,8.11351383 42.1204538,8.11346863 C39.736394,8.1128811 37.3522889,8.11387538 34.9681837,8.1104858 C34.8171904,8.11030502 34.7646492,8.16223344 34.7351318,8.31146551 C34.5342766,9.32784347 34.3185718,10.3412386 34.1123127,11.3565319 C33.5610167,14.0706845 33.0130358,16.7854698 32.4620124,19.4997128 C31.9214335,22.1625697 31.3790837,24.8250651 30.8365976,27.4875605 C30.7686619,27.8210051 30.6951407,28.1533651 30.6242533,28.4862222 M0.479801183,0.352990634 L101.832624,0.352990634 L101.832624,44.9535311 C68.0483326,44.9535868 34.2640922,44.9535868 0.479801183,44.9535868 L0.479801183,0.352990634 Z" id="Fill-1" fill="#FFFFFF" mask="url(#mask-2)"></path>
            </g>
        </g>
    </g>
</svg>