<?xml version="1.0" encoding="UTF-8"?>
<svg width="137px" height="45px" viewBox="0 0 137 45" version="1.1" xmlns="http://www.w3.org/2000/svg" xmlns:xlink="http://www.w3.org/1999/xlink">
    <!-- Generator: Sketch 45.1 (43504) - http://www.bohemiancoding.com/sketch -->
    <title>Page 1</title>
    <desc>Created with Sketch.</desc>
    <defs>
        <polygon id="path-1" points="1.51374455e-05 44.9382893 136.1734 44.9382893 136.1734 2.71136523e-05 1.51374455e-05 2.71136523e-05 1.51374455e-05 44.9382893"></polygon>
    </defs>
    <g id="Welcome" stroke="none" stroke-width="1" fill="none" fill-rule="evenodd">
        <g id="Desktop-HD-Copy-5" transform="translate(-466.000000, -2321.000000)">
            <g id="Page-1" transform="translate(466.000000, 2321.000000)">
                <mask id="mask-2" fill="white">
                    <use xlink:href="#path-1"></use>
                </mask>
                <g id="Clip-2"></g>
                <path d="M71.2711818,19.3061086 C71.322776,19.3229292 71.3439746,19.3358189 71.3651273,19.3358646 C72.5067745,19.3379215 73.6483758,19.337373 74.790023,19.3418066 C74.9331715,19.3423551 74.9523928,19.2667996 74.9495878,19.1542204 C74.9394253,18.7434412 74.949036,18.3314279 74.9199281,17.9220657 C74.8257066,16.5977635 74.1760893,15.6251397 72.9222409,15.1654528 C71.0077389,14.4636041 69.0632553,14.477728 67.1563408,15.2121208 C66.1535195,15.598309 65.4675747,16.3366328 65.1848645,17.3845379 C65.0709619,17.8068355 65.0030434,18.2515758 64.98957,18.6884086 C64.9545761,19.8257188 65.3287487,20.8121465 66.2075509,21.5749241 C66.4666712,21.7998082 66.7261135,22.0329655 67.0170089,22.2114101 C67.8045326,22.6944539 68.6153702,23.1399255 69.4046873,23.6202725 C69.9386546,23.9452117 70.4694031,24.2807096 70.9690663,24.6545108 C71.4063751,24.9816898 71.6276506,25.4382685 71.5914151,26.0071979 C71.5463507,26.7155828 71.1972854,27.158312 70.5466564,27.2524251 C70.3295195,27.2838266 70.1006106,27.2842836 69.8831058,27.2548933 C69.2127037,27.1642083 68.8225746,26.7131146 68.8132398,26.0402449 C68.8078137,25.6519084 68.8130559,25.2634348 68.8114464,24.875007 C68.8110785,24.7950634 68.8016058,24.7151655 68.7970534,24.6456892 C68.7552538,24.6324338 68.7410448,24.6239778 68.7267897,24.6239778 C67.5009456,24.6219209 66.2750555,24.6219666 65.0492114,24.6171673 C64.9062469,24.6165731 64.8857379,24.6909402 64.888451,24.8041593 C64.8996251,25.2681428 64.8886349,25.7335889 64.9218814,26.1959268 C65.0332549,27.7459817 65.8136051,28.8288992 67.2563102,29.4359035 C67.9773868,29.7393142 68.737412,29.8657429 69.5121521,29.9112225 C70.5898814,29.9745283 71.6567125,29.9021266 72.6864344,29.5550189 C73.9362362,29.1336812 74.8154522,28.3418788 75.1262587,27.025347 C75.2882147,26.3392676 75.307666,25.6393844 75.2724422,24.9368501 C75.2225954,23.9435662 74.7868501,23.1428965 74.0434711,22.4988687 C73.7899608,22.2791953 73.5337834,22.0538084 73.2480382,21.8813973 C72.4832767,21.4200192 71.6962128,20.9951619 70.9287842,20.5378976 C70.3460277,20.1906527 69.7609721,19.8417624 69.2114621,19.4462498 C68.650686,19.0426925 68.647697,18.3346732 68.8486935,17.8315636 C68.9459499,17.5882134 69.113378,17.3778645 69.3686817,17.3175297 C69.6667506,17.2470478 69.9872138,17.1896383 70.2868922,17.2234166 C70.923542,17.2951327 71.267825,17.7261606 71.2709059,18.3615953 C71.2724234,18.6729136 71.2711818,18.9842775 71.2711818,19.3061086 L71.2711818,19.3061086 Z M42.6522424,29.4263047 C41.7647033,24.6209153 40.8830502,19.8473845 40.0018569,15.0765505 C39.9446987,15.0692829 39.914901,15.0621981 39.8850573,15.0621981 C37.8163247,15.0614211 35.7475921,15.0626095 33.6788595,15.0580844 C33.5396196,15.0577644 33.4942333,15.1125685 33.4716091,15.2363919 C33.3078138,16.1337343 33.1390061,17.0301626 32.9723138,17.9269565 C32.3139594,21.4696582 31.6556051,25.0123142 30.9979865,28.5551074 C30.9447369,28.8418346 30.8972354,29.1295674 30.8481243,29.4111296 C30.8940165,29.4271732 30.9080416,29.4364062 30.9221128,29.436452 C32.1709029,29.4386002 33.4197391,29.4382346 34.6685292,29.4441766 C34.8063896,29.4448165 34.8354975,29.3717292 34.851316,29.2653663 C34.9152339,28.836761 34.9797956,28.4082014 35.0447711,27.9797332 C35.2988792,26.303341 35.5534012,24.6270402 35.8074174,22.9506481 C36.0603759,21.2814778 36.3125987,19.6122161 36.5659251,17.9430915 C36.626808,17.5420025 36.6907259,17.1414162 36.7532183,16.7406014 C36.8097328,16.7783107 36.8224244,16.8181682 36.8284483,16.8590313 C37.0769924,18.5363376 37.323973,20.2138725 37.5732068,21.8910417 C37.9352856,24.3280175 38.301181,26.7644448 38.6572359,29.2022891 C38.6831709,29.3798653 38.7307645,29.4473762 38.9213686,29.4460507 C40.0859159,29.4377775 41.2506011,29.4421198 42.4151944,29.4413427 C42.4822852,29.441297 42.549376,29.4330696 42.6522424,29.4263047 L42.6522424,29.4263047 Z M82.2608295,15.0766876 L78.4999741,15.0766876 C78.4999741,15.1968086 78.50002,15.3015717 78.50002,15.4062891 C78.50002,18.171038 78.4976289,20.9358327 78.5014915,23.7005817 C78.5025952,24.499743 78.5139532,25.2990872 78.5342782,26.0979743 C78.575296,27.7097808 79.4361643,28.9474662 80.9670669,29.4624599 C82.6985522,30.0450103 84.460295,30.0344517 86.2016208,29.4847198 C87.2029245,29.1686479 87.9549025,28.534493 88.3710586,27.5516306 C88.6184071,26.9675261 88.7049491,26.350009 88.7059608,25.7224361 C88.7115249,22.2417603 88.711065,18.7610846 88.7120307,15.2804545 C88.7120307,15.2142691 88.7039375,15.1480837 88.6992471,15.0767333 L84.9744891,15.0767333 L84.9744891,15.3608552 C84.9744891,17.0973993 84.974765,18.8339434 84.9743972,20.5704875 C84.9740293,22.3603273 84.9772482,24.1502128 84.9697988,25.9400069 C84.9674536,26.5041369 84.65959,26.940147 84.1799299,27.1139294 C83.6068761,27.3215815 82.9163329,27.1795205 82.5654282,26.7810369 C82.3059859,26.4863564 82.2589902,26.131844 82.2592661,25.7571286 C82.2619791,22.3068944 82.2608295,18.8566603 82.2608295,15.4064262 L82.2608295,15.0766876 L82.2608295,15.0766876 Z M92.6253694,15.060964 L92.6253694,29.273411 L96.2457895,29.273411 C96.1813198,25.4900101 96.1172179,21.7274979 96.0531161,17.9650314 C96.1268746,18.0230808 96.1566263,18.0883063 96.1774111,18.1562286 C97.2872833,21.7842674 98.3977533,25.4121234 99.5018775,29.0418992 C99.5593116,29.2305824 99.6367948,29.3011558 99.8457926,29.2997846 C101.401343,29.2894545 102.957031,29.2941625 104.512627,29.2941625 L104.771425,29.2941625 L104.771425,15.076459 L101.1316,15.076459 C101.193954,18.7184389 101.255987,22.3446951 101.318019,25.9709513 C101.297511,25.9730996 101.277002,25.9752479 101.256447,25.9773962 C101.228994,25.8917848 101.199748,25.8067219 101.174319,25.7205163 C100.151357,22.2493479 99.1270611,18.7785451 98.1106746,15.3054112 C98.0567812,15.1213445 97.9891386,15.0546563 97.7880961,15.0557533 C96.1482572,15.065032 94.5082803,15.060964 92.8683954,15.060964 L92.6253694,15.060964 L92.6253694,15.060964 Z M61.4889386,29.4294586 C61.3821175,24.6296456 61.2758023,19.8496699 61.1694411,15.0696485 L55.218317,15.0696485 C54.6415384,18.6180181 54.0654497,22.162411 53.4893149,25.7068496 C53.4620923,25.7051127 53.4348697,25.7033758 53.4076931,25.7016389 C52.8329379,22.1579773 52.2581826,18.6143157 51.6842091,15.0753163 L45.7286246,15.0753163 C45.6225393,19.8642965 45.5167299,24.6393814 45.4107825,29.422191 L49.1155374,29.422191 C49.145427,25.2707024 49.1752247,21.1387769 49.2049764,17.0068971 C49.3294554,17.3599926 49.4005468,17.7157849 49.4669019,18.0723999 C50.1593304,21.7952831 50.851759,25.5181664 51.540049,29.2418266 C51.5670416,29.3879099 51.6183599,29.4459135 51.7753036,29.4450451 C52.8940967,29.4390573 54.0129818,29.4391487 55.1318209,29.4450908 C55.2779584,29.4458221 55.3335072,29.3918408 55.3565452,29.258053 C55.4172442,28.9059174 55.4868181,28.5553359 55.5524375,28.2040688 C56.201503,24.7286037 56.8503386,21.2530473 57.499956,17.7777194 C57.5489291,17.5159488 57.6036961,17.2552752 57.6557501,16.9940988 C57.6721205,16.9967042 57.6884908,16.9993096 57.7048611,17.0019149 C57.7357624,21.1403767 57.7666638,25.2787928 57.797657,29.4294586 L61.4889386,29.4294586 Z M18.5123381,16.8665274 C18.4174269,17.3765847 18.2847168,17.876449 18.2378131,18.3841294 C18.1244163,19.6112105 18.4744472,20.6829295 19.4076025,21.5379919 C20.1874009,22.2525475 21.1057493,22.7549715 22.020603,23.2667199 C22.6271792,23.6060572 23.2280994,23.9565016 23.8181214,24.3233096 C24.0427537,24.4629937 24.2409451,24.651037 24.4319631,24.8365664 C24.984646,25.3734086 24.9794038,26.0809708 24.7235023,26.6745826 C24.654894,26.8338298 24.5201146,26.9842553 24.3786215,27.0894755 C23.9010767,27.4445364 22.9571151,27.3994682 22.4974581,27.0220103 C22.1807196,26.7619309 22.0859464,26.4099781 22.0825895,26.0231957 C22.0787269,25.5754844 22.0816698,25.1277273 22.0816698,24.6656179 C21.994346,24.6590359 21.928037,24.6498029 21.8617739,24.6497572 C20.6969047,24.648843 19.5319895,24.652911 18.3671663,24.6452321 C18.1782637,24.643998 18.1083678,24.6954653 18.1202317,24.8882166 C18.1592722,25.5252054 18.1216572,26.1742155 18.2316512,26.7980403 C18.4728838,28.1655368 19.316554,29.0946464 20.6158807,29.5482541 C22.4815476,30.1995496 24.3776559,30.2027948 26.2375287,29.5207378 C27.6775667,28.9926258 28.451847,27.9107596 28.5574725,26.3910549 C28.6005136,25.7718009 28.6009734,25.142034 28.5395847,24.5250196 C28.4537323,23.6616841 27.9463438,23.0087431 27.3120851,22.4480869 C26.5325627,21.7589908 25.6201462,21.2739816 24.7146273,20.7772254 C24.1252492,20.4539317 23.541435,20.1201708 22.9622653,19.7791422 C22.7858243,19.6752476 22.6273631,19.5382146 22.4708333,19.4046096 C22.0276385,19.0262376 21.9269793,18.5362462 22.0528378,17.9957473 C22.2031138,17.3502111 22.818657,17.0153074 23.5670942,17.1497808 C24.2493142,17.2723244 24.5575457,17.66674 24.5807216,18.4546571 C24.5872514,18.6753818 24.5888148,18.8967464 24.57971,19.1172882 C24.5736401,19.2637371 24.6225672,19.318724 24.7749585,19.3180841 C25.8784849,19.3134676 26.9821032,19.3178099 28.0855836,19.3096738 C28.1486738,19.3092167 28.2650136,19.2249309 28.2657034,19.1783086 C28.2759118,18.4944232 28.3138947,17.8075211 28.1249001,17.1366626 C27.8337747,16.1031556 27.1453468,15.4415301 26.1601375,15.0567131 C25.5418353,14.8151913 24.8957587,14.7028863 24.2368066,14.6516475 C24.085289,14.6398548 23.9335874,14.6303932 23.7733788,14.5781488 C23.8903624,14.5291953 24.0068401,14.4789621 24.1244214,14.4314256 C29.0163478,12.4536339 34.0102209,10.7674145 39.0701271,9.2699697 C43.9899658,7.81393652 48.9553748,6.52908038 53.9734355,5.4582298 C57.3300907,4.74193735 60.7009091,4.08602538 64.0776594,3.46919387 C66.6950283,2.9910866 69.327296,2.58798641 71.9605294,2.20243815 C74.2084161,1.87324804 76.4649478,1.59840493 78.7217094,1.3336176 C80.4468488,1.13122191 82.1764027,0.959176423 83.9075201,0.814921496 C86.2112315,0.622947259 88.517472,0.457986539 90.8243562,0.306921097 C92.1761048,0.218384407 93.5307963,0.167556943 94.8848901,0.12162025 C96.2317183,0.0758663903 97.5793743,0.0514125291 98.9268463,0.0289698266 C99.9455321,0.0120121023 100.965275,-0.0159155784 101.983133,0.0116464371 C104.408933,0.0773747593 106.835513,0.142463167 109.258646,0.267063589 C110.977669,0.355463155 112.695451,0.505385892 114.407025,0.68968116 C118.230143,1.10142019 122.016198,1.72515363 125.707893,2.82795421 C127.912877,3.48665438 130.051597,4.30341335 132.011531,5.5283004 C132.969426,6.12698577 133.853976,6.81548766 134.59009,7.67740628 C136.292237,9.67028169 136.603917,11.880408 135.612224,14.2826456 C135.004315,15.7551337 134.050099,16.9997209 132.965885,18.151475 C131.371203,19.8455105 129.54499,21.2654799 127.622855,22.5684365 C124.674907,24.5667055 121.544907,26.2451088 118.330894,27.7748692 C118.277369,27.8003287 118.222372,27.8227257 118.121437,27.8670169 C118.186734,27.7449304 118.229913,27.6617416 118.2753,27.5797868 C118.60496,26.9842096 118.724794,26.334194 118.731968,25.6674949 C118.747004,24.2659915 118.738681,22.8642597 118.739417,21.4626649 C118.739463,21.4259155 118.733439,21.3891662 118.729025,21.3381559 L113.574023,21.3381559 L113.574023,23.4998772 C113.961393,23.4998772 114.341314,23.4997858 114.721281,23.4999229 C115.032409,23.5000143 115.034892,23.5001515 115.032179,23.8087272 C115.026201,24.4862591 115.029098,25.1641567 115.006566,25.8411859 C114.984172,26.5141013 114.504144,26.9942197 113.827718,27.0369568 C113.615087,27.050395 113.394639,27.0560628 113.187389,27.0161139 C112.504801,26.8846116 112.136514,26.4384086 112.133204,25.7001762 C112.123087,23.422539 112.128467,21.1448561 112.131778,18.8671732 C112.132054,18.7007955 112.148792,18.5311726 112.1842,18.3687258 C112.328912,17.7046321 112.807928,17.3359958 113.556733,17.3351274 C114.474346,17.3341218 114.93598,17.8484756 114.965824,18.5465762 C114.979159,18.858123 114.991115,19.1705382 114.982608,19.4819478 C114.97755,19.666883 115.028638,19.7327942 115.22476,19.7312858 C116.312928,19.7227841 117.401188,19.7241553 118.489401,19.7302345 C118.664555,19.7312401 118.743648,19.6861719 118.728059,19.4992255 C118.675637,18.8713783 118.695686,18.2299101 118.570379,17.6174209 C118.334573,16.4646156 117.62159,15.6326815 116.524363,15.2079157 C114.570499,14.4516286 112.586423,14.4320198 110.643181,15.2378088 C109.371537,15.7651438 108.695754,16.7944456 108.518715,18.1395451 C108.45935,18.5905932 108.441094,19.0495944 108.439209,19.5051219 C108.430932,21.4854733 108.425782,23.4659618 108.440726,25.4462217 C108.446382,26.1940985 108.538075,26.9344791 108.911604,27.6099542 C109.479139,28.6362393 110.406685,29.1685565 111.498853,29.4664822 C112.242048,29.6691979 113.003223,29.7384 113.773272,29.7096496 C113.823395,29.7077755 113.873656,29.709421 113.935136,29.7492785 C113.458971,29.9459607 112.983587,30.1445626 112.506502,30.3390508 C106.171825,32.9213329 99.6742259,35.0211654 93.0766114,36.8258603 C88.9835668,37.9454358 84.8638054,38.9596083 80.7077166,39.8162704 C77.5028549,40.4768903 74.2864971,41.0866371 71.0645753,41.659863 C68.5811121,42.1017237 66.0844974,42.4745651 63.5874229,42.8352939 C61.6113023,43.1207413 59.6278701,43.3600234 57.6437023,43.5853189 C55.5982376,43.8175163 53.549784,44.0281852 51.4992151,44.2105607 C49.7458414,44.3665169 47.9890189,44.4924429 46.2313687,44.5891613 C44.0682767,44.7081854 41.9034374,44.8079663 39.7380462,44.8699008 C37.7629831,44.9263961 35.7860348,44.9458221 33.8101441,44.9357663 C32.1797319,44.9274474 30.5480781,44.8830191 28.9198731,44.7985961 C26.9633417,44.697124 25.0066264,44.5717465 23.055843,44.3932105 C19.7467353,44.0903026 16.4618612,43.6132923 13.223753,42.8536685 C10.5971412,42.2374312 8.02515865,41.4592042 5.60920011,40.2391165 C4.10409458,39.47899 2.70420067,38.5695349 1.58968408,37.2834903 C0.501470389,36.0277503 -0.092138338,34.5885834 0.0116937562,32.9091745 C0.0879813755,31.6751458 0.523450788,30.5527821 1.14552367,29.495964 C2.11647791,27.8464939 3.41833372,26.4779918 4.84761147,25.2209262 C7.10676424,23.2339929 9.61482894,21.5993323 12.2185406,20.1025274 C14.2137906,18.9554813 16.2633478,17.9115986 18.3491406,16.937375 C18.4104374,16.908716 18.4733436,16.8833937 18.5123381,16.8665274 L18.5123381,16.8665274 Z" id="Fill-1" fill="#FFFFFF" mask="url(#mask-2)"></path>
            </g>
        </g>
    </g>
</svg>