<?xml version="1.0" encoding="UTF-8"?>
<svg width="231px" height="38px" viewBox="0 0 231 38" version="1.1" xmlns="http://www.w3.org/2000/svg" xmlns:xlink="http://www.w3.org/1999/xlink">
    <!-- Generator: Sketch 49.3 (51167) - http://www.bohemiancoding.com/sketch -->
    <title>androidthings-logo</title>
    <desc>Created with Sketch.</desc>
    <defs></defs>
    <g id="3.-High-level-wireframes" stroke="none" stroke-width="1" fill="none" fill-rule="evenodd">
        <g id="2.1-Project-site---vision" transform="translate(-607.000000, -6003.000000)" fill="#363636" fill-rule="nonzero">
            <g id="androidthings-logo" transform="translate(607.000000, 6003.000000)">
                <path d="M129,27.5567282 L129,1.3298153 L124.020017,1.3298153 L124.020017,9.08707124 C122.618244,7.72031662 120.736917,6.98153034 118.412925,6.98153034 C112.695167,6.98153034 108.379182,11.6358839 108.379182,17.4353562 C108.379182,23.2717678 112.695167,28 118.412925,28 C120.736917,28 122.655133,27.1873351 124.020017,25.8575198 L124.020017,27.5936675 L129,27.5936675 L129,27.5567282 Z M118.966257,23.1978892 C115.90449,23.1978892 113.432943,20.6490765 113.432943,17.4353562 C113.432943,14.2955145 115.90449,11.7097625 118.966257,11.7097625 C120.995139,11.7097625 122.950243,12.707124 123.909351,14.4063325 C123.983128,14.5171504 124.056906,14.701847 124.056906,14.8865435 L124.056906,19.9841689 C124.056906,20.0949868 123.983128,20.2796834 123.94624,20.3166227 C122.987132,22.0897098 121.032027,23.1978892 118.966257,23.1978892 Z M106.092079,27.5567282 L106.092079,7.3878628 L101.112096,7.3878628 L101.112096,27.5567282 L106.092079,27.5567282 Z M103.620532,5.83641161 C105.206749,5.83641161 106.497855,4.50659631 106.497855,2.9182058 C106.497855,1.29287599 105.206749,0 103.620532,0 C102.034315,0 100.743208,1.29287599 100.743208,2.9182058 C100.743208,4.54353562 102.034315,5.83641161 103.620532,5.83641161 Z M88.3485845,27.9630607 C94.1770089,27.9630607 98.8987704,23.2717678 98.8987704,17.4353562 C98.8987704,11.6358839 94.1770089,6.98153034 88.3485845,6.98153034 C82.5570489,6.98153034 77.8352874,11.6358839 77.8352874,17.4353562 C77.7983986,23.2717678 82.5201601,27.9630607 88.3485845,27.9630607 Z M88.3485845,22.939314 C85.323706,22.939314 82.852159,20.4643799 82.852159,17.4353562 C82.852159,14.4063325 85.323706,11.9313984 88.3485845,11.9313984 C91.4103517,11.9313984 93.84501,14.4063325 93.84501,17.4353562 C93.84501,20.4643799 91.4103517,22.939314 88.3485845,22.939314 Z M72.5970832,27.5567282 L72.5970832,16.7704485 C72.5970832,13.5936675 74.2570775,11.8944591 77.4663998,11.8944591 L77.4663998,6.98153034 C71.0477552,6.98153034 67.6171004,10.3799472 67.6171004,16.8073879 L67.6171004,27.5936675 L72.5970832,27.5936675 L72.5970832,27.5567282 Z M64.9611095,27.5567282 L64.9611095,1.3298153 L59.9811267,1.3298153 L59.9811267,9.08707124 C58.5793537,7.72031662 56.6980269,6.94459103 54.3740349,6.94459103 C48.6562768,6.94459103 44.3402917,11.6358839 44.3402917,17.4722955 C44.3402917,23.3087071 48.6562768,28 54.3740349,28 C56.6980269,28 58.6162425,27.2242744 59.9811267,25.8575198 L59.9811267,27.5936675 L64.9611095,27.5936675 L64.9611095,27.5567282 Z M54.9273663,23.1978892 C51.8655991,23.1978892 49.394052,20.6490765 49.394052,17.4353562 C49.394052,14.2955145 51.8655991,11.7097625 54.9273663,11.7097625 C56.9562482,11.7097625 58.9113526,12.707124 59.8704604,14.4063325 C59.9442379,14.5171504 60.0180154,14.701847 60.0180154,14.8865435 L60.0180154,19.9841689 C60.0180154,20.0949868 59.9442379,20.2796834 59.9073492,20.353562 C58.9482413,22.0897098 57.0300257,23.1978892 54.9273663,23.1978892 Z M42.274521,27.5567282 L42.274521,16.6596306 C42.274521,11.3034301 38.1060909,6.98153034 32.7941092,6.98153034 C27.4452388,6.98153034 23.3136975,11.2664908 23.3136975,16.6596306 L23.3136975,27.5936675 L28.2936803,27.5936675 L28.2936803,16.6596306 C28.2936803,14 30.1381184,12.005277 32.7941092,12.005277 C35.4501001,12.005277 37.2945382,14.0369393 37.2945382,16.6596306 L37.2945382,27.5936675 L42.274521,27.5936675 L42.274521,27.5567282 Z M20.6208178,27.5567282 L20.6208178,7.3878628 L15.6777238,7.3878628 L15.6777238,9.08707124 C14.2759508,7.72031662 12.394624,6.98153034 10.070632,6.98153034 C4.31598513,6.98153034 0,11.6358839 0,17.4353562 C0,23.2717678 4.31598513,27.9630607 10.0337432,27.9630607 C12.3577352,27.9630607 14.2759508,27.1873351 15.640835,25.8205805 L15.640835,27.5567282 L20.6208178,27.5567282 Z M10.5870746,23.1978892 C7.52530741,23.1978892 5.05376037,20.6490765 5.05376037,17.4353562 C5.05376037,14.2955145 7.52530741,11.7097625 10.5870746,11.7097625 C12.6159565,11.7097625 14.6448384,12.6701847 15.5301687,14.4063325 C15.6039462,14.5171504 15.6777238,14.701847 15.6777238,14.8865435 L15.6777238,19.9841689 C15.6777238,20.0949868 15.6039462,20.3166227 15.5670575,20.353562 C14.6079497,22.0897098 12.6897341,23.1978892 10.5870746,23.1978892 Z" id="Shape"></path>
                <path d="M141.761833,28.8945815 L141.761833,25.3355441 L141.356875,25.3355441 C138.558978,25.3355441 136.607814,23.6844443 136.607814,20.8959202 L136.607814,11.9065989 L141.65139,11.9065989 L141.65139,8.60439928 L136.607814,8.60439928 L136.607814,2.58705771 L133,2.58705771 L133,20.859229 C133,25.9226018 136.276484,28.8945815 141.356875,28.8945815 L141.761833,28.8945815 Z M147.909842,2.58705771 L144.302029,2.58705771 L144.302029,28.6377437 L147.909842,28.6377437 L147.909842,15.3188719 C148.867017,13.2274788 151.039068,11.7598345 153.616078,11.7598345 C156.561232,11.7598345 158.880541,14.0346831 158.880541,17.0066628 L158.880541,28.6377437 L162.488355,28.6377437 L162.488355,16.7865162 C162.488355,12.0533633 158.880541,8.2007971 154.352367,8.2007971 C151.848986,8.2007971 149.603306,9.11807477 147.946657,10.8425568 L147.946657,2.58705771 L147.909842,2.58705771 Z M169.888054,28.6377437 L169.888054,8.60439928 L166.243426,8.60439928 L166.243426,28.6377437 L169.888054,28.6377437 Z M168.084147,6.43962396 C169.299023,6.43962396 170.293013,5.44896407 170.293013,4.23815753 C170.293013,3.027351 169.299023,2 168.084147,2 C166.869271,2 165.912096,2.99065989 165.912096,4.23815753 C165.912096,5.48565517 166.869271,6.43962396 168.084147,6.43962396 Z M192.344853,28.6377437 L192.344853,17.6304116 C192.344853,12.2368189 188.148009,8.2007971 182.883546,8.2007971 C177.619083,8.2007971 173.459053,12.2368189 173.459053,17.6304116 L173.459053,28.6377437 L177.066867,28.6377437 L177.066867,17.6304116 C177.066867,14.2181387 179.607062,11.8332167 182.883546,11.8332167 C186.196844,11.8332167 188.73704,14.2548298 188.73704,17.6304116 L188.73704,28.6377437 L192.344853,28.6377437 Z M205.229902,25.5556908 C201.438017,25.5556908 198.382419,22.4369466 198.382419,18.5843804 C198.382419,14.7685053 201.438017,11.6864523 205.229902,11.6864523 C207.62284,11.6864523 209.942149,12.8238766 211.046582,14.7685053 C211.12021,14.8785786 211.230654,15.0987252 211.230654,15.355563 L211.230654,21.8131978 C211.230654,22.0700356 211.12021,22.3268733 211.046582,22.4002555 C209.831705,24.3081931 207.62284,25.5556908 205.229902,25.5556908 Z M196.836213,35.6824363 C200.259955,37.4803006 202.211119,38.0673583 205.37716,37.9939761 C211.046582,37.8472116 214.838467,34.0313365 214.838467,28.8945815 L214.838467,8.60439928 L211.230654,8.60439928 L211.230654,10.7324835 C209.647633,9.15476588 207.181067,8.60439928 204.7145,8.60439928 C199.192337,8.60439928 194.885049,13.0807143 194.885049,18.6210715 C194.885049,24.1981198 199.192337,28.711126 204.7145,28.711126 C207.181067,28.711126 209.647633,28.1240682 211.230654,26.5830417 L211.230654,28.9312726 C211.230654,32.0500167 208.87453,34.3248653 205.009016,34.5083209 C202.689707,34.6183942 201.033058,33.9946454 198.492863,32.6003833 L196.836213,35.6824363 Z M230.263711,9.59505917 C228.570248,8.7144726 226.435011,8.2007971 224.410218,8.2007971 C220.691961,8.2007971 217.305034,10.8058657 217.305034,14.4382853 C217.305034,17.6671027 219.955672,19.134747 222.974455,19.7218047 C225.072878,20.1254069 227.613073,21.0059935 227.613073,22.8772399 C227.613073,24.6384131 225.809166,25.9226018 223.637115,25.9226018 C221.870023,25.9226018 220.029301,25.3355441 218.446281,24.7117953 L217.820436,27.8305394 C219.550714,28.5276704 221.759579,29.0413459 223.710744,29.0413459 C227.907588,29.0413459 231,26.326204 231,22.6937844 C231,19.4282759 228.496619,17.8505583 225.330579,17.2268094 C223.637115,16.8965895 220.76559,16.2728407 220.76559,14.3649031 C220.76559,12.7504944 222.459053,11.246159 224.373403,11.246159 C226.066867,11.246159 227.870774,11.7231434 229.306536,12.4936566 L230.263711,9.59505917 Z" id="Shape"></path>
            </g>
        </g>
    </g>
</svg>