<?xml version="1.0" encoding="UTF-8"?>
<svg width="139px" height="46px" viewBox="0 0 139 46" version="1.1" xmlns="http://www.w3.org/2000/svg" xmlns:xlink="http://www.w3.org/1999/xlink">
    <!-- Generator: Sketch 49.3 (51167) - http://www.bohemiancoding.com/sketch -->
    <title>google-logo</title>
    <desc>Created with Sketch.</desc>
    <defs></defs>
    <g id="3.-High-level-wireframes" stroke="none" stroke-width="1" fill="none" fill-rule="evenodd">
        <g id="2.1-Project-site---vision" transform="translate(-353.000000, -5995.000000)" fill="#363636" fill-rule="nonzero">
            <g id="google-logo" transform="translate(353.000000, 5995.000000)">
                <path d="M33.7102763,16.3864342 L17.7103093,16.3864342 L17.7103093,21.2865186 L29.0574668,21.2865186 C28.4969001,28.157753 22.957955,31.0880503 17.7294946,31.0880503 C11.0402291,31.0880503 5.20320035,25.6561093 5.20320035,18.0425227 C5.20320035,10.6258029 10.7674179,4.91385639 17.74427,4.91385639 C23.1269831,4.91385639 26.2987509,8.45533974 26.2987509,8.45533974 L29.6230309,4.90241898 C29.6230309,4.90241898 25.3562341,0 17.5743621,0 C7.66601485,0 0,8.63177532 0,17.9552065 C0,27.0910963 7.21122352,36 17.8273758,36 C27.1648748,36 34,29.3982261 34,19.6363627 C34,17.5767932 33.7102763,16.3864342 33.7102763,16.3864342 Z" id="path2998"></path>
                <path d="M47.510607,13 C40.8053562,13 36,18.2650166 36,24.4056383 C36,30.6370525 40.6609203,36 47.5894059,36 C53.8615651,36 59,31.185133 59,24.5395722 C59,16.9228183 53.0228048,13 47.510607,13 Z M47.5772828,17.5172053 C50.8747563,17.5172053 53.9993408,20.1946678 53.9993408,24.509132 C53.9993408,28.7320675 50.8878915,31.4858401 47.5621289,31.4858401 C43.9077622,31.4858401 41.0249054,28.5462882 41.0249054,24.4756493 C41.0249054,20.4923097 43.8720167,17.5172053 47.5772828,17.5172053 Z" id="path3000"></path>
                <path d="M72.5106077,13 C65.8053551,13 61,18.2650166 61,24.4056383 C61,30.6370525 65.6609206,36 72.5894052,36 C78.8615648,36 84,31.185133 84,24.5395722 C84,16.9228183 78.0228044,13 72.5106077,13 Z M72.5772821,17.5172053 C75.8747558,17.5172053 78.9993405,20.1946678 78.9993405,24.509132 C78.9993405,28.7320675 75.8878924,31.4858401 72.5621296,31.4858401 C68.9077613,31.4858401 66.0249043,28.5462882 66.0249043,24.4756493 C66.0249043,20.4923097 68.8720157,17.5172053 72.5772821,17.5172053 Z" id="path3005"></path>
                <path d="M97.0091111,13 C90.8450468,13 86,18.3578715 86,24.3715195 C86,31.2216239 91.6171453,35.7641258 96.9028694,35.7641258 C100.171186,35.7641258 101.90906,34.4766065 103.192053,32.9988128 L103.192053,35.2429946 C103.192053,39.1694414 100.789779,41.5206749 97.1639079,41.5206749 C93.6611188,41.5206749 91.9041434,38.9358453 91.293599,37.4691007 L86.8863135,39.2975812 C88.4498518,42.5784144 91.597178,46 97.2003313,46 C103.3289,46 108,42.1689664 108,34.1344595 L108,13.6837966 L103.192053,13.6837966 L103.192053,15.6116834 C101.714722,14.0308077 99.6931405,13 97.0091111,13 Z M97.4552976,17.4612507 C100.477419,17.4612507 103.580574,20.0221456 103.580574,24.3956187 C103.580574,28.8408739 100.484033,31.2908255 97.3885217,31.2908255 C94.1023324,31.2908255 91.044702,28.6427243 91.044702,24.4377909 C91.044702,20.068488 94.2203366,17.4612507 97.4552976,17.4612507 Z" id="path3007"></path>
                <path d="M128.680334,13 C122.874626,13 118,17.634307 118,24.4726342 C118,31.7084816 123.433523,36 129.237991,36 C134.08256,36 137.055902,33.3409517 138.830291,30.9584879 L134.872129,28.3161036 C133.845015,29.9153514 132.127912,31.4784514 129.262236,31.4784514 C126.043259,31.4784514 124.56321,29.7100217 123.646267,27.996827 L139,21.6052352 L138.202917,19.7321526 C136.719078,16.0639397 133.25885,13 128.680334,13 Z M128.880353,17.4181657 C130.972381,17.4181657 132.477956,18.5340901 133.117341,19.8720264 L122.864336,24.1716025 C122.422304,20.8428322 125.565518,17.4181657 128.880353,17.4181657 Z" id="path3011"></path>
                <polygon id="path3015" points="111 35 116 35 116 1 111 1"></polygon>
            </g>
        </g>
    </g>
</svg>