<?xml version="1.0" encoding="UTF-8"?>
<svg width="120px" height="42px" viewBox="0 0 120 42" version="1.1" xmlns="http://www.w3.org/2000/svg" xmlns:xlink="http://www.w3.org/1999/xlink">
    <!-- Generator: Sketch 49.3 (51167) - http://www.bohemiancoding.com/sketch -->
    <title>io-logo</title>
    <desc>Created with Sketch.</desc>
    <defs>
        <polygon id="path-1" points="0 42 120 42 120 0 0 0"></polygon>
    </defs>
    <g id="3.-High-level-wireframes" stroke="none" stroke-width="1" fill="none" fill-rule="evenodd">
        <g id="2.1-Project-site---vision" transform="translate(-954.000000, -5997.000000)">
            <g id="io-logo" transform="translate(954.000000, 5997.000000)">
                <path d="M59.4783251,20.2352667 C55.0191416,20.2402424 51.434713,23.7153472 51.4388758,28.0294087 C51.4430386,32.2725666 55.0792864,35.7682653 59.4819137,35.7619074 C63.9822943,35.7554114 67.6041877,32.2771276 67.6094988,27.9568466 C67.6143793,23.7089894 63.9512888,20.230291 59.4783251,20.2352667 M72.9999936,27.9884975 C73.0071707,35.17215 67.0186731,40.976016 59.5750735,40.9999269 C52.0820949,41.0238379 45.9925426,35.176711 46.0000069,27.9654158 C46.0073276,20.8189428 52.0526685,15.0092718 59.4915311,15.0000115 C66.9938401,14.9906129 72.9928164,20.7586816 72.9999936,27.9884975" id="Fill-1" fill="#363636"></path>
                <path d="M117.310007,20.01161 C122.972339,27.0636409 119.244361,38.0096407 110.343378,40.4673256 C101.608659,42.8792698 93.1795007,36.8196848 93.0026201,27.955933 C92.9440903,25.0281127 93.8672264,22.3620072 95.6661584,20 C96.8182495,21.4017337 98.1858108,22.5673505 99.7397208,23.5284634 C99.6427449,23.6889053 99.5424695,23.8476686 99.4496538,24.0104885 C96.789128,28.6837267 99.5714475,34.6272116 104.898667,35.5595093 C108.33041,36.1602923 111.176567,35.0773443 113.140903,32.2682818 C115.124893,29.431663 115.057038,26.4583818 113.23874,23.5231479 C114.797527,22.5750439 116.162506,21.4133437 117.310007,20.01161" id="Fill-3" fill="#363636"></path>
                <mask id="mask-2" fill="white">
                    <use xlink:href="#path-1"></use>
                </mask>
                <g id="Clip-6"></g>
                <path d="M8.79465678,32.4947791 L18.1543426,32.4947791 L18.1543426,23.4772837 L8.79465678,23.4772837 L8.79465678,32.4947791 Z M19.5276233,41 L18.1796274,41 L18.1796274,33.8768412 L8.75486195,33.8768412 L8.75486195,40.9579559 L7.33805118,40.9579559 L7.33805118,34.0892746 C7.13275584,34.0076758 6.92803516,33.8565106 6.72216517,33.8551276 C4.48144345,33.8392227 2.24072172,33.8468294 0,33.8480741 L0,32.5365466 L7.32684541,32.5365466 L7.32684541,23.4886246 L0.0064648636,23.4886246 L0.0064648636,22.1274462 L7.36290499,22.1274462 L7.36290499,15 L8.7554366,15 C8.76678603,17.2598714 8.7779918,19.5200194 8.78919756,21.780029 C8.82425149,21.8811286 8.85930541,21.9819515 8.89435934,22.0829127 C8.94579092,22.0854021 8.9972225,22.0880299 9.04865408,22.0905193 C12.0135842,22.0902427 14.9785143,22.0898278 17.9433008,22.0894129 C18.0198735,21.8775327 18.1608075,21.6660674 18.1626751,21.4536339 C18.1804894,19.30399 18.1756049,17.1543462 18.1770415,15.004564 L19.5404094,15.004564 L19.5404094,22.1198396 L26.9959774,22.1198396 L26.9959774,23.4179517 L19.5919846,23.4179517 L19.5919846,32.5278335 L26.9962647,32.5278335 C26.9975577,32.9531153 26.998707,33.3783971 27,33.8036789 L19.5276233,33.8036789 L19.5276233,41 Z" id="Fill-5" fill="#363636" mask="url(#mask-2)"></path>
                <path d="M100.739611,23.175607 C100.806597,23.2381698 100.86225,23.3225536 100.942002,23.3601189 C104.752563,25.1477856 108.537736,25.1694685 112.291927,23.2003283 C113.979326,22.3894977 115.302107,21.1822979 116.383913,19.7128314 C117.695362,17.9740549 118.455294,16.0166538 118.56818,13.8884134 C118.822064,9.10228937 116.831294,5.32863327 112.528025,2.93633086 C108.194777,0.527317411 103.764709,0.736688756 99.6129094,3.44083846 C94.0174111,7.0849495 92.6580536,14.7329423 96.6179336,19.6970871 C97.6846786,21.1937608 98.999427,22.4185003 100.739611,23.175607 M99.7404253,24.3107146 C98.1868534,23.3617762 96.8194634,22.2110625 95.6675165,20.8269466 C94.2101912,18.807397 93.2708188,16.6101028 93.0497815,14.1324498 C92.5514795,8.54916784 95.8324697,3.23823439 101.168776,1.05737495 C110.31464,-2.68051125 120.354838,3.9674433 119.990363,13.5286427 C119.887518,16.2275443 118.923905,18.6470539 117.308941,20.8384096 C116.161298,22.2223873 114.79649,23.3693722 113.237897,24.3056046 C111.004575,25.4462365 108.644167,26.0591587 106.095712,25.995491 C103.825096,25.9387287 101.737506,25.2959752 99.7404253,24.3107146" id="Fill-7" fill="#363636" mask="url(#mask-2)"></path>
                <polygon id="Fill-8" fill="#363636" mask="url(#mask-2)" points="75 42 91 42 91 37 75 37"></polygon>
                <path d="M80.0809701,10 L85,10 L85,22.9993194 C83.4211503,22.9993194 81.8592632,23.0045653 80.2976411,22.9859286 C80.206202,22.9849622 80.1170156,22.7914164 80.0270342,22.687465 C80.0381659,22.2531604 80.0596342,21.8185797 80.0587066,21.384275 C80.0506228,17.7632293 80.0382984,14.1423217 80.0272992,10.521276 C80.0181553,10.446591 80.0091439,10.3717681 80,10.2969451 C80.0270342,10.1979634 80.0540684,10.0989817 80.0809701,10" id="Fill-9" fill="#363636" mask="url(#mask-2)"></path>
                <path d="M75,9.99298131 L75,5.05085419 C78.032387,4.72962731 79.7097154,3.04609851 80.0662464,0.000401700977 C81.7062354,0.000401700977 83.3424771,0.000401700977 84.9788526,0 C85.354254,4.94574243 80.6809412,10.2190051 75,9.99298131" id="Fill-10" fill="#363636" mask="url(#mask-2)"></path>
                <path d="M35.0197055,15.999893 C32.8115288,16.0158645 31.0169436,14.2425956 31.0001229,12.0277761 C30.9830195,9.82256786 32.7538578,8.02597755 34.9695261,8.00025342 C37.1488673,7.975236 39.0042333,9.80588958 38.9999927,11.9771759 C38.9956109,14.1925607 37.2232176,15.9839214 35.0197055,15.999893" id="Fill-11" fill="#363636" mask="url(#mask-2)"></path>
                <path d="M82.5009813,33.9905901 C81.8705086,33.9912095 81.2392522,33.9707691 80.6096939,33.9984875 C80.2060973,34.0161405 80.0352545,33.8838977 80.0202339,33.3569395 C79.9530984,31.0092426 79.9397758,31.009862 81.899113,31.009862 C82.7470576,31.009862 83.5956553,31.0321605 84.4426856,31.0008806 C84.8773682,30.9850858 85.0199985,31.1806627 84.9977941,31.676341 C84.9715408,32.2675623 84.9810756,32.8620355 84.993092,33.4544957 C85.0011901,33.8549405 84.8525516,34.002049 84.5230131,33.9946162 C83.8493072,33.9792859 83.1750789,33.9899707 82.5009813,33.9905901" id="Fill-12" fill="#363636" mask="url(#mask-2)"></path>
                <polygon id="Fill-13" fill="#363636" mask="url(#mask-2)" points="80 29 85 29 85 26 80 26"></polygon>
                <path d="M38.507539,35.9999982 C37.6748937,36.0012566 37.0025302,35.3413678 37.0000061,34.5204001 C36.9976397,33.710129 37.6835704,33.0077682 38.4846641,33.0000603 C39.2808674,32.9925097 39.9920393,33.6948705 39.9999272,34.4966472 C40.0081306,35.3078621 39.3220422,35.9987398 38.507539,35.9999982" id="Fill-14" fill="#363636" mask="url(#mask-2)"></path>
                <path d="M33.999256,29.5369057 C33.9739137,30.3686502 33.2834955,31.0247007 32.4605056,30.9992858 C31.6528794,30.9741867 30.9710142,30.2482059 31.0009497,29.4450334 C31.0323108,28.6124996 31.7146512,27.9768126 32.5517377,28.0006489 C33.3918337,28.0244852 34.0247566,28.6963213 33.999256,29.5369057" id="Fill-15" fill="#363636" mask="url(#mask-2)"></path>
                <path d="M39.9998417,18.5065135 C39.9878564,19.3326152 39.300278,20.0108081 38.4860654,19.9998695 C37.6593943,19.9887724 36.9937364,19.3102625 37.0000445,18.4851119 C37.0061948,17.6485472 37.6754798,16.9882683 38.5051472,17.0001581 C39.3415958,17.0122064 40.011827,17.6877042 39.9998417,18.5065135" id="Fill-16" fill="#363636" mask="url(#mask-2)"></path>
                <path d="M33.9998104,18.518332 C33.9871365,19.3608965 33.3304699,20.0028429 32.4848037,19.9999905 C31.6670202,19.9969797 30.992927,19.3041656 31.000056,18.4742784 C31.0071851,17.6535821 31.6937938,16.9923028 32.5309051,17.0000677 C33.3726106,17.0076741 34.0126427,17.6692703 33.9998104,18.518332" id="Fill-17" fill="#363636" mask="url(#mask-2)"></path>
                <path d="M39.9999987,24.4982664 C39.9988949,25.3164879 39.3151684,26.0020461 38.5022971,25.9999954 C37.6703458,25.997787 37.0045956,25.3374679 37.0000227,24.5099395 C36.9954498,23.6945574 37.6832761,22.9973261 38.4895246,23.0000077 C39.2934078,23.0026894 40.0011025,23.7048108 39.9999987,24.4982664" id="Fill-18" fill="#363636" mask="url(#mask-2)"></path>
                <path d="M33.9995348,24.5465142 C33.9794299,25.3761457 33.2964955,26.0225892 32.4645948,25.9993949 C31.6393429,25.9763584 30.985062,25.2884175 31.0002595,24.4598905 C31.0148237,23.6622893 31.7474662,22.9722972 32.5492888,23.0008562 C33.3756488,23.0303619 34.019798,23.7167249 33.9995348,24.5465142" id="Fill-19" fill="#363636" mask="url(#mask-2)"></path>
                <path d="M32.5982391,33.0033574 C33.4115935,33.0617383 34.0398069,33.780248 33.9980315,34.6037174 C33.9562561,35.4257705 33.2435424,36.0525388 32.4145223,35.9965184 C31.5739506,35.9393964 30.9485856,35.2413436 31.0033367,34.4207067 C31.0569801,33.6147043 31.808779,32.9467075 32.5982391,33.0033574" id="Fill-20" fill="#363636" mask="url(#mask-2)"></path>
                <path d="M38.5059813,31 C37.6964411,30.9996842 37.0026843,30.3078275 37.0000099,29.4981878 C36.9970209,28.6773382 37.6700122,28.0026911 38.4940254,28.0000071 C39.3152069,27.9974809 39.9982663,28.6727595 39.9999968,29.4883989 C40.0017272,30.2985122 39.3081278,31.0001579 38.5059813,31" id="Fill-21" fill="#363636" mask="url(#mask-2)"></path>
                <path d="M33.9998242,40.4745631 C34.0123283,41.307515 33.3562578,41.9880169 32.5290866,41.9998531 C31.7171103,42.0115314 31.0095987,41.325506 31.0001019,40.5173312 C30.9904468,39.7014233 31.6680435,39.0089275 32.4846099,39.0000898 C33.3246018,38.9912521 33.9873201,39.6359298 33.9998242,40.4745631" id="Fill-22" fill="#363636" mask="url(#mask-2)"></path>
                <path d="M39.9999492,40.5140155 C39.9933365,41.320137 39.2867236,42.0107601 38.4798182,41.999873 C37.6729128,41.9889859 36.9883422,41.2852666 37.0001505,40.4786718 C37.0122738,39.6562985 37.693853,38.9920253 38.5168177,39.0000723 C39.3361613,39.0084349 40.0067193,39.6927467 39.9999492,40.5140155" id="Fill-23" fill="#363636" mask="url(#mask-2)"></path>
                <path d="M113.853479,16.7857169 C114.902368,17.6341357 115.951111,18.4825546 117,19.3316995 C115.905394,20.8780815 114.566816,22.1473696 112.859597,23 C109.698417,19.6597684 104.200714,19.6475693 101.170446,22.9740043 C99.4096718,22.1778673 98.0793669,20.8901354 97,19.3165959 C98.0435186,18.4770359 99.0871824,17.6370403 100.130556,16.7970446 L101.399759,16.1218821 C103.045877,15.7479214 104.691995,15.3739607 106.337968,15 C106.773517,15.0005809 107.209067,15.001307 107.644616,15.001888 C109.289573,15.3835457 110.934675,15.7653487 112.579632,16.1470065 C113.004151,16.35991 113.428815,16.5728134 113.853479,16.7857169" id="Fill-24" fill="#363636" mask="url(#mask-2)"></path>
                <path d="M113.697616,16.9893195 C113.283239,16.7885812 112.868862,16.587843 112.454627,16.3868308 C114.378944,13.6114118 113.916133,10.044131 111.354107,7.90296825 C108.814739,5.78056486 105.111265,5.79220384 102.614524,7.9303541 C100.088752,10.0934255 99.6348638,13.6753578 101.545585,16.3634159 L100.307128,17 C97.360465,12.5092683 99.6453436,6.84984538 104.662899,5.34211739 C107.832188,4.38977445 111.309214,5.47124168 113.345976,8.01922119 C115.417718,10.6112919 115.552681,14.0546518 113.697616,16.9893195" id="Fill-25" fill="#363636" mask="url(#mask-2)"></path>
                <path d="M106.522554,13.7445369 C107.184545,13.729684 107.73638,13.172835 107.740079,12.516525 C107.743645,11.831305 107.155883,11.2691514 106.461664,11.2938177 C105.793597,11.3174231 105.266329,11.8774549 105.282179,12.5464959 C105.297896,13.2075801 105.869148,13.7592571 106.522554,13.7445369 M105.910885,14.998276 C104.404631,14.302049 103.757036,13.2095693 104.081956,11.9127304 C104.362233,10.7953192 105.409109,9.98225862 106.544875,10.0002942 C107.689624,10.0184624 108.709687,10.8624222 108.943471,11.9847402 C109.185444,13.1455164 108.63625,14.2613363 107.570883,14.7740246 C107.414102,14.8493497 107.25719,14.9245423 107.100145,15 C106.703637,14.9994695 106.307261,14.9988065 105.910885,14.998276" id="Fill-26" fill="#363636" mask="url(#mask-2)"></path>
            </g>
        </g>
    </g>
</svg>