<?xml version="1.0" encoding="UTF-8"?>
<svg width="164px" height="35px" viewBox="0 0 164 35" version="1.1" xmlns="http://www.w3.org/2000/svg" xmlns:xlink="http://www.w3.org/1999/xlink">
    <!-- Generator: Sketch 49.3 (51167) - http://www.bohemiancoding.com/sketch -->
    <title>Lantern</title>
    <desc>Created with Sketch.</desc>
    <defs></defs>
    <g id="3.-High-level-wireframes" stroke="none" stroke-width="1" fill="none" fill-rule="evenodd">
        <g id="2.1-Project-site---vision" transform="translate(-891.000000, -342.000000)" fill="#FFFFFF">
            <path d="M891.384,342.348 L897.729,342.348 L897.729,369.984 L911.97,369.984 L911.97,376 L891.384,376 L891.384,342.348 Z M930.224,373.556 L929.848,373.556 C929.12733,374.433338 928.257838,375.18533 927.2395,375.812 C926.221162,376.43867 924.913008,376.752 923.315,376.752 C922.124327,376.752 921.004172,376.556169 919.9545,376.1645 C918.904828,375.772831 917.988337,375.232337 917.205,374.543 C916.421663,373.853663 915.810669,373.023338 915.372,372.052 C914.933331,371.080662 914.714,370.015339 914.714,368.856 C914.714,367.665327 914.948998,366.592171 915.419,365.6365 C915.889002,364.680829 916.546996,363.858337 917.393,363.169 C918.239004,362.479663 919.233828,361.954835 920.3775,361.5945 C921.521172,361.234165 922.76666,361.054 924.114,361.054 C925.618008,361.054 926.855662,361.171499 927.827,361.4065 C928.798338,361.641501 929.59733,361.884332 930.224,362.135 L930.224,361.43 C930.224,360.207994 929.738338,359.197504 928.767,358.3985 C927.795662,357.599496 926.589341,357.2 925.148,357.2 C923.017323,357.2 921.215674,358.092991 919.743,359.879 L915.278,356.824 C917.722012,353.753318 921.058979,352.218 925.289,352.218 C928.861018,352.218 931.586991,353.056158 933.467,354.7325 C935.347009,356.408842 936.287,358.891984 936.287,362.182 L936.287,376 L930.224,376 L930.224,373.556 Z M930.224,366.647 C929.50333,366.302332 928.759171,366.028168 927.9915,365.8245 C927.22383,365.620832 926.385671,365.519 925.477,365.519 C924.004326,365.519 922.868504,365.840163 922.0695,366.4825 C921.270496,367.124837 920.871,367.915995 920.871,368.856 C920.871,369.796005 921.25483,370.547997 922.0225,371.112 C922.790171,371.676003 923.675328,371.958 924.678,371.958 C925.492671,371.958 926.244663,371.809168 926.934,371.5115 C927.623337,371.213832 928.210831,370.822169 928.6965,370.3365 C929.182169,369.850831 929.558165,369.286837 929.8245,368.6445 C930.090835,368.002163 930.224,367.336337 930.224,366.647 Z M947.256,355.978 L947.632,355.978 C948.35267,354.818661 949.323994,353.90217 950.546,353.2285 C951.768006,352.55483 953.162326,352.218 954.729,352.218 C956.170341,352.218 957.439328,352.452998 958.536,352.923 C959.632672,353.393002 960.533496,354.058829 961.2385,354.9205 C961.943504,355.782171 962.476165,356.816161 962.8365,358.0225 C963.196835,359.228839 963.377,360.568326 963.377,362.041 L963.377,376 L957.22,376 L957.22,362.793 C957.22,361.132325 956.851837,359.902504 956.1155,359.1035 C955.379163,358.304496 954.306007,357.905 952.896,357.905 C952.049996,357.905 951.305837,358.085165 950.6635,358.4455 C950.021163,358.805835 949.472836,359.291497 949.0185,359.9025 C948.564164,360.513503 948.219501,361.234163 947.9845,362.0645 C947.749499,362.894837 947.632,363.779995 947.632,364.72 L947.632,376 L941.475,376 L941.475,352.97 L947.256,352.97 L947.256,355.978 Z M970.116,358.234 L966.074,358.234 L966.074,352.97 L970.116,352.97 L970.116,345.92 L976.273,345.92 L976.273,352.97 L981.913,352.97 L981.913,358.234 L976.273,358.234 L976.273,367.164 C976.273,367.696669 976.327833,368.190164 976.4375,368.6445 C976.547167,369.098836 976.758665,369.482665 977.072,369.796 C977.510669,370.297336 978.137329,370.548 978.952,370.548 C979.484669,370.548 979.907665,370.493167 980.221,370.3835 C980.534335,370.273833 980.831999,370.125001 981.114,369.937 L982.853,375.342 C982.13233,375.686668 981.356838,375.945166 980.5265,376.1175 C979.696163,376.289834 978.779672,376.376 977.777,376.376 C976.617661,376.376 975.575838,376.195835 974.6515,375.8355 C973.727162,375.475165 972.95167,374.98167 972.325,374.355 C970.852326,372.944993 970.116,370.93968 970.116,368.339 L970.116,358.234 Z M1008.298,370.454 C1007.23266,372.334009 1005.79918,373.853661 1003.9975,375.013 C1002.19582,376.172339 999.99468,376.752 997.394,376.752 C995.639325,376.752 994.017841,376.446503 992.5295,375.8355 C991.041159,375.224497 989.748672,374.370672 988.652,373.274 C987.555328,372.177328 986.701503,370.884841 986.0905,369.3965 C985.479497,367.908159 985.174,366.271009 985.174,364.485 C985.174,362.824325 985.471664,361.249841 986.067,359.7615 C986.662336,358.273159 987.492661,356.972839 988.558,355.8605 C989.623339,354.748161 990.884493,353.863003 992.3415,353.205 C993.798507,352.546997 995.404325,352.218 997.159,352.218 C999.007676,352.218 1000.65266,352.523497 1002.094,353.1345 C1003.53534,353.745503 1004.74166,354.591495 1005.713,355.6725 C1006.68434,356.753505 1007.42066,358.030326 1007.922,359.503 C1008.42334,360.975674 1008.674,362.573658 1008.674,364.297 L1008.674,364.861 C1008.64267,365.049001 1008.627,365.221333 1008.627,365.378 C1008.59567,365.534667 1008.58,365.706999 1008.58,365.895 L991.237,365.895 C991.362334,366.835005 991.620831,367.64183 992.0125,368.3155 C992.404169,368.98917 992.88983,369.553164 993.4695,370.0075 C994.04917,370.461836 994.683663,370.790832 995.373,370.9945 C996.062337,371.198168 996.76733,371.3 997.488,371.3 C998.898007,371.3 1000.06516,370.978837 1000.9895,370.3365 C1001.91384,369.694163 1002.64233,368.887338 1003.175,367.916 L1008.298,370.454 Z M1002.705,361.524 C1002.67367,361.116665 1002.5405,360.662336 1002.3055,360.161 C1002.0705,359.659664 1001.72584,359.189669 1001.2715,358.751 C1000.81716,358.312331 1000.25317,357.952001 999.5795,357.67 C998.90583,357.387999 998.099005,357.247 997.159,357.247 C995.842993,357.247 994.683672,357.622996 993.681,358.375 C992.678328,359.127004 991.973335,360.17666 991.566,361.524 L1002.705,361.524 Z M1012.922,352.97 L1018.703,352.97 L1018.703,356.166 L1019.079,356.166 C1019.361,355.601997 1019.737,355.085002 1020.207,354.615 C1020.677,354.144998 1021.20183,353.737668 1021.7815,353.393 C1022.36117,353.048332 1022.98783,352.782001 1023.6615,352.594 C1024.33517,352.405999 1025.001,352.312 1025.659,352.312 C1026.47367,352.312 1027.17083,352.390333 1027.7505,352.547 C1028.33017,352.703667 1028.82366,352.907332 1029.231,353.158 L1027.586,358.751 C1027.21,358.562999 1026.79484,358.414167 1026.3405,358.3045 C1025.88616,358.194833 1025.33,358.14 1024.672,358.14 C1023.826,358.14 1023.05834,358.304498 1022.369,358.6335 C1021.67966,358.962502 1021.09217,359.424664 1020.6065,360.02 C1020.12083,360.615336 1019.74483,361.312496 1019.4785,362.1115 C1019.21217,362.910504 1019.079,363.779995 1019.079,364.72 L1019.079,376 L1012.922,376 L1012.922,352.97 Z M1038.132,355.978 L1038.508,355.978 C1039.22867,354.818661 1040.19999,353.90217 1041.422,353.2285 C1042.64401,352.55483 1044.03833,352.218 1045.605,352.218 C1047.04634,352.218 1048.31533,352.452998 1049.412,352.923 C1050.50867,353.393002 1051.4095,354.058829 1052.1145,354.9205 C1052.8195,355.782171 1053.35216,356.816161 1053.7125,358.0225 C1054.07284,359.228839 1054.253,360.568326 1054.253,362.041 L1054.253,376 L1048.096,376 L1048.096,362.793 C1048.096,361.132325 1047.72784,359.902504 1046.9915,359.1035 C1046.25516,358.304496 1045.18201,357.905 1043.772,357.905 C1042.926,357.905 1042.18184,358.085165 1041.5395,358.4455 C1040.89716,358.805835 1040.34884,359.291497 1039.8945,359.9025 C1039.44016,360.513503 1039.0955,361.234163 1038.8605,362.0645 C1038.6255,362.894837 1038.508,363.779995 1038.508,364.72 L1038.508,376 L1032.351,376 L1032.351,352.97 L1038.132,352.97 L1038.132,355.978 Z" id="Lantern"></path>
        </g>
    </g>
</svg>