<?xml version="1.0" encoding="UTF-8"?>
<svg width="177px" height="71px" viewBox="0 0 177 71" version="1.1" xmlns="http://www.w3.org/2000/svg" xmlns:xlink="http://www.w3.org/1999/xlink">
    <!-- Generator: Sketch 44.1 (41455) - http://www.bohemiancoding.com/sketch -->
    <title>Page 1</title>
    <desc>Created with Sketch.</desc>
    <defs>
        <polygon id="path-1" points="0.0670192647 0.0450271248 39.657329 0.0450271248 39.657329 39.3083197 0.0670192647 39.3083197 0.0670192647 0.0450271248"></polygon>
        <polygon id="path-3" points="17.3604182 17.5168023 0.077357099 17.5168023 0.077357099 0.376236649 17.3604182 0.376236649 17.3604182 17.5168023"></polygon>
        <polygon id="path-5" points="15.7680321 17.5168023 0.0464334903 17.5168023 0.0464334903 0.376236649 15.7680321 0.376236649"></polygon>
        <polygon id="path-7" points="13.7490082 17.5168023 0.0868858855 17.5168023 0.0868858855 0.401181676 13.7490082 0.401181676"></polygon>
    </defs>
    <g id="Welcome" stroke="none" stroke-width="1" fill="none" fill-rule="evenodd">
        <g id="Mobile-Portrait" transform="translate(-71.000000, -72.000000)">
            <g id="Page-1" transform="translate(71.000000, 72.000000)">
                <polygon id="Fill-1" fill="#ffffff" points="25.8968603 1.03246197 25.8968603 24.873424 8.3450155 1.03246197 0.0522744884 1.03246197 0.0522744884 38.986726 8.11758315 38.986726 8.11758315 14.2335144 26.180926 38.986726 33.962169 38.986726 33.962169 1.03246197"></polygon>
                <g id="Group-28" transform="translate(16.726883, 0.361648)">
                    <g id="Group-4" transform="translate(29.665090, 0.000000)">
                        <mask id="mask-2" fill="white">
                            <use xlink:href="#path-1"></use>
                        </mask>
                        <g id="Clip-3"></g>
                        <path d="M31.3645879,19.6764933 C31.3645879,12.5640087 26.8770689,7.21478626 19.8904908,7.21478626 C12.8463804,7.21478626 8.35976028,12.5640087 8.35976028,19.6764933 C8.35976028,26.7322438 12.8463804,32.1382004 19.8904908,32.1382004 C26.8770689,32.1382004 31.3645879,26.7322438 31.3645879,19.6764933 M0.0670192647,19.6764933 C0.0670192647,8.23960362 8.41729257,0.0446669078 19.8904908,0.0446669078 C31.3079546,0.0446669078 39.657329,8.23960362 39.657329,19.6764933 C39.657329,31.113383 31.3079546,39.3083197 19.8904908,39.3083197 C8.41729257,39.3083197 0.0670192647,31.113383 0.0670192647,19.6764933" id="Fill-2" fill="#ffffff" mask="url(#mask-2)"></path>
                    </g>
                    <path d="M104.029675,12.8476796 C104.029675,9.71829439 101.587249,7.78392911 98.405893,7.78392911 L89.8866186,7.78392911 L89.8866186,18.0257989 L98.405893,18.0257989 C101.587249,18.0257989 104.029675,16.0914336 104.029675,12.8476796 L104.029675,12.8476796 Z M103.234111,38.624808 L95.7935672,25.1382835 L89.8866186,25.1382835 L89.8866186,38.624808 L81.820411,38.624808 L81.820411,0.671444485 L99.5421559,0.671444485 C107.437564,0.671444485 112.322416,5.84956383 112.322416,12.9044137 C112.322416,19.563025 108.062329,23.2039183 103.973042,24.1711009 L112.550747,38.624808 L103.234111,38.624808 Z" id="Fill-5" fill="#ffffff"></path>
                    <path d="M151.970348,19.6193089 C151.970348,12.9615982 147.880161,7.78347884 140.155552,7.78347884 L133.225607,7.78347884 L133.225607,31.5118731 L140.098918,31.5118731 C147.596994,31.5118731 151.970348,26.1059165 151.970348,19.6193089 L151.970348,19.6193089 Z M125.160298,38.6243577 L125.160298,0.670994213 L140.098918,0.670994213 C151.970348,0.670994213 160.206455,8.23915335 160.206455,19.6193089 C160.206455,31.1138333 151.970348,38.6243577 140.155552,38.6243577 L125.160298,38.6243577 Z" id="Fill-7" fill="#ffffff"></path>
                    <path d="M10.031433,58.7163613 C10.031433,57.3250231 8.96528769,56.4812148 7.57732106,56.4812148 L3.85749859,56.4812148 L3.85749859,60.9262926 L7.57732106,60.9262926 C8.96528769,60.9262926 10.031433,60.0824843 10.031433,58.7163613 L10.031433,58.7163613 Z M0.33544338,69.9443251 L0.33544338,53.3743432 L8.07173922,53.3743432 C11.6675077,53.3743432 13.6272015,55.8094101 13.6272015,58.7163613 C13.6272015,61.5980973 11.6432362,64.0322637 8.07173922,64.0322637 L3.85749859,64.0322637 L3.85749859,69.9443251 L0.33544338,69.9443251 Z" id="Fill-9" fill="#ffffff"></path>
                    <path d="M28.5045137,58.6908759 C28.5045137,57.324753 27.4383684,56.4809447 26.0504017,56.4809447 L22.3305793,56.4809447 L22.3305793,60.9521382 L26.0504017,60.9521382 C27.4383684,60.9521382 28.5045137,60.1065288 28.5045137,58.6908759 L28.5045137,58.6908759 Z M28.1566231,69.944055 L24.9087453,64.0572087 L22.3305793,64.0572087 L22.3305793,69.944055 L18.8085241,69.944055 L18.8085241,53.3749736 L26.5448199,53.3749736 C29.9922629,53.3749736 32.1245536,55.6353353 32.1245536,58.7160911 C32.1245536,61.6221418 30.2655413,63.2124998 28.4802423,63.6348542 L32.2243362,69.944055 L28.1566231,69.944055 Z" id="Fill-11" fill="#ffffff"></path>
                    <g id="Group-15" transform="translate(36.856627, 52.725512)">
                        <mask id="mask-4" fill="white">
                            <use xlink:href="#path-3"></use>
                        </mask>
                        <g id="Clip-14"></g>
                        <path d="M13.7403783,8.94669958 C13.7403783,5.84162905 11.7806845,3.50562182 8.73147284,3.50562182 C5.65619187,3.50562182 3.697397,5.84162905 3.697397,8.94669958 C3.697397,12.0265549 5.65619187,14.3868768 8.73147284,14.3868768 C11.7806845,14.3868768 13.7403783,12.0265549 13.7403783,8.94669958 M0.077357099,8.94669958 C0.077357099,3.95409198 3.72256738,0.376236649 8.73147284,0.376236649 C13.7161069,0.376236649 17.3604182,3.95409198 17.3604182,8.94669958 C17.3604182,13.9402077 13.7161069,17.5171625 8.73147284,17.5171625 C3.72256738,17.5171625 0.077357099,13.9402077 0.077357099,8.94669958" id="Fill-13" fill="#ffffff" mask="url(#mask-4)"></path>
                    </g>
                    <path d="M57.6884897,68.6030571 L59.2247818,65.920341 C59.8702222,66.5417154 60.7134299,67.1126593 61.8541875,67.1126593 C63.4165489,67.1126593 64.4332524,66.0437154 64.4332524,64.4551584 L64.4332524,53.3748835 L67.9786801,53.3748835 L67.9786801,64.5037877 C67.9786801,68.4040373 65.5236692,70.2420445 62.1517373,70.2420445 C60.4653219,70.2420445 58.8786891,69.7710608 57.6884897,68.6030571" id="Fill-16" fill="#ffffff"></path>
                    <polygon id="Fill-18" fill="#ffffff" points="74.2021462 69.944145 74.2021462 53.3750637 85.9072715 53.3750637 85.9072715 56.4810347 77.7233025 56.4810347 77.7233025 59.9580293 85.7328768 59.9580293 85.7328768 63.0630998 77.7233025 63.0630998 77.7233025 66.8390745 85.9072715 66.8390745 85.9072715 69.944145"></polygon>
                    <g id="Group-22" transform="translate(90.793154, 52.725512)">
                        <mask id="mask-6" fill="white">
                            <use xlink:href="#path-5"></use>
                        </mask>
                        <g id="Clip-21"></g>
                        <path d="M0.0464334903,8.94669958 C0.0464334903,3.82891658 3.89030998,0.376236649 8.87404506,0.376236649 C12.4949839,0.376236649 14.6021042,2.33941929 15.7680321,4.42507571 L12.742193,5.91637408 C12.0491086,4.57546631 10.5604605,3.50562182 8.87404506,3.50562182 C5.84910484,3.50562182 3.66647339,5.81641386 3.66647339,8.94669958 C3.66647339,12.0760847 5.84910484,14.3868768 8.87404506,14.3868768 C10.5604605,14.3868768 12.0491086,13.3179329 12.742193,11.9770251 L15.7680321,13.4422077 C14.6021042,15.50445 12.4949839,17.5171625 8.87404506,17.5171625 C3.89030998,17.5171625 0.0464334903,14.0392674 0.0464334903,8.94669958" id="Fill-20" fill="#ffffff" mask="url(#mask-6)"></path>
                    </g>
                    <polygon id="Fill-23" fill="#ffffff" points="115.462241 69.944145 115.462241 56.4810347 110.626831 56.4810347 110.626831 53.3750637 123.818807 53.3750637 123.818807 56.4810347 119.007669 56.4810347 119.007669 69.944145"></polygon>
                    <g id="Group-27" transform="translate(127.649780, 52.725512)">
                        <mask id="mask-8" fill="white">
                            <use xlink:href="#path-7"></use>
                        </mask>
                        <g id="Clip-26"></g>
                        <path d="M0.0868858855,14.8837061 L2.01961143,12.126245 C3.18553936,13.3437784 4.99600878,14.3866066 7.27752387,14.3866066 C9.23721768,14.3866066 10.1532397,13.5166826 10.1532397,12.5485994 C10.1532397,9.66686341 0.630745865,11.6786753 0.630745865,5.44421965 C0.630745865,2.68675853 3.01204353,0.401181676 6.90536183,0.401181676 C9.53386857,0.401181676 11.7165,1.1963607 13.3525747,2.71107318 L11.3928809,5.34425943 C10.055255,4.10241133 8.26995596,3.53146739 6.58354055,3.53146739 C5.09489241,3.53146739 4.25168471,4.17715636 4.25168471,5.17135527 C4.25168471,7.7784258 13.7490082,6.01516359 13.7490082,12.20099 C13.7490082,15.232216 11.5672756,17.5168923 7.12829947,17.5168923 C3.92986343,17.5168923 1.6474494,16.4479484 0.0868858855,14.8837061" id="Fill-25" fill="#ffffff" mask="url(#mask-8)"></path>
                    </g>
                </g>
            </g>
        </g>
    </g>
</svg>