<svg id="Layer_1" data-name="Layer 1" xmlns="http://www.w3.org/2000/svg" viewBox="0 0 61.47 61.16"><defs><style>.cls-1{fill:#1d1d1b;}</style></defs><title>Artboard 9</title><path class="cls-1" d="M60.9,37.44l-21-12.11V1.12a1.11,1.11,0,0,0-1.67-1L.6,21.79A1.24,1.24,0,0,0,0,22.84V47.59a1.24,1.24,0,0,0,.61,1.05L22,61a1.24,1.24,0,0,0,1.21,0L60.9,39.37a1.11,1.11,0,0,0,0-1.93ZM2.12,23.36,37.8,2.86v23s0,.06,0,.08L2.12,46.45ZM22.65,58.9l-20-11.54,35.68-20.5.07,0L58.32,38.41ZM31,35.05l-.13.07L10.19,47a.58.58,0,0,0,0,1l11.73,6.77a.7.7,0,0,0,.69,0l7.91-4.55,0,0h0l.12-.06,16.47-9.47.05,0,.05-.09,4.07-2.34h0a.58.58,0,0,0,0-1L39.59,30.49a.69.69,0,0,0-.68,0L31,35Zm-4,3.5,2.88,1.66L26.73,42l-2.88-1.66ZM38,40.2l-3,1.73-3-1.7,3-1.73Zm-1.89-2.32,3.14-1.8,3,1.7L39,39.59Zm-2.18,4.65-3.14,1.8-3-1.7,3.14-1.8Zm-10,2.35,2.86-1.64,3,1.7L26.82,46.6Zm1.89,2.32L22.61,49l-3-1.7,3.14-1.8Zm-3-6.23,2.88,1.66L22.8,44.28l-2.88-1.66Zm-3.92,2.26,2.88,1.66-3.14,1.8L15.72,45Zm-7.42,4.26,3.22-1.85,2.88,1.66-3.22,1.85Zm3.94,2.27,3.22-1.85,3,1.7-3.22,1.85Zm6.88,4L19.4,52.08l3.22-1.85,2.86,1.65Zm7.88-4.52,0,0-.13.07-3.44,2-2.86-1.65L43.22,38.4l2.86,1.65ZM50.07,37.76l-2.93,1.68-2.86-1.65,2.93-1.68Zm-3.93-2.26-2.93,1.68-3-1.7,2.93-1.68Zm-6.89-4,2.88,1.66L39.2,34.86,36.33,33.2Zm-3.88,2.23-.05.09,2.82,1.63L35,37.27l-2.87-1.66Zm-1.44,4.14-3,1.73L28,37.95l3-1.74v0Z"/></svg>