<svg id="Layer_1" data-name="Layer 1" xmlns="http://www.w3.org/2000/svg" viewBox="0 0 49.59 49.59">
    <defs>
        <style>.cls-1{fill:url(#radialGradient)}</style>
        <radialGradient id="radialGradient" cx="75%" cy="0%" r="200%">
          <stop offset="-6%" stop-color="#7FB5FF" />
          <stop offset="102%" stop-color="#5FFFE9" />
        </radialGradient>
    </defs>
    <title>Artboard 8</title>
    <path class="cls-1" d="M15.81,41.45l-.28-.28a.48.48,0,0,0-.08-.1L8.52,34.13l-.1-.08-.28-.28,5.68-5.68,3.84,3.83a.5.5,0,0,0,.71,0l19.7-19.7a.5.5,0,0,0,0-.71L34.22,7.69,39.9,2l7.67,7.67Zm-4.2,1.79L6.35,38l2.3-2.3,5.26,5.26ZM8.92,44.4,5.19,40.67,6,38.59l5,5Zm-2.77,2-.7.15L3,44.13l.15-.69,1.47-1.91L8.06,45Zm-3.9,1.94a.73.73,0,1,1-1-1L2.53,46l1,1Zm31.26-40L37,11.88l-19,19-3.48-3.48Zm15.83.7L40.49.24a.84.84,0,0,0-1.18,0L6.37,33.18a.83.83,0,0,0,0,1.18L7,35l-2,2a.88.88,0,0,0-.18.28L3.61,40.11,1.72,42.57a.84.84,0,0,0-.15.33l-.29,1.32A.84.84,0,0,0,1.5,45l.32.32L.51,46.63A1.73,1.73,0,1,0,3,49.08l1.32-1.32.32.32a.83.83,0,0,0,.77.22L6.69,48A.85.85,0,0,0,7,47.87L9.48,46l2.81-1.14a.81.81,0,0,0,.27-.18l2-2,.62.62a.83.83,0,0,0,1.18,0L49.34,10.28a.83.83,0,0,0,0-1.18Z"/>
</svg>