<svg id="Layer_1" data-name="Layer 1" xmlns="http://www.w3.org/2000/svg" viewBox="0 0 50.93 68.22">
    <defs>
        <style>.cls-1{fill:url(#radialGradient)}</style>
        <radialGradient id="radialGradient" cx="75%" cy="0%" r="200%">
          <stop offset="-6%" stop-color="#7FB5FF" />
          <stop offset="102%" stop-color="#5FFFE9" />
        </radialGradient>
    </defs>
    <title>Artboard 7</title>
    <path class="cls-1" d="M34.3,48.8l14.58-8.42V57.22L34.3,65.64Zm-1,.59V65.64L19.2,57.52ZM17.91,56.78l-.23-.13,0,0V39.21l15.62-9v18l-.11.06h0l-15,8.65Zm-15.86-26,14.58,8.43V56L2.05,47.62ZM17.14,19.1,2.57,10.69,17.15,2.27l14.59,8.42Zm17.16,9.3V12.17l14.06,8.12Zm14.57,10.8L34.3,47.62v-18l14.58-8.42v18ZM33,11.43l.26.15V29L17.66,38V20l15.1-8.71Zm-31,.15L16.63,20V38L2.05,29.6ZM33.54,68.15h0a.46.46,0,0,0,.46,0h0l16.63-9.6,0,0,.08-.07.05-.08,0-.09a.44.44,0,0,0,0-.1.3.3,0,0,0,0-.06V19.7s0,0,0,0,0,0,0-.06a.34.34,0,0,0,0-.07l0-.06v0l0,0,0-.05-.05-.05-.06,0,0,0L34,9.66h0L17.4.06l-.06,0-.1,0H17l-.1,0-.06,0L.26,9.66l0,0-.05,0-.05.05,0,.05,0,0s0,0,0,0a.18.18,0,0,0,0,.06A.44.44,0,0,0,0,10a.35.35,0,0,0,0,.06s0,0,0,0V48.5s0,0,0,.06a.48.48,0,0,0,0,.1.36.36,0,0,0,0,.09l.05.08.08.07,0,0,16.39,9.46h0l.23.13,16.64,9.6h0Z"/>
</svg>