<?xml version="1.0" encoding="UTF-8"?>
<svg width="245px" height="41px" viewBox="0 0 245 41" version="1.1" xmlns="http://www.w3.org/2000/svg" xmlns:xlink="http://www.w3.org/1999/xlink">
    <!-- Generator: Sketch 49.3 (51167) - http://www.bohemiancoding.com/sketch -->
    <title>nav-logo</title>
    <desc>Created with Sketch.</desc>
    <defs></defs>
    <g id="3.-High-level-wireframes" stroke="none" stroke-width="1" fill="none" fill-rule="evenodd">
        <g id="2.1-Project-site---vision" transform="translate(-45.000000, -26.000000)">
            <g id="nav-logo" transform="translate(47.000000, 28.000000)">
                <g id="Group-4">
                    <g id="Page-1">
                        <path d="M15.2099792,12.3430353 C6.80973248,12.3430353 0,20.4892292 0,28.3393252 C0,31.2430337 4.50894924,33.6990921 10.7146098,34.5135135 L10.7146098,29.5799203 C10.7146098,27.0771015 12.7471539,25.0481307 15.2543806,25.0481307 C17.7617598,25.0481307 19.7943039,27.0771015 19.7943039,29.5799203 L19.7943039,34.5014807 C25.9538847,33.6753312 30.4199584,31.2290208 30.4199584,28.3393252 C30.4199584,20.4892292 23.6102259,12.3430353 15.2099792,12.3430353" id="Fill-1" fill="#FFFFFF"></path>
                        <path d="M15.2099792,12.3430353 C6.80973248,12.3430353 0,20.4892292 0,28.3393252 C0,31.2430337 4.50894924,33.6990921 10.7146098,34.5135135 L10.7146098,29.5799203 C10.7146098,27.0771015 12.7471539,25.0481307 15.2543806,25.0481307 C17.7617598,25.0481307 19.7943039,27.0771015 19.7943039,29.5799203 L19.7943039,34.5014807 C25.9538847,33.6753312 30.4199584,31.2290208 30.4199584,28.3393252 C30.4199584,20.4892292 23.6102259,12.3430353 15.2099792,12.3430353 Z" id="Stroke-3" stroke="#000000" stroke-width="3.5" stroke-linecap="round" stroke-linejoin="round"></path>
                        <polygon id="Stroke-7" stroke="#000000" stroke-width="3.5" stroke-linecap="round" stroke-linejoin="round" points="22.7338877 4.64033264 15 0 15 9.28066528"></polygon>
                    </g>
                </g>
                <rect id="Rectangle-6" fill="#000000" x="13" y="0" width="4" height="18" rx="2"></rect>
                <path d="M66.52,24.86 L66.52,11 L70.42,11 L70.42,32 L66.31,32 L58.6,18.14 L58.6,32 L54.7,32 L54.7,11 L58.81,11 L66.52,24.86 Z M76.48,30.05 C75.0999931,28.5899927 74.41,26.7200114 74.41,24.44 C74.41,22.1999888 75.0999931,20.3400074 76.48,18.86 C77.8600069,17.3799926 79.7299882,16.64 82.09,16.64 C84.4500118,16.64 86.3199931,17.3799926 87.7,18.86 C89.0800069,20.3400074 89.77,22.1999888 89.77,24.44 C89.77,26.7200114 89.0800069,28.5899927 87.7,30.05 C86.3199931,31.5100073 84.4500118,32.24 82.09,32.24 C79.7299882,32.24 77.8600069,31.5100073 76.48,30.05 Z M79.33,21.17 C78.6499966,22.0300043 78.31,23.1199934 78.31,24.44 C78.31,25.7600066 78.6499966,26.8599956 79.33,27.74 C80.0300035,28.6200044 80.9499943,29.06 82.09,29.06 C83.2300057,29.06 84.1499965,28.6200044 84.85,27.74 C85.5300034,26.8599956 85.87,25.7600066 85.87,24.44 C85.87,23.1199934 85.5300034,22.0300043 84.85,21.17 C84.1499965,20.2699955 83.2300057,19.82 82.09,19.82 C80.9499943,19.82 80.0300035,20.2699955 79.33,21.17 Z M97.18,26.63 L97.18,32 L93.46,32 L93.46,16.88 L97.18,16.88 L97.18,19.34 C98.3200057,17.539991 99.8099908,16.64 101.65,16.64 C102.250003,16.64 102.859997,16.739999 103.48,16.94 L102.79,20.39 C102.329998,20.1099986 101.810003,19.97 101.23,19.97 C99.9899938,19.97 99.0050036,20.5249945 98.275,21.635 C97.5449963,22.7450056 97.18,24.4099889 97.18,26.63 Z M111.91,16.64 C112.630004,16.64 113.329997,16.7949985 114.01,17.105 C114.690003,17.4150015 115.209998,17.7999977 115.57,18.26 L115.57,10.76 L119.29,10.76 L119.29,32 L115.57,32 L115.57,30.44 C115.309999,30.9000023 114.835003,31.3149982 114.145,31.685 C113.454997,32.0550018 112.710004,32.24 111.91,32.24 C109.709989,32.24 108.010006,31.545007 106.81,30.155 C105.609994,28.7649931 105.01,26.8600121 105.01,24.44 C105.01,22.0199879 105.609994,20.115007 106.81,18.725 C108.010006,17.3349931 109.709989,16.64 111.91,16.64 Z M109.9,21.05 C109.239997,21.8700041 108.91,22.9999928 108.91,24.44 C108.91,25.9000073 109.239997,27.029996 109.9,27.83 C110.560003,28.6500041 111.399995,29.06 112.42,29.06 C113.460005,29.06 114.289997,28.660004 114.91,27.86 C115.570003,27.059996 115.9,25.9200074 115.9,24.44 C115.9,22.9999928 115.570003,21.8700041 114.91,21.05 C114.269997,20.2299959 113.440005,19.82 112.42,19.82 C111.399995,19.82 110.560003,20.2299959 109.9,21.05 Z M139.75,23.78 L135.73,23.78 L135.73,32 L131.83,32 L131.83,11 L139.75,11 C141.85001,11 143.469994,11.5749942 144.61,12.725 C145.750006,13.8750057 146.32,15.4299902 146.32,17.39 C146.32,19.3500098 145.750006,20.9049943 144.61,22.055 C143.469994,23.2050057 141.85001,23.78 139.75,23.78 Z M135.73,20.18 L139.6,20.18 C141.440009,20.18 142.36,19.2500093 142.36,17.39 C142.36,15.5299907 141.440009,14.6 139.6,14.6 L135.73,14.6 L135.73,20.18 Z M153.01,26.63 L153.01,32 L149.29,32 L149.29,16.88 L153.01,16.88 L153.01,19.34 C154.150006,17.539991 155.639991,16.64 157.48,16.64 C158.080003,16.64 158.689997,16.739999 159.31,16.94 L158.62,20.39 C158.159998,20.1099986 157.640003,19.97 157.06,19.97 C155.819994,19.97 154.835004,20.5249945 154.105,21.635 C153.374996,22.7450056 153.01,24.4099889 153.01,26.63 Z M162.91,30.05 C161.529993,28.5899927 160.84,26.7200114 160.84,24.44 C160.84,22.1999888 161.529993,20.3400074 162.91,18.86 C164.290007,17.3799926 166.159988,16.64 168.52,16.64 C170.880012,16.64 172.749993,17.3799926 174.13,18.86 C175.510007,20.3400074 176.2,22.1999888 176.2,24.44 C176.2,26.7200114 175.510007,28.5899927 174.13,30.05 C172.749993,31.5100073 170.880012,32.24 168.52,32.24 C166.159988,32.24 164.290007,31.5100073 162.91,30.05 Z M165.76,21.17 C165.079997,22.0300043 164.74,23.1199934 164.74,24.44 C164.74,25.7600066 165.079997,26.8599956 165.76,27.74 C166.460003,28.6200044 167.379994,29.06 168.52,29.06 C169.660006,29.06 170.579996,28.6200044 171.28,27.74 C171.960003,26.8599956 172.3,25.7600066 172.3,24.44 C172.3,23.1199934 171.960003,22.0300043 171.28,21.17 C170.579996,20.2699955 169.660006,19.82 168.52,19.82 C167.379994,19.82 166.460003,20.2699955 165.76,21.17 Z M179.53,30.71 L179.53,16.88 L183.25,16.88 L183.25,30.26 C183.25,32.6000117 182.740005,34.4099936 181.72,35.69 C180.699995,36.9700064 179.100011,37.8599975 176.92,38.36 L176.02,35.09 C177.240006,34.7699984 178.129997,34.2850033 178.69,33.635 C179.250003,32.9849968 179.53,32.0100065 179.53,30.71 Z M179.68,14.24 C179.219998,13.7799977 178.99,13.2100034 178.99,12.53 C178.99,11.8499966 179.219998,11.2800023 179.68,10.82 C180.140002,10.3599977 180.709997,10.13 181.39,10.13 C182.070003,10.13 182.639998,10.3599977 183.1,10.82 C183.560002,11.2800023 183.79,11.8499966 183.79,12.53 C183.79,13.2100034 183.560002,13.7799977 183.1,14.24 C182.639998,14.7000023 182.070003,14.93 181.39,14.93 C180.709997,14.93 180.140002,14.7000023 179.68,14.24 Z M200.89,24.11 L200.89,25.64 L190.48,25.64 C190.52,26.6000048 190.864997,27.4099967 191.515,28.07 C192.165003,28.7300033 193.009995,29.06 194.05,29.06 C195.590008,29.06 196.809995,28.2800078 197.71,26.72 L200.71,27.83 C199.429994,30.7700147 197.140017,32.24 193.84,32.24 C192.599994,32.24 191.495005,32.0050023 190.525,31.535 C189.554995,31.0649977 188.795003,30.4450038 188.245,29.675 C187.694997,28.9049962 187.280001,28.0750045 187,27.185 C186.719999,26.2949956 186.58,25.3800047 186.58,24.44 C186.58,23.4999953 186.719999,22.5850044 187,21.695 C187.280001,20.8049956 187.694997,19.9750039 188.245,19.205 C188.795003,18.4349961 189.554995,17.8150024 190.525,17.345 C191.495005,16.8749977 192.599994,16.64 193.84,16.64 C195.020006,16.64 196.079995,16.8649978 197.02,17.315 C197.960005,17.7650023 198.709997,18.3799961 199.27,19.16 C200.350005,20.6400074 200.89,22.2899909 200.89,24.11 Z M193.84,19.82 C192.979996,19.82 192.255003,20.0949972 191.665,20.645 C191.074997,21.1950028 190.710001,21.8799959 190.57,22.7 L197.08,22.7 C196.659998,20.7799904 195.580009,19.82 193.84,19.82 Z M214.18,26.57 L217.51,27.92 C216.349994,30.8000144 214.060017,32.24 210.64,32.24 C208.299988,32.24 206.480007,31.5000074 205.18,30.02 C203.899994,28.5599927 203.26,26.7000113 203.26,24.44 C203.26,22.1799887 203.899994,20.3200073 205.18,18.86 C206.480007,17.3799926 208.299988,16.64 210.64,16.64 C214.060017,16.64 216.349994,18.0799856 217.51,20.96 L214.18,22.31 C213.359996,20.6499917 212.180008,19.82 210.64,19.82 C209.519994,19.82 208.660003,20.2349959 208.06,21.065 C207.459997,21.8950042 207.16,23.0199929 207.16,24.44 C207.16,25.8600071 207.459997,26.9849959 208.06,27.815 C208.660003,28.6450041 209.519994,29.06 210.64,29.06 C212.180008,29.06 213.359996,28.2300083 214.18,26.57 Z M228.52,28.7 L229.39,31.7 C228.609996,32.0600018 227.790004,32.24 226.93,32.24 C225.169991,32.24 223.805005,31.7650047 222.835,30.815 C221.864995,29.8649952 221.38,28.4800091 221.38,26.66 L221.38,20.06 L219.04,20.06 L219.04,16.88 L221.38,16.88 L221.38,13.1 L225.1,10.76 L225.1,16.88 L229.09,16.88 L229.09,20.06 L225.1,20.06 L225.1,26.6 C225.1,27.4800044 225.259998,28.1099981 225.58,28.49 C225.900002,28.8700019 226.399997,29.06 227.08,29.06 C227.600003,29.06 228.079998,28.9400012 228.52,28.7 Z M237.19,16.64 C238.170005,16.64 239.084996,16.8649978 239.935,17.315 C240.785004,17.7650023 241.449998,18.3599963 241.93,19.1 L239.71,21.14 C239.009997,20.2599956 238.170005,19.82 237.19,19.82 C236.789998,19.82 236.460001,19.9299989 236.2,20.15 C235.939999,20.3700011 235.81,20.679998 235.81,21.08 C235.81,21.7000031 236.289995,22.1899982 237.25,22.55 L238.33,22.94 L239.62,23.39 C239.760001,23.4500003 240.119997,23.6399984 240.7,23.96 C241.240003,24.2400014 241.599999,24.4999988 241.78,24.74 C242.400003,25.4400035 242.71,26.2599953 242.71,27.2 C242.71,28.5800069 242.210005,29.769995 241.21,30.77 C240.229995,31.7500049 238.940008,32.24 237.34,32.24 C235.899993,32.24 234.650005,31.8300041 233.59,31.01 C232.549995,30.209996 231.800002,29.2600055 231.34,28.16 L234.31,26.57 C234.910003,28.2300083 235.919993,29.06 237.34,29.06 C238.580006,29.06 239.2,28.5200054 239.2,27.44 C239.2,26.9399975 238.930003,26.5600013 238.39,26.3 C238.149999,26.1599993 237.870002,26.0400005 237.55,25.94 C237.369999,25.8599996 237.010003,25.720001 236.47,25.52 C235.929997,25.319999 235.580001,25.1900003 235.42,25.13 C234.399995,24.6899978 233.635003,24.1600031 233.125,23.54 C232.614997,22.9199969 232.36,22.0900052 232.36,21.05 C232.36,19.8299939 232.809996,18.7900043 233.71,17.93 C234.590004,17.0699957 235.749993,16.64 237.19,16.64 Z" id="Nord-Projects-Copy-2" fill="#000000"></path>
            </g>
        </g>
    </g>
</svg>