<?xml version="1.0" encoding="UTF-8"?>
<svg width="283px" height="113px" viewBox="0 0 283 113" version="1.1" xmlns="http://www.w3.org/2000/svg" xmlns:xlink="http://www.w3.org/1999/xlink">
    <!-- Generator: Sketch 45 (43475) - http://www.bohemiancoding.com/sketch -->
    <title>NORD logo Copy</title>
    <desc>Created with Sketch.</desc>
    <defs>
        <polygon id="path-1" points="0.106929613 0.0719183243 63.2734912 0.0719183243 63.2734912 62.7841218 0.106929613 62.7841218 0.106929613 0.0719183243"></polygon>
        <polygon id="path-3" points="27.6986448 27.9782259 0.123423686 27.9782259 0.123423686 0.600933536 27.6986448 0.600933536 27.6986448 27.9782259"></polygon>
        <polygon id="path-5" points="25.1579839 27.9782259 0.0740848946 27.9782259 0.0740848946 0.600933536 25.1579839 0.600933536"></polygon>
        <polygon id="path-7" points="21.9366197 27.9782259 0.138626918 27.9782259 0.138626918 0.640776288 21.9366197 0.640776288"></polygon>
    </defs>
    <g id="Welcome" stroke="none" stroke-width="1" fill="none" fill-rule="evenodd" opacity="0.904098732">
        <g id="Desktop-HD-Copy-5" transform="translate(-311.000000, -184.000000)">
            <g id="NORD-logo-Copy" transform="translate(311.000000, 184.000000)">
                <polygon id="Fill-1" fill="#231F20" points="41.3185861 1.64907119 41.3185861 39.7283855 13.3145191 1.64907119 0.0834042399 1.64907119 0.0834042399 62.2704651 12.9516495 62.2704651 12.9516495 22.7340855 41.7718145 62.2704651 54.1868314 62.2704651 54.1868314 1.64907119"></polygon>
                <g id="Group-28" transform="translate(1.006986, 0.577632)">
                    <g id="Group-4" transform="translate(73.011669, 0.000000)">
                        <mask id="mask-2" fill="white">
                            <use xlink:href="#path-1"></use>
                        </mask>
                        <g id="Clip-3"></g>
                        <path d="M50.0423763,31.4277324 C50.0423763,20.0675139 42.8825144,11.5236169 31.7353898,11.5236169 C20.4964721,11.5236169 13.3380445,20.0675139 13.3380445,31.4277324 C13.3380445,42.6973338 20.4964721,51.3318478 31.7353898,51.3318478 C42.8825144,51.3318478 50.0423763,42.6973338 50.0423763,31.4277324 M0.106929613,31.4277324 C0.106929613,13.160478 13.4298376,0.0713429777 31.7353898,0.0713429777 C49.9520174,0.0713429777 63.2734912,13.160478 63.2734912,31.4277324 C63.2734912,49.6949867 49.9520174,62.7841218 31.7353898,62.7841218 C13.4298376,62.7841218 0.106929613,49.6949867 0.106929613,31.4277324" id="Fill-2" fill="#231F20" mask="url(#mask-2)"></path>
                    </g>
                    <path d="M191.660782,20.5205993 C191.660782,15.5222758 187.763878,12.4326646 182.688006,12.4326646 L169.095456,12.4326646 L169.095456,28.7912066 L182.688006,28.7912066 C187.763878,28.7912066 191.660782,25.7015954 191.660782,20.5205993 L191.660782,20.5205993 Z M190.391455,61.6924016 L178.520026,40.1514251 L169.095456,40.1514251 L169.095456,61.6924016 L156.225776,61.6924016 L156.225776,1.07244605 L184.50092,1.07244605 C197.098089,1.07244605 204.891897,9.34305335 204.891897,20.6112164 C204.891897,31.2464982 198.094904,37.0618139 191.570423,38.6066195 L205.256201,61.6924016 L190.391455,61.6924016 Z" id="Fill-5" fill="#231F20"></path>
                    <path d="M268.150395,31.3363961 C268.150395,20.7025527 261.624479,12.4319454 249.299821,12.4319454 L238.243055,12.4319454 L238.243055,50.3314639 L249.209462,50.3314639 C261.172685,50.3314639 268.150395,41.6969499 268.150395,31.3363961 L268.150395,31.3363961 Z M225.37481,61.6916824 L225.37481,1.07172687 L249.209462,1.07172687 C268.150395,1.07172687 281.291151,13.1597588 281.291151,31.3363961 C281.291151,49.6957059 268.150395,61.6916824 249.299821,61.6916824 L225.37481,61.6916824 Z" id="Fill-7" fill="#231F20"></path>
                    <path d="M16.0052078,93.7830771 C16.0052078,91.5608009 14.3041669,90.2130515 12.0896583,90.2130515 L6.15466067,90.2130515 L6.15466067,97.3128284 L12.0896583,97.3128284 C14.3041669,97.3128284 16.0052078,95.965079 16.0052078,93.7830771 L16.0052078,93.7830771 Z M0.535201798,111.71663 L0.535201798,85.2506871 L12.8785053,85.2506871 C18.6155741,85.2506871 21.7422765,89.1400301 21.7422765,93.7830771 C21.7422765,98.3858498 18.5768488,102.273754 12.8785053,102.273754 L6.15466067,102.273754 L6.15466067,111.71663 L0.535201798,111.71663 Z" id="Fill-9" fill="#231F20"></path>
                    <path d="M45.4791118,93.7423713 C45.4791118,91.5603693 43.7780709,90.21262 41.5635623,90.21262 L35.6285647,90.21262 L35.6285647,97.3541096 L41.5635623,97.3541096 C43.7780709,97.3541096 45.4791118,96.0034834 45.4791118,93.7423713 L45.4791118,93.7423713 Z M44.9240504,111.716199 L39.742043,102.313597 L35.6285647,102.313597 L35.6285647,111.716199 L30.0091058,111.716199 L30.0091058,85.2516939 L42.3524093,85.2516939 C47.852824,85.2516939 51.2549058,88.8619938 51.2549058,93.7826456 C51.2549058,98.4242542 48.2888412,100.964409 45.4403866,101.639003 L51.4141094,111.716199 L44.9240504,111.716199 Z" id="Fill-11" fill="#231F20"></path>
                    <g id="Group-15" transform="translate(58.804955, 84.214360)">
                        <mask id="mask-4" fill="white">
                            <use xlink:href="#path-3"></use>
                        </mask>
                        <g id="Clip-14"></g>
                        <path d="M21.9228508,14.2898674 C21.9228508,9.33037974 18.7961483,5.59925707 13.931114,5.59925707 C9.0244859,5.59925707 5.89921768,9.33037974 5.89921768,14.2898674 C5.89921768,19.2090808 9.0244859,22.9790393 13.931114,22.9790393 C18.7961483,22.9790393 21.9228508,19.2090808 21.9228508,14.2898674 M0.123423686,14.2898674 C0.123423686,6.31556358 5.93937716,0.600933536 13.931114,0.600933536 C21.8841256,0.600933536 27.6986448,6.31556358 27.6986448,14.2898674 C27.6986448,22.2656095 21.8841256,27.9788012 13.931114,27.9788012 C5.93937716,27.9788012 0.123423686,22.2656095 0.123423686,14.2898674" id="Fill-13" fill="#231F20" mask="url(#mask-4)"></path>
                    </g>
                    <path d="M92.0423094,109.574327 L94.493472,105.289434 C95.5232759,106.281906 96.8686185,107.193831 98.6887036,107.193831 C101.18146,107.193831 102.803616,105.48649 102.803616,102.949211 L102.803616,85.2515501 L108.460366,85.2515501 L108.460366,103.026883 C108.460366,109.256448 104.543382,112.192154 99.163446,112.192154 C96.4727608,112.192154 93.9412792,111.439889 92.0423094,109.574327" id="Fill-16" fill="#231F20"></path>
                    <polygon id="Fill-18" fill="#231F20" points="118.389941 111.716343 118.389941 85.2518378 137.065534 85.2518378 137.065534 90.2127638 124.007966 90.2127638 124.007966 95.7662968 136.787287 95.7662968 136.787287 100.725784 124.007966 100.725784 124.007966 106.756855 137.065534 106.756855 137.065534 111.716343"></polygon>
                    <g id="Group-22" transform="translate(144.860987, 84.214360)">
                        <mask id="mask-6" fill="white">
                            <use xlink:href="#path-5"></use>
                        </mask>
                        <g id="Clip-21"></g>
                        <path d="M0.0740848946,14.2898674 C0.0740848946,6.11563064 6.20701142,0.600933536 14.1585888,0.600933536 C19.935817,0.600933536 23.2977393,3.73657248 25.1579839,7.06782926 L20.3302405,9.44976416 C19.2244205,7.30803646 16.849274,5.59925707 14.1585888,5.59925707 C9.33227964,5.59925707 5.84987889,9.29010548 5.84987889,14.2898674 C5.84987889,19.2881909 9.33227964,22.9790393 14.1585888,22.9790393 C16.849274,22.9790393 19.2244205,21.2716983 20.3302405,19.1299706 L25.1579839,21.4701929 C23.2977393,24.7640521 19.935817,27.9788012 14.1585888,27.9788012 C6.20701142,27.9788012 0.0740848946,22.4238299 0.0740848946,14.2898674" id="Fill-20" fill="#231F20" mask="url(#mask-6)"></path>
                    </g>
                    <polygon id="Fill-23" fill="#231F20" points="184.220654 111.716343 184.220654 90.2127638 176.505731 90.2127638 176.505731 85.2518378 197.553602 85.2518378 197.553602 90.2127638 189.877404 90.2127638 189.877404 111.716343"></polygon>
                    <g id="Group-27" transform="translate(203.665942, 84.214360)">
                        <mask id="mask-8" fill="white">
                            <use xlink:href="#path-7"></use>
                        </mask>
                        <g id="Clip-26"></g>
                        <path d="M0.138626918,23.7725861 L3.22230139,19.3683079 C5.08254594,21.3129794 7.97116007,22.9786078 11.6113302,22.9786078 C14.7380327,22.9786078 16.199551,21.5891458 16.199551,20.0429018 C16.199551,15.4401291 1.00635857,18.6534398 1.00635857,8.69562861 C1.00635857,4.29135043 4.80573237,0.640776288 11.0175436,0.640776288 C15.2113409,0.640776288 18.6937416,1.91085389 21.3041079,4.33018632 L18.1774054,8.53596993 C16.0432158,6.55246254 13.1947612,5.64053819 10.5040759,5.64053819 C8.12892946,5.64053819 6.78358683,6.67184696 6.78358683,8.25980356 C6.78358683,12.4238745 21.9366197,9.60755296 21.9366197,19.4876924 C21.9366197,24.3292339 18.4556533,27.9783697 11.3732419,27.9783697 C6.27011918,27.9783697 2.62851477,26.2710287 0.138626918,23.7725861" id="Fill-25" fill="#231F20" mask="url(#mask-8)"></path>
                    </g>
                </g>
            </g>
        </g>
    </g>
</svg>