<?xml version="1.0" encoding="UTF-8"?>
<svg width="204px" height="82px" viewBox="0 0 204 82" version="1.1" xmlns="http://www.w3.org/2000/svg" xmlns:xlink="http://www.w3.org/1999/xlink">
    <!-- Generator: Sketch 45.1 (43504) - http://www.bohemiancoding.com/sketch -->
    <title>NORD logo Copy 4</title>
    <desc>Created with Sketch.</desc>
    <defs>
        <polygon id="path-1" points="0.0770366429 0.0518306193 45.5849151 0.0518306193 45.5849151 45.247716 0.0770366429 45.247716 0.0770366429 0.0518306193"></polygon>
        <polygon id="path-3" points="19.9552822 20.1635507 0.0889196746 20.1635507 0.0889196746 0.433085137 19.9552822 0.433085137 19.9552822 20.1635507"></polygon>
        <polygon id="path-5" points="18.124882 20.1635507 0.0533739101 20.1635507 0.0533739101 0.433085137 18.124882 0.433085137"></polygon>
        <polygon id="path-7" points="15.8040742 20.1635507 0.09987273 20.1635507 0.09987273 0.4617993 15.8040742 0.4617993"></polygon>
    </defs>
    <g id="Welcome" stroke="none" stroke-width="1" fill="none" fill-rule="evenodd" opacity="0.9">
        <g id="Mobile-Portrait-Copy-9" transform="translate(-61.000000, -224.000000)">
            <g id="NORD-logo-Copy-4" transform="translate(61.000000, 224.000000)">
                <polygon id="Fill-1" fill="#231F20" points="29.7676674 1.18846458 29.7676674 28.6317409 9.59234605 1.18846458 0.060087963 1.18846458 0.060087963 44.8775302 9.33091935 44.8775302 9.33091935 16.3841656 30.0941924 44.8775302 39.0384988 44.8775302 39.0384988 1.18846458"></polygon>
                <g id="Group-28" transform="translate(19.227053, 0.416292)">
                    <g id="Group-4" transform="translate(34.099135, 0.000000)">
                        <mask id="mask-2" fill="white">
                            <use xlink:href="#path-1"></use>
                        </mask>
                        <g id="Clip-3"></g>
                        <path d="M36.052657,22.649566 C36.052657,14.4624014 30.8943879,8.3049238 22.863525,8.3049238 C14.7665305,8.3049238 9.60929473,14.4624014 9.60929473,22.649566 C9.60929473,30.7714241 14.7665305,36.9942082 22.863525,36.9942082 C30.8943879,36.9942082 36.052657,30.7714241 36.052657,22.649566 M0.0770366429,22.649566 C0.0770366429,9.48458869 9.67542638,0.0514159744 22.863525,0.0514159744 C35.9875586,0.0514159744 45.5849151,9.48458869 45.5849151,22.649566 C45.5849151,35.8145433 35.9875586,45.247716 22.863525,45.247716 C9.67542638,45.247716 0.0770366429,35.8145433 0.0770366429,22.649566" id="Fill-2" fill="#231F20" mask="url(#mask-2)"></path>
                    </g>
                    <path d="M119.579004,14.7889343 C119.579004,11.1867062 116.771508,8.96006283 113.114635,8.96006283 L103.321983,8.96006283 L103.321983,20.7494555 L113.114635,20.7494555 C116.771508,20.7494555 119.579004,18.5228121 119.579004,14.7889343 L119.579004,14.7889343 Z M118.664527,44.4609272 L110.111844,28.9366201 L103.321983,28.9366201 L103.321983,44.4609272 L94.0501184,44.4609272 L94.0501184,0.772898196 L114.420735,0.772898196 C123.496271,0.772898196 129.111262,6.73341942 129.111262,14.8542409 C129.111262,22.5189528 124.21442,26.7099767 119.513906,27.8232984 L129.373722,44.4609272 L118.664527,44.4609272 Z" id="Fill-5" fill="#231F20"></path>
                    <path d="M174.685375,22.5837411 C174.685375,14.9200657 169.983828,8.95954452 161.10462,8.95954452 L153.138856,8.95954452 L153.138856,36.2732443 L161.039522,36.2732443 C169.658336,36.2732443 174.685375,30.0504601 174.685375,22.5837411 L174.685375,22.5837411 Z M143.868024,44.4604089 L143.868024,0.772379889 L161.039522,0.772379889 C174.685375,0.772379889 184.152535,9.48407039 184.152535,22.5837411 C184.152535,35.8150616 174.685375,44.4604089 161.10462,44.4604089 L143.868024,44.4604089 Z" id="Fill-7" fill="#231F20"></path>
                    <path d="M11.5308326,67.5882679 C11.5308326,65.9867018 10.3053304,65.0153959 8.70990422,65.0153959 L4.4340794,65.0153959 L4.4340794,70.1321147 L8.70990422,70.1321147 C10.3053304,70.1321147 11.5308326,69.1608089 11.5308326,67.5882679 L11.5308326,67.5882679 Z M0.385582146,80.5127511 L0.385582146,61.4390832 L9.27822313,61.4390832 C13.4114516,61.4390832 15.6640611,64.2420831 15.6640611,67.5882679 C15.6640611,70.9054275 13.3835523,73.7073908 9.27822313,73.7073908 L4.4340794,73.7073908 L4.4340794,80.5127511 L0.385582146,80.5127511 Z" id="Fill-9" fill="#231F20"></path>
                    <path d="M32.7650871,67.5589318 C32.7650871,65.9863908 31.5395848,65.015085 29.9441587,65.015085 L25.6683338,65.015085 L25.6683338,70.1618655 L29.9441587,70.1618655 C31.5395848,70.1618655 32.7650871,69.1884864 32.7650871,67.5589318 L32.7650871,67.5589318 Z M32.3651972,80.5124401 L28.6318586,73.736105 L25.6683338,73.736105 L25.6683338,80.5124401 L21.6198366,80.5124401 L21.6198366,61.4398088 L30.5124776,61.4398088 C34.4752103,61.4398088 36.9262148,64.0417059 36.9262148,67.5879569 C36.9262148,70.9331051 34.7893357,72.7637626 32.7371878,73.2499338 L37.0409119,80.5124401 L32.3651972,80.5124401 Z" id="Fill-11" fill="#231F20"></path>
                    <g id="Group-15" transform="translate(42.365591, 60.692216)">
                        <mask id="mask-4" fill="white">
                            <use xlink:href="#path-3"></use>
                        </mask>
                        <g id="Clip-14"></g>
                        <path d="M15.7941544,10.2985252 C15.7941544,6.72428571 13.5415449,4.03531318 10.0365672,4.03531318 C6.5016236,4.03531318 4.25004741,6.72428571 4.25004741,10.2985252 C4.25004741,13.8437396 6.5016236,16.5607007 10.0365672,16.5607007 C13.5415449,16.5607007 15.7941544,13.8437396 15.7941544,10.2985252 M0.0889196746,10.2985252 C0.0889196746,4.55154615 4.27898,0.433085137 10.0365672,0.433085137 C15.7662551,0.433085137 19.9552822,4.55154615 19.9552822,10.2985252 C19.9552822,16.0465409 15.7662551,20.1639653 10.0365672,20.1639653 C4.27898,20.1639653 0.0889196746,16.0465409 0.0889196746,10.2985252" id="Fill-13" fill="#231F20" mask="url(#mask-4)"></path>
                    </g>
                    <path d="M66.3111957,78.9688206 L68.0771176,75.8807523 C68.8190321,76.5960149 69.7882741,77.2532271 71.0995409,77.2532271 C72.8954286,77.2532271 74.064099,76.0227682 74.064099,74.194184 L74.064099,61.4397052 L78.1394622,61.4397052 L78.1394622,74.2501611 C78.1394622,78.7397293 75.3175005,80.8554552 71.4415655,80.8554552 C69.5030814,80.8554552 67.6792943,80.3133069 66.3111957,78.9688206" id="Fill-16" fill="#231F20"></path>
                    <polygon id="Fill-18" fill="#231F20" points="85.2931507 80.5125438 85.2931507 61.4399125 98.7478425 61.4399125 98.7478425 65.0151886 89.3406146 65.0151886 89.3406146 69.0175491 98.547381 69.0175491 98.547381 72.5917886 89.3406146 72.5917886 89.3406146 76.9383043 98.7478425 76.9383043 98.7478425 80.5125438"></polygon>
                    <g id="Group-22" transform="translate(104.364018, 60.692216)">
                        <mask id="mask-6" fill="white">
                            <use xlink:href="#path-5"></use>
                        </mask>
                        <g id="Clip-21"></g>
                        <path d="M0.0533739101,10.2985252 C0.0533739101,4.40745703 4.47179511,0.433085137 10.2004497,0.433085137 C14.3626108,0.433085137 16.7846826,2.69290014 18.124882,5.09369443 L14.6467702,6.81032454 C13.8500904,5.2668087 12.1389339,4.03531318 10.2004497,4.03531318 C6.7233713,4.03531318 4.21450164,6.69526057 4.21450164,10.2985252 C4.21450164,13.9007533 6.7233713,16.5607007 10.2004497,16.5607007 C12.1389339,16.5607007 13.8500904,15.3302417 14.6467702,13.7867259 L18.124882,15.4732943 C16.7846826,17.8471366 14.3626108,20.1639653 10.2004497,20.1639653 C4.47179511,20.1639653 0.0533739101,16.1605683 0.0533739101,10.2985252" id="Fill-20" fill="#231F20" mask="url(#mask-6)"></path>
                    </g>
                    <polygon id="Fill-23" fill="#231F20" points="132.720397 80.5125438 132.720397 65.0151886 127.162238 65.0151886 127.162238 61.4399125 142.32602 61.4399125 142.32602 65.0151886 136.79576 65.0151886 136.79576 80.5125438"></polygon>
                    <g id="Group-27" transform="translate(146.729610, 60.692216)">
                        <mask id="mask-8" fill="white">
                            <use xlink:href="#path-7"></use>
                        </mask>
                        <g id="Clip-26"></g>
                        <path d="M0.09987273,17.1325997 L2.32148302,13.9584926 C3.66168234,15.3599925 5.74276286,16.5603897 8.3652963,16.5603897 C10.6179058,16.5603897 11.6708457,15.5590221 11.6708457,14.4446638 C11.6708457,11.1275041 0.725023531,13.4432962 0.725023531,6.26682867 C0.725023531,3.09272154 3.46225406,0.4617993 7.93750716,0.4617993 C10.9588971,0.4617993 13.4677668,1.37712804 15.3483857,3.12071007 L13.0957762,6.15176469 C11.5582153,4.72227621 9.50606735,4.06506396 7.56758321,4.06506396 C5.85642664,4.06506396 4.88718457,4.80831504 4.88718457,5.95273511 C4.88718457,8.95372797 15.8040742,6.92404092 15.8040742,14.0445314 C15.8040742,17.5337687 13.2962378,20.1636543 8.19376732,20.1636543 C4.51726062,20.1636543 1.89369387,18.9331954 0.09987273,17.1325997" id="Fill-25" fill="#231F20" mask="url(#mask-8)"></path>
                    </g>
                </g>
            </g>
        </g>
    </g>
</svg>